<?xml version="1.0" encoding="utf-8"?>
<!-- Generator: Adobe Illustrator 25.3.1, SVG Export Plug-In . SVG Version: 6.00 Build 0)  -->
<svg version="1.1" id="Layer_1" xmlns="http://www.w3.org/2000/svg" xmlns:xlink="http://www.w3.org/1999/xlink" x="0px" y="0px"
	 viewBox="0 0 985 760" style="enable-background:new 0 0 985 760;" xml:space="preserve">
<style type="text/css">
	.st0{display:none;}
	.st1{display:inline;fill:#131313;}
	.st2{fill:none;stroke:#C55668;stroke-width:7;stroke-miterlimit:10;}
	.st3{fill:none;stroke:#C55668;stroke-width:7;stroke-linecap:round;stroke-linejoin:round;stroke-miterlimit:10;}
	.st4{stroke:#C55668;stroke-width:7;stroke-miterlimit:10;}
	.st5{fill:#C55668;}
	.st6{fill:none;stroke:#C55668;stroke-width:3;stroke-linecap:round;stroke-miterlimit:10;}
	.st7{font-family:'Manteiga-Gorda';}
	.st8{font-size:44.5155px;}
	.st9{fill:none;stroke:#C55668;stroke-width:2;stroke-miterlimit:10.0001;}
	.st10{fill:#FFFFFF;}
	.st11{fill:#C55668;stroke:#C55668;stroke-width:7;stroke-linecap:round;stroke-linejoin:round;stroke-miterlimit:10;}
</style>
<g id="Layer_2_1_" class="st0">
	<path class="st1" d="M-227-20v811h1402V-20H-227z M549,543c-25,18-55,17-84,11c-33-7-49-39-71-63s-26-57-29-89c-4-48,1-93,8-141
		c2-11,3-25,11-33c14-15,25-35,47-37c-22,2-33,22-47,37c-8,8-9,22-11,33c-7,48-12,93-8,141c3,32,7,65,29,89s38,56,71,63
		C494,560,524,561,549,543c45-35,55-94,39-143c-14-38-17-78-37-114c-18-34-30-81-68-94c38,13,50,60,68,94c20,36,23,76,37,114
		C604,449,594,508,549,543z"/>
</g>
<g>
	<g id="dolphin">
		<g>
			<path id="_x3C_Path_x3E_dolpin_3_" class="st2" d="M178,195.3c48.8,20.9-2.6,79.2-1.7,97.1c2.1,43.3,66.7-16.8,66.7-16.8
				s4.8,3.4,0.7,4c-68,44.8-39.7,115.5-29.6,191.2c0,0-51.2,63.9-21.2,91.8c3.6,2.8,9.2,2.8,17.7,0C307.8,534.3,311,414.9,313.3,380
				s21.7-55.9,0.8-87.1c-20.9-31.1,11.6-77.7-6-95.1c-9.7-9.5-24.6-11.5-35.4-11.1"/>
		</g>
		<path id="_x3C_Path_x3E_dolpin_2_" class="st3" d="M176.3,292.3c-97.6-24.4-116,27.1-110.4,23.2c13.1-9.2,44.2,32.5,81.4,62.8
			c41.1,33.4,53.5-59.3,55.8,75.6c0.2,12.3-0.9,21.7-3.1,30c-1.4,5.3-3.5,9.5-7.4,18c-10.6,23.2-12.6,19.9-14.5,28.9
			c-1.1,5.1-2.5,12.5-8.3,19.4c-0.4,0.5-0.9,1-1.6,1.4c-13.4,9.7-37,7.8-66.3-12.8C79.5,523,26.5,566.4,39.7,565
			c67.4,0,51.2,79.3,77.3,61c-31.4,41.8,20.9,44.2,18.6,122c0,0,49.9-33.8,40.7-100c-1.9-13.2,7-27.9,7-27.9
			c52.9-13.4,104.8-50.1,112.2-58.5c60.9-66.6,12.4-53.7,15.7-151.2c-3.4-30.4,23.2-111.1,23.2-111.1c-0.6-6.4,29.8-64.1,70.9-105.2
			c-6.2-13.9-2.4-25.6-11.6-52.9c-6.7-19.7-14-34.1-17.5-40.7c-2-3.8-12.1-22.6-24.3-37.2c-9.3-11.1-45.6-54.7-98.8-51.1
			c-35,2.3-60.5,23.9-72.1,37.2c-5.8,6.6-13,14.8-17.3,27.6c-2.5,7.4-5.3,20.1-6.9,31.7c-0.2,1.2,3.7,14.3-2.1,25
			c-1.8,3.3,16,8,14.5,7.6c-22.7-6.4-20.3-2.9-46.3-8.8c-7.8-1.8-21.7,1.3-27.5,12.9c-9.6,19.1,17.6,27.8,19.2,28.5
			c24.4,10.5,15.9,3,53.5,17.4c29.3,11.2,35.7,18.5,50,19.8c34.8,3.1,50.4-28.5,54.6-24.4c7.7,7.6-71.2,109.6-82.5,102.3
			c-5-3.2,36.4-53.9,21-76c-2.4-3.5-8.6-4.7-11-5.9"/>
		<path class="st2" d="M262.3,114.2c0-25.1,15.1-26.1,15.1-26.1s15.1-0.6,15.1,26.1c0,20.5-2.8,17.4-15.1,25.1
			C266.1,143.9,262.3,128.1,262.3,114.2z"/>
		<path class="st4" d="M150.1,123.2c0-10.6,6.5-25.6,8.1-25.6s-1.2,8.6-1.2,19.2s-1.9,16.8-3.5,16.8S150.1,133.8,150.1,123.2z"/>
		<g>
			<path class="st5" d="M295.4,61.6c3.5-1.3,7.4-1.4,11.1-0.5s7.5,3,10.1,6.4c2.6,3.3,3.8,7.6,3.5,11.5c-0.2,3.9-1.5,7.5-3.8,10.5
				c-0.6-3.7-0.9-7.1-1.7-10c-0.2-0.8-0.4-1.5-0.6-2.2c-0.3-0.7-0.5-1.4-0.8-2c-0.3-0.7-0.6-1.2-1-1.8l-0.5-0.9l-0.6-0.8
				c-1.7-2.1-3.9-3.9-6.6-5.6C301.8,64.6,298.8,63.2,295.4,61.6z"/>
		</g>
	</g>
	<g id="globe_grp">
		<path class="st2" d="M887.5,256.8c-39.2,12-80.3,7.2-120.5,8.2c18-26,26-57,46-85c1.1-1.6,2.2-3.3,3.3-4.8
			c-53.3-43-121-68.8-194.9-68.8C450,106.4,311,245.4,311,416.8s139,310.4,310.4,310.4s310.4-139,310.4-310.4
			C931.8,358.2,915.6,303.5,887.5,256.8z"/>
		<path class="st2" d="M828.7,263C972,489.6,776,713,621.5,727.1"/>
		<path class="st2" d="M621.5,106.4C711.4,124,760,166,792.8,215.7"/>
		<path class="st2" d="M607.5,106.4c215.6,98.9,291.9,532.6,0,620.7"/>
		<path class="st2" d="M617.9,114.2c74.2,62.6,104.5,523.8,0,612.8"/>
		<path class="st2" d="M621.6,106.5c-359.3,104.1-325.1,561.4,0,620.7"/>
		<path class="st2" d="M635.8,106.4c-229.7,68.7-314.1,526,0,620.9"/>
		<path class="st2" d="M625.2,114.4c-92.9,78.3-123,508,0,612.8"/>
		<path class="st2" d="M399.5,200.5c47.7,68.6,297.8,74.8,386.7,31.6"/>
		<path class="st2" d="M334.4,299.3c91.8,87.2,510.1,91.8,576.3,0"/>
		<path class="st2" d="M311.2,410.4c93.2,107.3,547.2,101.8,620.7,6.3"/>
		<path class="st2" d="M339,537.6c125.5,72.1,471.9,87.2,573.1-10.5"/>
		<path class="st2" d="M399.5,634.1c184.8,58.1,315,55.8,459.1-16.3"/>
		<path class="st2" d="M493,133.7c83.7,31.4,156.9,38.4,261,1.7"/>
	</g>
</g>
<line class="st2" x1="798.9" y1="162.1" x2="828" y2="161"/>
<path id="text_bubble" class="st6" d="M618.6,29.9c-8.8-7.4-20-10-83.1,4.4L451,54.9c-21.7,5.3-58.7,14.6-63.1,22.7
	c-0.8,1.5,0.6,6.1,2.5,7.7l4.3,3.5c5.4,5.8,18.9,4.3,39.2,1.2l29.2-6c11-0.7-25,14.7-59.5,27.5c-0.3,0.1-0.2,0.6,0.2,0.6
	c18.7-3.9,101.2-21.9,98.9-37.1C647.4,42,620.9,35.7,618.6,29.9z"/>
<text transform="matrix(0.9736 -0.2283 0.2283 0.9736 385.0613 99.0003)" class="st5 st7 st8">Hey there!</text>
<text transform="matrix(0.9736 -0.2283 0.2283 0.9736 385.0613 99.0003)" class="st9 st7 st8">Hey there!</text>
<text transform="matrix(0.9736 -0.2283 0.2283 0.9736 386.0613 98.0003)" class="st5 st7 st8">Hey there!</text>
<text transform="matrix(0.9736 -0.2283 0.2283 0.9736 386.0613 98.0003)" class="st9 st7 st8">Hey there!</text>
<text transform="matrix(0.9736 -0.2283 0.2283 0.9736 387.0613 96.0003)" class="st10 st7 st8">Hey there!</text>
<text transform="matrix(0.9736 -0.2283 0.2283 0.9736 387.0613 96.0003)" class="st9 st7 st8">Hey there!</text>
<path class="st2" d="M816.3,175.2L828,161c0,0,69,21.5,59.5,95.8"/>
<ellipse class="st2" cx="277.7" cy="122.2" rx="5.3" ry="15.7"/>
<path class="st11" d="M215.9,243.3c-9.3,25-24.9,41.6-21.8,43.7s17.8-14,33-36c15.1-22,44.7-55.8,41.6-57.9
	c-3.1-2.2-31.3,22.2-52.3,22C210.9,215,219,235.2,215.9,243.3z"/>
</svg>
