<?xml version="1.0" encoding="utf-8"?>
<!-- Generator: Adobe Illustrator 25.3.1, SVG Export Plug-In . SVG Version: 6.00 Build 0)  -->
<svg version="1.1" id="Layer_1" xmlns="http://www.w3.org/2000/svg" xmlns:xlink="http://www.w3.org/1999/xlink" x="0px" y="0px"
	 viewBox="0 0 985 760" style="enable-background:new 0 0 985 760;" xml:space="preserve">
<style type="text/css">
	.st0{fill:none;stroke:#C55668;stroke-width:7;stroke-miterlimit:10;}
	.st1{fill:none;stroke:#C55668;stroke-width:7;stroke-linecap:round;stroke-linejoin:round;stroke-miterlimit:10;}
	.st2{stroke:#C55668;stroke-width:7;stroke-miterlimit:10;}
	.st3{fill:#C55668;}
	.st4{display:none;fill:none;stroke:#C55668;stroke-width:3;stroke-linecap:round;stroke-miterlimit:10;}
	.st5{display:none;fill:#C55668;enable-background:new    ;}
	.st6{font-family:'Manteiga-Gorda';}
	.st7{font-size:32.8288px;}
	.st8{display:none;fill:none;stroke:#C55668;stroke-width:2;stroke-miterlimit:10.0002;enable-background:new    ;}
	.st9{enable-background:new    ;}
	.st10{fill:none;stroke:#C55668;stroke-width:2;stroke-miterlimit:10.0002;}
	.st11{fill:#231F20;}
	.st12{fill:none;stroke:#C55668;stroke-width:8;stroke-miterlimit:10;}
	.st13{display:none;fill:#C55668;stroke:#C55668;stroke-width:7;stroke-linecap:round;stroke-linejoin:round;stroke-miterlimit:10;}
</style>
<g>
	<g id="dolphin">
		<g>
			<path id="_x3C_Path_x3E_dolpin_3_" class="st0" d="M308.1,200c33.8,14.5-1.8,54.9-1.2,67.3c1.5,30,46.3-11.6,46.3-11.6
				s3.3,2.4,0.5,2.8c-47.2,31.1-27.5,80.1-20.5,132.6c0,0-35.5,44.3-14.7,63.7c2.5,1.9,6.4,1.9,12.3,0
				c67.4-19.6,69.6-102.4,71.2-126.6c1.6-24.2,15-38.8,0.6-60.4c-14.5-21.6,8-53.9-4.2-65.9c-6.7-6.6-17.1-8-24.5-7.7"/>
		</g>
		<path id="_x3C_Path_x3E_dolpin_2_" class="st1" d="M306.9,267.3c-67.7-16.9-80.4,18.8-76.6,16.1c9.1-6.4,30.7,22.5,56.4,43.5
			c28.5,23.2,37.1-41.1,38.7,52.4c0.1,8.5-0.6,15-2.1,20.8c-1,3.7-2.4,6.6-5.1,12.5c-7.4,16.1-8.7,13.8-10.1,20
			c-0.8,3.5-1.7,8.7-5.8,13.5c-0.3,0.3-0.6,0.7-1.1,1c-9.3,6.7-25.7,5.4-46-8.9c-15.5-11-52.3,19.1-43.1,18.2
			c46.7,0,35.5,55,53.6,42.3c-21.8,29,14.5,30.7,12.9,84.6c0,0,34.6-23.4,28.2-69.3c-1.3-9.2,4.9-19.3,4.9-19.3
			c36.7-9.3,72.7-34.7,77.8-40.6c42.2-46.2,8.6-37.2,10.9-104.8c-2.4-21.1,16.1-77,16.1-77c-0.4-4.4,20.7-44.5,49.2-73
			c-4.3-9.6-1.7-17.8-8-36.7c-4.6-13.7-9.7-23.6-12.1-28.2c-1.4-2.6-8.4-15.7-16.9-25.8c-6.4-7.7-31.6-37.9-68.5-35.4
			c-24.3,1.6-42,16.6-50,25.8c-4,4.6-9,10.3-12,19.1c-1.7,5.1-3.7,13.9-4.8,22c-0.1,0.8,2.6,9.9-1.5,17.3
			c-1.2,2.3,11.1,5.5,10.1,5.3c-15.7-4.4-14.1-2-32.1-6.1c-5.4-1.2-15,0.9-19.1,8.9c-6.7,13.2,12.2,19.3,13.3,19.8
			c16.9,7.3,11,2.1,37.1,12.1c20.3,7.8,24.8,12.8,34.7,13.7c24.1,2.1,34.9-19.8,37.9-16.9c5.3,5.3-49.4,76-57.2,70.9
			c-3.5-2.2,25.2-37.4,14.6-52.7c-1.7-2.4-6-3.3-7.6-4.1"/>
		<path class="st0" d="M366.6,143.8c0-17.4,10.5-18.1,10.5-18.1s10.5-0.4,10.5,18.1c0,14.2-1.9,12.1-10.5,17.4
			C369.2,164.4,366.6,153.4,366.6,143.8z"/>
		<path class="st2" d="M288.8,150c0-7.4,4.5-17.8,5.6-17.8s-0.8,6-0.8,13.3c0,7.4-1.3,11.6-2.4,11.6
			C290,157.2,288.8,157.4,288.8,150z"/>
		<g>
			<path class="st3" d="M389.5,107.3c2.4-0.9,5.1-1,7.7-0.3c2.6,0.6,5.2,2.1,7,4.4c1.8,2.3,2.6,5.3,2.4,8c-0.1,2.7-1,5.2-2.6,7.3
				c-0.4-2.6-0.6-4.9-1.2-6.9c-0.1-0.6-0.3-1-0.4-1.5c-0.2-0.5-0.3-1-0.6-1.4c-0.2-0.5-0.4-0.8-0.7-1.2l-0.3-0.6l-0.4-0.6
				c-1.2-1.5-2.7-2.7-4.6-3.9C393.9,109.4,391.9,108.4,389.5,107.3z"/>
		</g>
	</g>
	<g id="globe_grp">
		<path class="st0" d="M800.1,242.7c-27.2,8.3-55.7,5-83.6,5.7c12.5-18,18-39.5,31.9-58.9c0.8-1.1,1.5-2.3,2.3-3.3
			c-37-29.8-83.9-47.7-135.2-47.7c-118.9,0-215.2,96.4-215.2,215.2s96.4,215.2,215.2,215.2s215.2-96.4,215.2-215.2
			C830.8,313,819.6,275,800.1,242.7z"/>
		<path class="st0" d="M759.3,247c99.4,157.1-36.5,312.1-143.7,321.8"/>
		<path class="st0" d="M615.6,138.4c62.3,12.2,96,41.3,118.8,75.8"/>
		<path class="st0" d="M605.9,138.4c149.5,68.6,202.4,369.3,0,430.4"/>
		<path class="st0" d="M613.1,143.8c51.5,43.4,72.5,363.2,0,424.9"/>
		<path class="st0" d="M615.7,138.4c-249.2,72.2-225.4,389.3,0,430.4"/>
		<path class="st0" d="M625.6,138.4c-159.3,47.6-217.8,364.8,0,430.6"/>
		<path class="st0" d="M618.2,143.9c-64.4,54.3-85.3,352.3,0,424.9"/>
		<path class="st0" d="M461.7,203.6c33.1,47.6,206.5,51.9,268.2,21.9"/>
		<path class="st0" d="M416.6,272.1c63.7,60.5,353.7,63.7,399.6,0"/>
		<path class="st0" d="M400.5,349.2c64.6,74.4,379.5,70.6,430.4,4.4"/>
		<path class="st0" d="M419.7,437.4c87,50,327.2,60.5,397.4-7.3"/>
		<path class="st0" d="M461.7,504.3C589.8,544.6,680.1,543,780.1,493"/>
		<path class="st0" d="M526.5,157.3c58,21.8,108.8,26.6,181,1.2"/>
	</g>
</g>
<line class="st0" x1="738.7" y1="177" x2="758.8" y2="176.2"/>
<path id="text_bubble" class="st4" d="M629.2,111c-6.5-5.5-14.7-7.4-61.3,3.2l-62.3,15.2c-16,3.9-43.3,10.8-46.5,16.7
	c-0.6,1.1,0.4,4.5,1.8,5.7l3.2,2.6c4,4.3,13.9,3.2,28.9,0.9l21.5-4.4c8.1-0.5-18.4,10.8-43.9,20.3c-0.2,0.1-0.1,0.4,0.1,0.4
	c13.8-2.9,74.6-16.2,72.9-27.4C650.4,119.9,630.9,115.3,629.2,111z"/>
<text transform="matrix(0.9736 -0.2283 0.2283 0.9736 435.9774 170.7776)" class="st5 st6 st7">Hey there!</text>
<text transform="matrix(0.9736 -0.2283 0.2283 0.9736 435.9774 170.7776)" class="st8 st6 st7">Hey there!</text>
<g>
	<g class="st9">
		<path class="st3" d="M482.6,110.4c0.1,4.1,0.2,5.5,0.4,6.6c-1,0.6-2.7,1.2-5.2,1.3c-3.5,0.1-5.4-1.2-5.7-4.9
			c-0.1-1.4-0.1-3.2-0.2-5.1c-0.9,0.2-1.8,0.3-2.7,0.3c-0.9,0.1-1.7,0.1-2.6,0c0.1,1.1,0.2,2.2,0.3,2.9c0.5,3.8,0.8,5.1,1.2,6
			c-0.9,0.5-2.2,1-4.5,1.1c-3.2,0.2-5.2-0.8-5.9-4.2c-0.7-3.1-1-7.9-2.3-13.2c-0.5-2.2-1.2-5.9-1.9-8.1c1-1.4,3-3,5.5-3.9
			c3.6-1.3,5.2,0.5,5.9,5.9c0.2,1.9,0.5,4.7,0.8,6.7c0.8-0.2,1.5-0.3,2.3-0.4c1-0.1,1.9-0.2,2.9-0.2c-0.1-0.9-0.3-2-0.4-3.1
			c-0.4-3.2-0.9-7.6-1.6-10c1.2-1.9,3.4-4,6.3-5.2c3.9-1.6,5.8-0.3,6.3,6.4C481.8,96,482.4,106.8,482.6,110.4z"/>
		<path class="st3" d="M506.7,108.8c0.3,3-3.9,6-10.2,7.3c-7.2,1.5-11.1-1.8-11.4-7.1c-0.2-3.1,1.1-5.6,3.9-7.5
			c0.8-4.3,4-8.5,7.5-10.2c5-2.4,8.2,1,8.5,7.1c0.2,6.7-2.8,9.4-8.5,10.4c-0.5,0.1-1,0.2-1.6,0.2c0.9,1.1,2.4,1.4,4.2,1
			c2.5-0.5,5-2.1,5.9-3.7C505.8,106.8,506.6,107.6,506.7,108.8z M493.8,105.7c0.3,0,0.6-0.1,0.9-0.1c1.8-0.3,2.6-1.3,2.5-2.9
			c-0.1-1.2-0.7-2.1-1.7-1.8C494.4,101.2,493.6,103.5,493.8,105.7z"/>
		<path class="st3" d="M527.3,93.3c2.4,12.8,2.8,17.6-1.3,19.2c-0.4,2.4-5,4.4-11.5,6.2c-5.6,1.6-7.8,0.9-7.4-2.2
			c0.2-1.7,1.3-3.3,1.8-3.9c0.8,0.5,2.8,0.7,5.5,0.2c3.2-0.5,6.8-1.4,6.3-4.9c-1.1,1.8-3.3,2.8-6.5,3.2c-4,0.5-5.7-0.9-6.6-4.5
			c-0.5-2.1-0.3-5.5-0.4-9.7c-0.1-3.5-0.3-6.6-0.9-8.4c1.1-2.2,2.3-3.5,4.2-4.3c3-1.2,5,0.9,5.4,5.8c0.3,3.6,0.4,8.6,0.7,11.5
			c0.2,1.5,0.7,2,1.4,1.9c0.7-0.2,1.3-0.5,1.7-1c-1-6.1-2.1-14.7-2.6-17.2c0.4-1.6,1.8-3.2,3.3-3.4C523.5,81.4,525.3,83,527.3,93.3z
			"/>
		<path class="st3" d="M551.2,99.2c2.2,5,1.3,8.6-2.7,9.7c-4.4,1.2-7.2-1.3-9.6-8.8c-1.1-3.3-1.9-6-2.5-8.3
			c-0.5,0.1-0.7,0.2-1.2,0.3c-0.6-0.7-1.3-2.1-1.9-4.4c-0.6-2.1-0.7-4.7,0.3-6.7c1.8-3.6,3.3-4.7,5.2-4.9c1-0.1,1.8,0,2.3,0.3
			c0,1.2-0.1,3.2,0.1,5.8c1.4-0.1,2.6-0.2,3.5-0.5c0.6,1,1,2,1.1,2.9c0.4,1.9,0.3,4.7-1.7,5.3c-0.3,0.1-0.5,0.2-0.8,0.3
			c0.7,2,1.2,3.1,2.1,5.3c0.8,2,1.6,2.7,2.3,2.4c0.7-0.3,1-1.2,1.3-2C549.5,96,550.4,97.4,551.2,99.2z"/>
		<path class="st3" d="M569.6,94.8c0.1,1.4-0.4,2.4-1.8,3.3c-2,1.3-4.5-0.6-6.1-3.9c-1-2-2-4.9-2.6-6.5c-0.5-1.7-1-2.1-2-2
			c-0.3,0-0.6,0.1-0.8,0.3c0.4,1.8,1.1,3.9,1.7,5.2c2,4.8,3.4,6.6,4.3,7.6c0.2,2.3-0.7,3.7-2.3,4.8c-2.2,1.5-4.5,0.5-7-5.1
			c-2.9-6.5-5.5-13.5-5.3-20.5c0-2.4,0-5.1-0.8-6.9c0.9-1.6,3.2-3.1,5.6-3.8c3.4-1,4.8-0.1,4.5,3.8c-0.2,2.4-0.9,6.5-1.1,10.2
			c1.2-1.8,3-3.2,5.3-3.8c3.5-0.9,4.6,2.1,4.3,6.3c-0.2,2.6,0,5,1,7.1C567.2,92.4,568.5,94,569.6,94.8z"/>
		<path class="st3" d="M582.8,89.1c0,3.4-1.4,4.1-5.2,4.8c-4.3,0.8-10.1-1.2-11.1-6.2c-0.6-2.9,1.6-6.4,4.2-8.1c1.8-4,5-6.8,8.3-8
			c4.6-1.7,7.2,0.6,5.7,5.9c-1.7,5.9-5.9,10.3-10.2,10.9c-0.4,0.1-0.8,0.1-1.2,0c0.7,1.1,1.9,1.5,3.2,1.3c1.8-0.2,4.1-1.8,5.5-4.1
			C582.4,86.5,582.8,87.8,582.8,89.1z M573,84.2c0.2-0.1,0.5-0.1,0.8-0.1c1.5-0.4,2.5-1.5,2.9-3.1c0.3-1.2,0-2-0.8-1.8
			C574.9,79.5,573.7,81.5,573,84.2z"/>
		<path class="st3" d="M584.3,88.6c0.1-2.1,1.5-6.3,2.8-10.8c0.6-2.2,1.2-4.7,0.8-6.2c1.5-2.6,3.4-4.5,5.8-5.3
			c2.7-0.9,4.5,0.2,3.5,4.4c-0.2,0.7-0.5,1.8-0.7,2.5c0.2,0,0.2-0.1,0.4-0.1c2.8-7.1,3.9-8.5,5.7-8.7c2.4-0.3,4,1.4,3.2,5.8
			c-0.7,3.5-2.3,6.6-3,7.9c-1.3-0.3-2.5-0.3-3.7-0.1c-2.4,0.6-3.9,2.9-4.5,5.7c-0.6,2.5-0.4,5.5,0.3,6.7c-1.1,1-2.8,1.3-4.5,1.6
			C586.7,92.6,584.1,92.8,584.3,88.6z"/>
		<path class="st3" d="M631.6,80.9c-1.1,4.3-6.3,7.3-14.4,8.1c-9.1,0.9-14.6-1.9-12.2-10.7c1.3-5.1,4.5-9.1,7.9-10
			c1.6-3.3,4.3-3.7,8.8-3.9c6.3-0.3,9.6,3.5,10.3,6.6c0.7,3.4-5.4,7.3-12.9,7.9c-0.7,0.1-1.4,0.1-2,0c0.6,1.7,2.4,2.4,4.8,2.2
			c3.2-0.3,7.3-2.2,9.1-4.1C631.6,77.9,632.1,79.3,631.6,80.9z M617.4,73.5c0.4,0,0.8,0,1.2,0c2.4-0.1,3.7-1,3.8-2.3
			c0.1-1-0.7-1.7-1.8-1.8C619.3,69.4,618.3,70.6,617.4,73.5z"/>
		<path class="st3" d="M636.1,69.9c0-4.5,7-23.6,6.4-24.5c2.3-2.1,6.8-5.1,11.3-7.2c8.1-3.9,10.1-2.4,7.8,2.5
			C657,51,649.1,61.4,646.3,72.7c-0.9,0.9-1.9,1.4-3.9,1.5C638.4,74.5,636,73.8,636.1,69.9z M634.1,81.8c1-3.9,3.1-5.7,7.7-6
			c4.5-0.3,6.4,0.4,5.7,3.7c-0.7,3.1-3.8,6-8.2,6.8C634.8,87.1,633.1,85.6,634.1,81.8z"/>
	</g>
	<g class="st9">
		<path class="st10" d="M482.6,110.4c0.1,4.1,0.2,5.5,0.4,6.6c-1,0.6-2.7,1.2-5.2,1.3c-3.5,0.1-5.4-1.2-5.7-4.9
			c-0.1-1.4-0.1-3.2-0.2-5.1c-0.9,0.2-1.8,0.3-2.7,0.3c-0.9,0.1-1.7,0.1-2.6,0c0.1,1.1,0.2,2.2,0.3,2.9c0.5,3.8,0.8,5.1,1.2,6
			c-0.9,0.5-2.2,1-4.5,1.1c-3.2,0.2-5.2-0.8-5.9-4.2c-0.7-3.1-1-7.9-2.3-13.2c-0.5-2.2-1.2-5.9-1.9-8.1c1-1.4,3-3,5.5-3.9
			c3.6-1.3,5.2,0.5,5.9,5.9c0.2,1.9,0.5,4.7,0.8,6.7c0.8-0.2,1.5-0.3,2.3-0.4c1-0.1,1.9-0.2,2.9-0.2c-0.1-0.9-0.3-2-0.4-3.1
			c-0.4-3.2-0.9-7.6-1.6-10c1.2-1.9,3.4-4,6.3-5.2c3.9-1.6,5.8-0.3,6.3,6.4C481.8,96,482.4,106.8,482.6,110.4z"/>
		<path class="st10" d="M506.7,108.8c0.3,3-3.9,6-10.2,7.3c-7.2,1.5-11.1-1.8-11.4-7.1c-0.2-3.1,1.1-5.6,3.9-7.5
			c0.8-4.3,4-8.5,7.5-10.2c5-2.4,8.2,1,8.5,7.1c0.2,6.7-2.8,9.4-8.5,10.4c-0.5,0.1-1,0.2-1.6,0.2c0.9,1.1,2.4,1.4,4.2,1
			c2.5-0.5,5-2.1,5.9-3.7C505.8,106.8,506.6,107.6,506.7,108.8z M493.8,105.7c0.3,0,0.6-0.1,0.9-0.1c1.8-0.3,2.6-1.3,2.5-2.9
			c-0.1-1.2-0.7-2.1-1.7-1.8C494.4,101.2,493.6,103.5,493.8,105.7z"/>
		<path class="st10" d="M527.3,93.3c2.4,12.8,2.8,17.6-1.3,19.2c-0.4,2.4-5,4.4-11.5,6.2c-5.6,1.6-7.8,0.9-7.4-2.2
			c0.2-1.7,1.3-3.3,1.8-3.9c0.8,0.5,2.8,0.7,5.5,0.2c3.2-0.5,6.8-1.4,6.3-4.9c-1.1,1.8-3.3,2.8-6.5,3.2c-4,0.5-5.7-0.9-6.6-4.5
			c-0.5-2.1-0.3-5.5-0.4-9.7c-0.1-3.5-0.3-6.6-0.9-8.4c1.1-2.2,2.3-3.5,4.2-4.3c3-1.2,5,0.9,5.4,5.8c0.3,3.6,0.4,8.6,0.7,11.5
			c0.2,1.5,0.7,2,1.4,1.9c0.7-0.2,1.3-0.5,1.7-1c-1-6.1-2.1-14.7-2.6-17.2c0.4-1.6,1.8-3.2,3.3-3.4C523.5,81.4,525.3,83,527.3,93.3z
			"/>
		<path class="st10" d="M551.2,99.2c2.2,5,1.3,8.6-2.7,9.7c-4.4,1.2-7.2-1.3-9.6-8.8c-1.1-3.3-1.9-6-2.5-8.3
			c-0.5,0.1-0.7,0.2-1.2,0.3c-0.6-0.7-1.3-2.1-1.9-4.4c-0.6-2.1-0.7-4.7,0.3-6.7c1.8-3.6,3.3-4.7,5.2-4.9c1-0.1,1.8,0,2.3,0.3
			c0,1.2-0.1,3.2,0.1,5.8c1.4-0.1,2.6-0.2,3.5-0.5c0.6,1,1,2,1.1,2.9c0.4,1.9,0.3,4.7-1.7,5.3c-0.3,0.1-0.5,0.2-0.8,0.3
			c0.7,2,1.2,3.1,2.1,5.3c0.8,2,1.6,2.7,2.3,2.4c0.7-0.3,1-1.2,1.3-2C549.5,96,550.4,97.4,551.2,99.2z"/>
		<path class="st10" d="M569.6,94.8c0.1,1.4-0.4,2.4-1.8,3.3c-2,1.3-4.5-0.6-6.1-3.9c-1-2-2-4.9-2.6-6.5c-0.5-1.7-1-2.1-2-2
			c-0.3,0-0.6,0.1-0.8,0.3c0.4,1.8,1.1,3.9,1.7,5.2c2,4.8,3.4,6.6,4.3,7.6c0.2,2.3-0.7,3.7-2.3,4.8c-2.2,1.5-4.5,0.5-7-5.1
			c-2.9-6.5-5.5-13.5-5.3-20.5c0-2.4,0-5.1-0.8-6.9c0.9-1.6,3.2-3.1,5.6-3.8c3.4-1,4.8-0.1,4.5,3.8c-0.2,2.4-0.9,6.5-1.1,10.2
			c1.2-1.8,3-3.2,5.3-3.8c3.5-0.9,4.6,2.1,4.3,6.3c-0.2,2.6,0,5,1,7.1C567.2,92.4,568.5,94,569.6,94.8z"/>
		<path class="st10" d="M582.8,89.1c0,3.4-1.4,4.1-5.2,4.8c-4.3,0.8-10.1-1.2-11.1-6.2c-0.6-2.9,1.6-6.4,4.2-8.1c1.8-4,5-6.8,8.3-8
			c4.6-1.7,7.2,0.6,5.7,5.9c-1.7,5.9-5.9,10.3-10.2,10.9c-0.4,0.1-0.8,0.1-1.2,0c0.7,1.1,1.9,1.5,3.2,1.3c1.8-0.2,4.1-1.8,5.5-4.1
			C582.4,86.5,582.8,87.8,582.8,89.1z M573,84.2c0.2-0.1,0.5-0.1,0.8-0.1c1.5-0.4,2.5-1.5,2.9-3.1c0.3-1.2,0-2-0.8-1.8
			C574.9,79.5,573.7,81.5,573,84.2z"/>
		<path class="st10" d="M584.3,88.6c0.1-2.1,1.5-6.3,2.8-10.8c0.6-2.2,1.2-4.7,0.8-6.2c1.5-2.6,3.4-4.5,5.8-5.3
			c2.7-0.9,4.5,0.2,3.5,4.4c-0.2,0.7-0.5,1.8-0.7,2.5c0.2,0,0.2-0.1,0.4-0.1c2.8-7.1,3.9-8.5,5.7-8.7c2.4-0.3,4,1.4,3.2,5.8
			c-0.7,3.5-2.3,6.6-3,7.9c-1.3-0.3-2.5-0.3-3.7-0.1c-2.4,0.6-3.9,2.9-4.5,5.7c-0.6,2.5-0.4,5.5,0.3,6.7c-1.1,1-2.8,1.3-4.5,1.6
			C586.7,92.6,584.1,92.8,584.3,88.6z"/>
		<path class="st10" d="M631.6,80.9c-1.1,4.3-6.3,7.3-14.4,8.1c-9.1,0.9-14.6-1.9-12.2-10.7c1.3-5.1,4.5-9.1,7.9-10
			c1.6-3.3,4.3-3.7,8.8-3.9c6.3-0.3,9.6,3.5,10.3,6.6c0.7,3.4-5.4,7.3-12.9,7.9c-0.7,0.1-1.4,0.1-2,0c0.6,1.7,2.4,2.4,4.8,2.2
			c3.2-0.3,7.3-2.2,9.1-4.1C631.6,77.9,632.1,79.3,631.6,80.9z M617.4,73.5c0.4,0,0.8,0,1.2,0c2.4-0.1,3.7-1,3.8-2.3
			c0.1-1-0.7-1.7-1.8-1.8C619.3,69.4,618.3,70.6,617.4,73.5z"/>
		<path class="st10" d="M636.1,69.9c0-4.5,7-23.6,6.4-24.5c2.3-2.1,6.8-5.1,11.3-7.2c8.1-3.9,10.1-2.4,7.8,2.5
			C657,51,649.1,61.4,646.3,72.7c-0.9,0.9-1.9,1.4-3.9,1.5C638.4,74.5,636,73.8,636.1,69.9z M634.1,81.8c1-3.9,3.1-5.7,7.7-6
			c4.5-0.3,6.4,0.4,5.7,3.7c-0.7,3.1-3.8,6-8.2,6.8C634.8,87.1,633.1,85.6,634.1,81.8z"/>
	</g>
	<g class="st9">
		<path class="st11" d="M483.7,108.8c0.3,4,0.2,5.5,0.5,6.5c-1.1,0.7-2.8,1.3-5.3,1.4c-3.6,0.2-5.5-1.2-5.8-4.9
			c-0.1-1.4-0.1-3.2-0.3-5.1c-0.9,0.2-1.8,0.3-2.7,0.3c-0.9,0.1-1.7,0.1-2.6,0.1c0.1,1.1,0.2,2.2,0.3,2.9c0.5,3.8,0.8,5.1,1.1,6.1
			c-0.9,0.6-2.2,1-4.6,1.2c-3.3,0.2-5.2-0.9-5.9-4.2c-0.6-3.2-1.1-6.9-2.3-13.5c-0.5-2.7-1.2-6.7-1.9-8.9c1-1.4,3-3.1,5.6-4.1
			c3.6-1.4,5.3,0.2,5.9,5.9c0.2,2,0.5,5.1,0.8,7.6c0.8-0.2,1.5-0.4,2.3-0.6c1-0.2,1.9-0.4,3-0.4c-0.1-1.1-0.2-2.3-0.4-3.6
			c-0.4-3.6-0.9-8-1.6-10.4c1.2-1.9,3.4-3.9,6.3-5.1c3.9-1.6,5.9-0.7,6.3,5.9S483.4,105.2,483.7,108.8z"/>
		<path class="st11" d="M507.7,107.1c0.6,2.9-3.5,5.7-9.8,7.1c-7.2,1.6-11.1-1.7-11.7-6.9c-0.3-3,1-6.5,3.8-8.7
			c0.9-4.9,4.1-9.2,7.6-11c5-2.5,8.2,0.7,8.4,7.3c0.2,7.2-3,11.2-8.6,12.2c-0.5,0.1-1,0.1-1.5,0.2c0.9,1,2.5,1.3,4.3,0.9
			c2.4-0.5,4.8-1.8,5.7-4.1C506.6,104.9,507.4,106,507.7,107.1z M494.7,103.6c0.3-0.1,0.6-0.1,0.9-0.2c1.8-0.5,2.7-1.8,2.6-3.7
			c-0.1-1.4-0.7-2.4-1.6-2C495.5,98.2,494.6,100.7,494.7,103.6z"/>
		<path class="st11" d="M527.7,90.2c2.4,12.5,3.5,19.5-0.5,21.1c-0.1,2.5-4.8,4.4-11.3,5.9c-5.7,1.3-7.8,0.6-7.4-2.5
			c0.2-1.7,1.2-3.2,1.7-3.8c0.8,0.5,2.9,0.7,5.5,0.4c3.2-0.4,6.4-0.5,5.9-5.2c-1,2.5-3.1,3.1-6.2,3.5c-3.9,0.4-6.3,0.1-6.9-4.8
			c-0.3-2.9-0.1-6.9-0.3-11.3c-0.1-3.7-0.3-6.8-0.9-8.5c1-2.1,2.2-3.3,4.1-3.9c2.9-1,4.9,0.9,5.3,5.7c0.3,3.5,0.4,8.6,0.8,11.8
			c0.2,1.7,0.7,2.3,1.4,2.1c0.7-0.2,1.2-0.6,1.7-1.2c-1-6.8-2.1-15-2.6-17.3c0.4-1.5,1.7-2.7,3.2-2.8
			C524.1,79.3,525.7,80.2,527.7,90.2z"/>
		<path class="st11" d="M551,96.2c2.2,5,1.6,8.9-2.3,10.2c-4.2,1.5-7.3-1.8-9.8-9.3c-1.1-3.4-1.9-5.9-2.5-8.1
			c-0.5,0.1-0.7,0.1-1.2,0.2c-0.5-0.6-1.3-2-1.8-4c-0.5-1.9-0.3-3.8,0.7-5.7c1.9-3.6,3.5-4.9,5.5-5.2c1-0.2,1.8-0.1,2.4,0.2
			c0,1.2-0.1,3.2-0.1,5.9c1.4-0.1,2.7-0.3,3.6-0.7c0.6,1,0.9,2.1,1,3c0.2,2-0.3,4.1-2.4,4.6c-0.3,0.1-0.5,0.1-0.8,0.2
			c0.6,1.7,1,2.8,1.8,4.9c0.8,1.9,1.6,2.6,2.3,2.3c0.7-0.3,1-1.2,1.3-2C549.3,93.2,550.2,94.5,551,96.2z"/>
		<path class="st11" d="M569.2,93c0,1.2-0.5,2.2-1.8,2.9c-2,1.1-4.4-0.9-5.9-4.1c-0.9-1.9-1.7-4.5-1.9-6c-0.3-1.5-0.8-1.9-1.8-1.8
			c-0.3,0-0.6,0.1-0.8,0.2c0.2,1.6,0.6,3.4,1.1,4.6c1.6,4.4,3,6.3,3.9,7.3c0.2,2.2-0.6,3.6-2.2,4.6c-2.1,1.4-4.6,0.3-7-5.3
			c-2.8-6.4-4.2-12.5-4-19.7c0.1-2.4,0.1-5.2-0.8-6.9c0.9-1.6,3.1-3,5.4-3.6c3.4-0.9,4.8-0.2,4.7,3.5c-0.1,2.3-0.8,6.4-1.2,10.3
			c1.3-2,3.1-3.4,5.5-4.1c3.6-1,4.8,1.9,4.1,6.4c-0.4,2.8-0.7,5.6,0,7.5C567.1,90.7,568.2,92.3,569.2,93z"/>
		<path class="st11" d="M584,87c-0.6,4.1-2.7,5.2-6.7,5.7c-4.5,0.6-10.1-0.9-10.2-6.5c-0.1-3.2,2.3-7.2,5-9c1.9-4.1,5.1-6.9,8.4-8.1
			c4.6-1.7,7.5,0.2,6,5.6c-1.7,5.9-6.5,10.9-11.1,11.9c-0.4,0.1-0.8,0.1-1.2,0.1c0.5,1.3,1.7,1.7,3.2,1.4c2-0.4,4.6-2.4,6.3-4.9
			C583.9,84,584.2,85.4,584,87z M574.4,81.9c0.2-0.1,0.5-0.1,0.8-0.2c1.6-0.5,2.7-1.7,3.1-3.4c0.3-1.3,0.1-2.1-0.8-1.8
			C576.5,76.9,575.2,78.9,574.4,81.9z"/>
		<path class="st11" d="M585.6,86.4c0.4-2.5,2.1-7.1,3.4-11.5c0.6-2.2,1.1-4.6,0.6-6c1.3-2.4,3.1-4.1,5.3-4.8c2.6-0.8,4.7,0.2,4,4
			c-0.1,0.7-0.3,1.7-0.5,2.3c0.1,0,0.2-0.1,0.4-0.1c2.5-6.7,2.9-7.5,4.7-7.5c2.2,0,4.4,1.1,4,5c-0.3,3.2-1.9,6.2-2.6,7.5
			c-1.3-0.3-2.5-0.4-3.7-0.2c-2.4,0.5-3.9,2.8-4.7,5.8c-0.7,2.7-0.9,6.1-0.4,7.5c-1.3,1.2-3.3,1.7-5.1,2
			C587,91.3,584.8,91.3,585.6,86.4z"/>
		<path class="st11" d="M633.6,78.8c-0.9,4.1-6.3,7.2-14.5,8.1c-9.2,1-14.2-2.5-12-11.2c1.3-5,3.9-8.5,7.1-9.1
			c1-2.7,4.4-3.7,9.3-4.3c6.8-0.9,10,2.8,9.7,7.1c-0.3,4.7-4.6,6.8-12.1,7.2c-0.7,0-1.4,0-2,0c0.6,1.7,2.4,2.4,4.8,2.3
			c3.2-0.2,7.1-2,8.8-3.7C633.4,75.9,634,77.2,633.6,78.8z M619.2,71.4c0.4,0,0.8,0,1.2,0c2.3,0,3.5-0.8,3.4-1.9
			c-0.1-0.9-0.9-1.5-2-1.6C620.6,67.8,619.9,68.7,619.2,71.4z"/>
		<path class="st11" d="M638,67.3c1.1-5.7,8-24.8,7.3-25.5c2.2-2,6.6-4.8,10.9-6.8c7.7-3.6,10.1-2.6,8.5,1.6
			c-4.4,11.1-12.2,21.8-16.6,33.5c-1.3,1.4-2.6,2.4-4.6,2.6C639.4,73.1,637.1,72.3,638,67.3z M636.1,79.6c0.9-3.8,2.7-5.2,7-5.5
			c4.3-0.3,6.4,0.3,6,3.3c-0.4,2.9-3.5,5.8-7.8,6.6C636.8,84.9,635.2,83.4,636.1,79.6z"/>
	</g>
	<g class="st9">
		<path class="st10" d="M483.7,108.8c0.3,4,0.2,5.5,0.5,6.5c-1.1,0.7-2.8,1.3-5.3,1.4c-3.6,0.2-5.5-1.2-5.8-4.9
			c-0.1-1.4-0.1-3.2-0.3-5.1c-0.9,0.2-1.8,0.3-2.7,0.3c-0.9,0.1-1.7,0.1-2.6,0.1c0.1,1.1,0.2,2.2,0.3,2.9c0.5,3.8,0.8,5.1,1.1,6.1
			c-0.9,0.6-2.2,1-4.6,1.2c-3.3,0.2-5.2-0.9-5.9-4.2c-0.6-3.2-1.1-6.9-2.3-13.5c-0.5-2.7-1.2-6.7-1.9-8.9c1-1.4,3-3.1,5.6-4.1
			c3.6-1.4,5.3,0.2,5.9,5.9c0.2,2,0.5,5.1,0.8,7.6c0.8-0.2,1.5-0.4,2.3-0.6c1-0.2,1.9-0.4,3-0.4c-0.1-1.1-0.2-2.3-0.4-3.6
			c-0.4-3.6-0.9-8-1.6-10.4c1.2-1.9,3.4-3.9,6.3-5.1c3.9-1.6,5.9-0.7,6.3,5.9S483.4,105.2,483.7,108.8z"/>
		<path class="st10" d="M507.7,107.1c0.6,2.9-3.5,5.7-9.8,7.1c-7.2,1.6-11.1-1.7-11.7-6.9c-0.3-3,1-6.5,3.8-8.7
			c0.9-4.9,4.1-9.2,7.6-11c5-2.5,8.2,0.7,8.4,7.3c0.2,7.2-3,11.2-8.6,12.2c-0.5,0.1-1,0.1-1.5,0.2c0.9,1,2.5,1.3,4.3,0.9
			c2.4-0.5,4.8-1.8,5.7-4.1C506.6,104.9,507.4,106,507.7,107.1z M494.7,103.6c0.3-0.1,0.6-0.1,0.9-0.2c1.8-0.5,2.7-1.8,2.6-3.7
			c-0.1-1.4-0.7-2.4-1.6-2C495.5,98.2,494.6,100.7,494.7,103.6z"/>
		<path class="st10" d="M527.7,90.2c2.4,12.5,3.5,19.5-0.5,21.1c-0.1,2.5-4.8,4.4-11.3,5.9c-5.7,1.3-7.8,0.6-7.4-2.5
			c0.2-1.7,1.2-3.2,1.7-3.8c0.8,0.5,2.9,0.7,5.5,0.4c3.2-0.4,6.4-0.5,5.9-5.2c-1,2.5-3.1,3.1-6.2,3.5c-3.9,0.4-6.3,0.1-6.9-4.8
			c-0.3-2.9-0.1-6.9-0.3-11.3c-0.1-3.7-0.3-6.8-0.9-8.5c1-2.1,2.2-3.3,4.1-3.9c2.9-1,4.9,0.9,5.3,5.7c0.3,3.5,0.4,8.6,0.8,11.8
			c0.2,1.7,0.7,2.3,1.4,2.1c0.7-0.2,1.2-0.6,1.7-1.2c-1-6.8-2.1-15-2.6-17.3c0.4-1.5,1.7-2.7,3.2-2.8
			C524.1,79.3,525.7,80.2,527.7,90.2z"/>
		<path class="st10" d="M551,96.2c2.2,5,1.6,8.9-2.3,10.2c-4.2,1.5-7.3-1.8-9.8-9.3c-1.1-3.4-1.9-5.9-2.5-8.1
			c-0.5,0.1-0.7,0.1-1.2,0.2c-0.5-0.6-1.3-2-1.8-4c-0.5-1.9-0.3-3.8,0.7-5.7c1.9-3.6,3.5-4.9,5.5-5.2c1-0.2,1.8-0.1,2.4,0.2
			c0,1.2-0.1,3.2-0.1,5.9c1.4-0.1,2.7-0.3,3.6-0.7c0.6,1,0.9,2.1,1,3c0.2,2-0.3,4.1-2.4,4.6c-0.3,0.1-0.5,0.1-0.8,0.2
			c0.6,1.7,1,2.8,1.8,4.9c0.8,1.9,1.6,2.6,2.3,2.3c0.7-0.3,1-1.2,1.3-2C549.3,93.2,550.2,94.5,551,96.2z"/>
		<path class="st10" d="M569.2,93c0,1.2-0.5,2.2-1.8,2.9c-2,1.1-4.4-0.9-5.9-4.1c-0.9-1.9-1.7-4.5-1.9-6c-0.3-1.5-0.8-1.9-1.8-1.8
			c-0.3,0-0.6,0.1-0.8,0.2c0.2,1.6,0.6,3.4,1.1,4.6c1.6,4.4,3,6.3,3.9,7.3c0.2,2.2-0.6,3.6-2.2,4.6c-2.1,1.4-4.6,0.3-7-5.3
			c-2.8-6.4-4.2-12.5-4-19.7c0.1-2.4,0.1-5.2-0.8-6.9c0.9-1.6,3.1-3,5.4-3.6c3.4-0.9,4.8-0.2,4.7,3.5c-0.1,2.3-0.8,6.4-1.2,10.3
			c1.3-2,3.1-3.4,5.5-4.1c3.6-1,4.8,1.9,4.1,6.4c-0.4,2.8-0.7,5.6,0,7.5C567.1,90.7,568.2,92.3,569.2,93z"/>
		<path class="st10" d="M584,87c-0.6,4.1-2.7,5.2-6.7,5.7c-4.5,0.6-10.1-0.9-10.2-6.5c-0.1-3.2,2.3-7.2,5-9c1.9-4.1,5.1-6.9,8.4-8.1
			c4.6-1.7,7.5,0.2,6,5.6c-1.7,5.9-6.5,10.9-11.1,11.9c-0.4,0.1-0.8,0.1-1.2,0.1c0.5,1.3,1.7,1.7,3.2,1.4c2-0.4,4.6-2.4,6.3-4.9
			C583.9,84,584.2,85.4,584,87z M574.4,81.9c0.2-0.1,0.5-0.1,0.8-0.2c1.6-0.5,2.7-1.7,3.1-3.4c0.3-1.3,0.1-2.1-0.8-1.8
			C576.5,76.9,575.2,78.9,574.4,81.9z"/>
		<path class="st10" d="M585.6,86.4c0.4-2.5,2.1-7.1,3.4-11.5c0.6-2.2,1.1-4.6,0.6-6c1.3-2.4,3.1-4.1,5.3-4.8c2.6-0.8,4.7,0.2,4,4
			c-0.1,0.7-0.3,1.7-0.5,2.3c0.1,0,0.2-0.1,0.4-0.1c2.5-6.7,2.9-7.5,4.7-7.5c2.2,0,4.4,1.1,4,5c-0.3,3.2-1.9,6.2-2.6,7.5
			c-1.3-0.3-2.5-0.4-3.7-0.2c-2.4,0.5-3.9,2.8-4.7,5.8c-0.7,2.7-0.9,6.1-0.4,7.5c-1.3,1.2-3.3,1.7-5.1,2
			C587,91.3,584.8,91.3,585.6,86.4z"/>
		<path class="st10" d="M633.6,78.8c-0.9,4.1-6.3,7.2-14.5,8.1c-9.2,1-14.2-2.5-12-11.2c1.3-5,3.9-8.5,7.1-9.1
			c1-2.7,4.4-3.7,9.3-4.3c6.8-0.9,10,2.8,9.7,7.1c-0.3,4.7-4.6,6.8-12.1,7.2c-0.7,0-1.4,0-2,0c0.6,1.7,2.4,2.4,4.8,2.3
			c3.2-0.2,7.1-2,8.8-3.7C633.4,75.9,634,77.2,633.6,78.8z M619.2,71.4c0.4,0,0.8,0,1.2,0c2.3,0,3.5-0.8,3.4-1.9
			c-0.1-0.9-0.9-1.5-2-1.6C620.6,67.8,619.9,68.7,619.2,71.4z"/>
		<path class="st10" d="M638,67.3c1.1-5.7,8-24.8,7.3-25.5c2.2-2,6.6-4.8,10.9-6.8c7.7-3.6,10.1-2.6,8.5,1.6
			c-4.4,11.1-12.2,21.8-16.6,33.5c-1.3,1.4-2.6,2.4-4.6,2.6C639.4,73.1,637.1,72.3,638,67.3z M636.1,79.6c0.9-3.8,2.7-5.2,7-5.5
			c4.3-0.3,6.4,0.3,6,3.3c-0.4,2.9-3.5,5.8-7.8,6.6C636.8,84.9,635.2,83.4,636.1,79.6z"/>
	</g>
</g>
<path class="st0" d="M750.7,186.1l8.1-9.8c0,0,47.8,14.9,41.3,66.4"/>
<ellipse class="st12" cx="377.2" cy="149.9" rx="2.6" ry="7"/>
<path class="st13" d="M311.2,226.2c-6.9,18.4-18.4,30.7-16.1,32.2s13.1-10.3,24.3-26.5c11.1-16.2,33-41.2,30.7-42.7
	c-2.3-1.6-23.1,16.4-38.6,16.2C307.5,205.3,313.5,220.2,311.2,226.2z"/>
</svg>
