<?xml version="1.0" encoding="utf-8"?>
<!-- Generator: Adobe Illustrator 25.3.1, SVG Export Plug-In . SVG Version: 6.00 Build 0)  -->
<svg version="1.1" id="Layer_1" xmlns="http://www.w3.org/2000/svg" xmlns:xlink="http://www.w3.org/1999/xlink" x="0px" y="0px"
	 viewBox="0 0 985 760" style="enable-background:new 0 0 985 760;" xml:space="preserve">
<style type="text/css">
	.st0{display:none;}
	.st1{display:inline;fill:#131313;}
	.st2{fill:none;stroke:#C55668;stroke-width:7;stroke-miterlimit:10;}
	.st3{fill:none;stroke:#C55668;stroke-width:7;stroke-linecap:round;stroke-linejoin:round;stroke-miterlimit:10;}
	.st4{fill:#C55668;}
	.st5{stroke:#C55668;stroke-width:7;stroke-miterlimit:10;}
	.st6{fill:#131313;stroke:#C55668;stroke-width:7;stroke-miterlimit:10;}
</style>
<g id="Layer_2" class="st0">
	<rect x="-227" y="-20" class="st1" width="1402" height="811"/>
</g>
<g>
	<g id="dolphin">
		<g>
			<path id="_x3C_Path_x3E_dolpin_3_" class="st2" d="M178.03,195.28c48.82,20.92-2.61,79.22-1.74,97.06
				c2.11,43.34,66.74-16.81,66.74-16.81s4.75,3.44,0.68,4.03c-68,44.75-39.69,115.48-29.64,191.21c0,0-51.15,63.93-21.17,91.79
				c3.56,2.78,9.16,2.82,17.68,0.04c44.41-14.49,112.75-147.62,115.08-182.5c2.32-34.87,9.31-56.03-11.62-87.18
				c-20.88-31.07,11.63-77.73-6.01-95.1c-9.66-9.51-25.02-12.16-35.84-11.84"/>
		</g>
		<path id="_x3C_Path_x3E_dolpin_2_" class="st3" d="M176.28,292.34c-97.64-24.41-115.98,27.15-110.43,23.25
			c13.13-9.23,44.17,32.55,81.37,62.77c41.14,33.43,53.47-59.28,55.8,75.56c0.21,12.3-0.9,21.68-3.1,30
			c-1.4,5.29-3.48,9.49-7.36,17.96c-10.62,23.16-12.64,19.86-14.53,28.85c-1.07,5.09-2.51,12.53-8.3,19.41
			c-0.43,0.51-0.93,0.95-1.59,1.42c-13.42,9.72-37,7.84-66.26-12.79c-22.37-15.77-75.37,27.57-62.19,26.15
			c67.42,0,51.23,79.35,77.3,61.03c-31.38,41.85,20.92,44.17,18.6,122.05c0,0,49.95-33.84,40.68-99.97
			c-1.85-13.19,6.97-27.9,6.97-27.9c52.89-13.37,78.63-36.9,86.02-45.33c16.27-18.6,93.13-38.57,111.59-134.84
			c2.95-15.37,62.04,107.01,65.09,60.44c9.3-141.81-19.18-147.04-19.18-147.04c-0.58-6.39,18.6-10.46,44.75,8.72
			c18.5,15.97,18.6,52.31,18.6-27.9c0-69.09-29.06-92.99-29.06-92.99c-35.45-36.62-45.33-29.06-55.8-52.31
			c-6.24-13.87-2.4-20.36-11.62-47.66c-6.67-19.73-13.99-34.07-17.52-40.66c-2.05-3.83-12.14-22.63-24.32-37.22
			C342.51,52.22,306.16,8.67,253,12.2c-34.96,2.32-60.49,23.9-72.07,37.2c-5.77,6.63-12.89,14.8-17.21,27.59
			c-2.52,7.44-5.31,20.06-6.86,31.73c-0.17,1.25,3.72,14.34-2.08,24.96c-1.82,3.33,15.97,7.96,14.53,7.56
			c-22.67-6.39-20.34-2.91-46.32-8.82c-7.81-1.78-21.68,1.26-27.49,12.89c-9.56,19.11,17.63,27.82,19.18,28.48
			c24.41,10.46,15.88,3.04,53.47,17.44c29.26,11.2,35.69,18.5,49.98,19.76c34.75,3.07,50.45-28.52,54.63-24.41
			c7.74,7.6-71.19,109.6-82.53,102.29c-4.98-3.21,36.44-53.94,21-75.96c-2.44-3.48-5.75-5.42-8.22-6.57"/>
		<path class="st2" d="M262.3,114.21c0-25.11,15.11-26.06,15.11-26.06s15.11-0.6,15.11,26.06c0,20.48-2.83,17.38-15.11,25.11
			C266.08,143.95,262.3,128.08,262.3,114.21z"/>
		<g>
			<path class="st4" d="M423.79,355.18c-0.68-1.22-1.64-2.66-2.56-4.04l-2.84-4.19c-1.91-2.8-3.83-5.62-5.71-8.46
				c-3.76-5.69-7.42-11.46-10.77-17.43c-3.35-5.96-6.44-12.1-8.75-18.57c-1.13-3.23-2.07-6.56-2.47-9.98
				c-0.39-3.39-0.22-6.97,1.22-10.06c-1.16,3.21-1.02,6.67-0.36,9.92c0.67,3.27,1.86,6.42,3.23,9.47
				c2.78,6.09,6.31,11.83,10.09,17.37c3.78,5.55,7.87,10.9,12.05,16.19c2.1,2.64,4.23,5.25,6.37,7.88l3.22,3.97
				c1.08,1.36,2.13,2.64,3.25,4.29L423.79,355.18z"/>
		</g>
		<path class="st5" d="M150.13,123.21c0-10.59,6.53-25.57,8.14-25.57c1.6,0-1.16,8.59-1.16,19.18s-1.88,16.85-3.49,16.85
			C152.01,133.67,150.13,133.8,150.13,123.21z"/>
		<g>
			<path class="st4" d="M295.43,61.61c3.53-1.35,7.38-1.36,11.12-0.48c3.72,0.91,7.46,3.03,10.06,6.37
				c2.62,3.33,3.77,7.64,3.51,11.51c-0.24,3.9-1.5,7.5-3.76,10.49c-0.58-3.7-0.93-7.05-1.72-10.04c-0.16-0.76-0.43-1.46-0.63-2.17
				c-0.29-0.67-0.47-1.37-0.81-1.99c-0.27-0.65-0.61-1.24-0.96-1.83l-0.54-0.86l-0.61-0.81c-1.66-2.13-3.88-3.95-6.57-5.57
				C301.83,64.58,298.8,63.18,295.43,61.61z"/>
		</g>
	</g>
	<g id="globe_grp">
		<circle id="Outline" class="st6" cx="621.48" cy="416.72" r="310.36"/>
		<path class="st2" d="M621.48,106.36c353.37,120.89,331.28,560.27,0,620.72"/>
		<path class="st2" d="M607.53,106.36c215.64,98.89,291.89,532.56,0,620.72"/>
		<path class="st2" d="M617.93,114.25c74.21,62.57,104.49,523.79,0,612.82"/>
		<path class="st2" d="M621.62,106.53c-360.82,128.9-325.13,561.4,0,620.72"/>
		<path class="st2" d="M635.77,106.36c-229.72,68.65-314.1,526.02,0,620.89"/>
		<path class="st2" d="M625.17,114.42c-92.91,78.33-122.99,508.03,0,612.82"/>
		<path class="st2" d="M399.46,200.51c47.66,68.58,359.18,74.39,447.52,2.32"/>
		<path class="st2" d="M334.37,299.32c91.83,87.18,504.48,91.83,570.74,0"/>
		<path class="st2" d="M311.16,410.42c93.23,107.28,547.17,101.75,620.68,6.29"/>
		<path class="st2" d="M339.02,537.61c125.54,72.07,471.93,87.18,573.06-10.46"/>
		<path class="st2" d="M399.46,634.09c184.82,58.12,315.01,55.79,459.15-16.27"/>
		<path class="st2" d="M493.04,133.67c83.69,31.38,156.92,38.36,260.96,1.74"/>
	</g>
</g>
</svg>
