<?xml version="1.0" encoding="utf-8"?>
<!-- Generator: Adobe Illustrator 25.3.1, SVG Export Plug-In . SVG Version: 6.00 Build 0)  -->
<svg version="1.1" id="Layer_1" xmlns="http://www.w3.org/2000/svg" xmlns:xlink="http://www.w3.org/1999/xlink" x="0px" y="0px"
	 viewBox="0 0 985 760" style="enable-background:new 0 0 985 760;" xml:space="preserve">
<style type="text/css">
	.st0{display:none;}
	.st1{display:inline;fill:#131313;}
	.st2{fill:none;stroke:#C55668;stroke-width:7;stroke-miterlimit:10;}
	.st3{fill:none;stroke:#C55668;stroke-width:7;stroke-linecap:round;stroke-linejoin:round;stroke-miterlimit:10;}
	.st4{fill:#C55668;}
	.st5{stroke:#C55668;stroke-width:7;stroke-miterlimit:10;}
	.st6{fill:#131313;stroke:#C55668;stroke-width:7;stroke-miterlimit:10;}
	.st7{fill:#C55668;stroke:#C55668;stroke-width:0.75;stroke-miterlimit:10;}
	.st8{font-family:'MyriadPro-Regular';}
	.st9{font-size:28.5908px;}
	.st10{fill:none;stroke:#C55668;stroke-width:4;stroke-linecap:round;stroke-miterlimit:10;}
</style>
<g id="Layer_2_1_" class="st0">
	<rect x="119.2" y="199.8" class="st1" width="734.3" height="415.8"/>
</g>
<g>
	<g id="dolphin">
		<g>
			<path id="_x3C_Path_x3E_dolpin_3_" class="st2" d="M295.6,161.2c31.3,13.1-1.7,49.7-1.1,60.9c1.4,27.2,42.8-10.5,42.8-10.5
				s3,2.2,0.4,2.5c-43.6,28.1-25.4,72.4-19,119.9c0,0-32.8,40.1-13.6,57.6c2.3,1.7,5.9,1.8,11.3,0c28.4-9.1,72.2-92.6,73.7-114.5
				c1.5-21.9,6-35.1-7.4-54.7c-13.4-19.5,7.5-48.7-3.9-59.6c-6.2-6-16-7.6-23-7.4"/>
		</g>
		<path id="_x3C_Path_x3E_dolpin_2_" class="st3" d="M294.5,222c-62.5-15.3-74.3,17-70.7,14.6c8.4-5.8,28.3,20.4,52.1,39.4
			c26.4,21,34.3-37.2,35.7,47.4c0.1,7.7-0.6,13.6-2,18.8c-0.9,3.3-2.2,6-4.7,11.3c-6.8,14.5-8.1,12.5-9.3,18.1
			c-0.7,3.2-1.6,7.9-5.3,12.2c-0.3,0.3-0.6,0.6-1,0.9c-8.6,6.1-23.7,4.9-42.4-8c-14.3-9.9-48.3,17.3-39.8,16.4
			c43.2,0,32.8,49.8,49.5,38.3c-20.1,26.2,13.4,27.7,11.9,76.5c0,0,32-21.2,26.1-62.7c-1.2-8.3,4.5-17.5,4.5-17.5
			c33.9-8.4,50.4-23.1,55.1-28.4c10.4-11.7,59.7-24.2,71.5-84.6c1.9-9.6,39.7,67.1,41.7,37.9c6-88.9-12.3-92.2-12.3-92.2
			c-0.4-4,11.9-6.6,28.7,5.5c11.9,10,11.9,32.8,11.9-17.5c0-43.3-18.6-58.3-18.6-58.3c-22.7-23-29-18.2-35.7-32.8
			c-4-8.7-1.5-12.8-7.4-29.9c-4.3-12.4-9-21.4-11.2-25.5c-1.3-2.4-7.8-14.2-15.6-23.3c-5.9-7-29.2-34.3-63.3-32.1
			c-22.4,1.5-38.8,15-46.2,23.3c-3.7,4.2-8.3,9.3-11,17.3c-1.6,4.7-3.4,12.6-4.4,19.9c-0.1,0.8,2.4,9-1.3,15.7
			c-1.2,2.1,10.2,5,9.3,4.7c-14.5-4-13-1.8-29.7-5.5c-5-1.1-13.9,0.8-17.6,8.1c-6.1,12,11.3,17.4,12.3,17.9
			c15.6,6.6,10.2,1.9,34.3,10.9c18.7,7,22.9,11.6,32,12.4c22.3,1.9,32.3-17.9,35-15.3c5,4.8-45.6,68.7-52.9,64.1
			c-3.2-2,23.3-33.8,13.5-47.6c-1.6-2.2-3.7-3.4-5.3-4.1"/>
		<path class="st2" d="M349.6,110.3c0-15.7,9.7-16.3,9.7-16.3s9.7-0.4,9.7,16.3c0,12.8-1.8,10.9-9.7,15.7
			C352,129,349.6,119,349.6,110.3z"/>
		<g>
			<path class="st4" d="M453,261.4c-0.4-0.8-1.1-1.7-1.6-2.5l-1.8-2.6c-1.2-1.8-2.5-3.5-3.7-5.3c-2.4-3.6-4.8-7.2-6.9-10.9
				c-2.1-3.7-4.1-7.6-5.6-11.6c-0.7-2-1.3-4.1-1.6-6.3c-0.2-2.1-0.1-4.4,0.8-6.3c-0.7,2-0.7,4.2-0.2,6.2c0.4,2.1,1.2,4,2.1,5.9
				c1.8,3.8,4,7.4,6.5,10.9c2.4,3.5,5,6.8,7.7,10.2c1.3,1.7,2.7,3.3,4.1,4.9l2.1,2.5c0.7,0.9,1.4,1.7,2.1,2.7L453,261.4z"/>
		</g>
		<path class="st5" d="M277.7,116c0-6.6,4.2-16,5.2-16c1,0-0.7,5.4-0.7,12s-1.2,10.6-2.2,10.6S277.7,122.6,277.7,116z"/>
		<g>
			<path class="st4" d="M370.8,77.3c2.3-0.8,4.7-0.9,7.1-0.3c2.4,0.6,4.8,1.9,6.4,4c1.7,2.1,2.4,4.8,2.2,7.2c-0.2,2.4-1,4.7-2.4,6.6
				c-0.4-2.3-0.6-4.4-1.1-6.3c-0.1-0.5-0.3-0.9-0.4-1.4c-0.2-0.4-0.3-0.9-0.5-1.2c-0.2-0.4-0.4-0.8-0.6-1.1l-0.3-0.5l-0.4-0.5
				c-1.1-1.3-2.5-2.5-4.2-3.5C374.9,79.2,372.9,78.3,370.8,77.3z"/>
		</g>
	</g>
	<g id="globe_grp">
		<ellipse id="Outline" class="st6" cx="579.6" cy="300" rx="198.8" ry="194.6"/>
		<path class="st2" d="M579.6,105.4c226.4,75.8,212.2,351.4,0,389.3"/>
		<path class="st2" d="M570.7,105.4c138.1,62,187,334,0,389.3"/>
		<path class="st2" d="M577.4,110.3c47.5,39.2,66.9,328.5,0,384.3"/>
		<path class="st2" d="M579.7,105.5c-231.1,80.8-208.3,352.1,0,389.3"/>
		<path class="st2" d="M588.8,105.4c-147.2,43.1-201.2,329.9,0,389.4"/>
		<path class="st2" d="M582,110.4c-59.5,49.1-78.8,318.6,0,384.3"/>
		<path class="st2" d="M437.4,164.4c30.5,43,230.1,46.7,286.7,1.5"/>
		<path class="st2" d="M395.7,226.4c58.8,54.7,323.2,57.6,365.6,0"/>
		<path class="st2" d="M380.9,296.1c59.7,67.3,350.5,63.8,397.6,3.9"/>
		<path class="st2" d="M398.7,375.8c80.4,45.2,302.3,54.7,367.1-6.6"/>
		<path class="st2" d="M437.4,436.3c118.4,36.4,201.8,35,294.1-10.2"/>
		<path class="st2" d="M497.4,122.5c53.6,19.7,100.5,24.1,167.2,1.1"/>
	</g>
</g>
<text transform="matrix(0.9376 0 0 1 442.2598 60.3105)" class="st7 st8 st9">Heyo!</text>
<path class="st10" d="M462.9,81.4l29.7-0.2c13.2,0,23.9-10.7,23.9-23.9v-7.2c0-13.2-10.7-23.9-23.9-23.9h-37
	c-13.2,0-23.9,10.7-23.9,23.9v7.2c0,7.9,0,11.2,6.5,16.3l3.2,2.9c-0.3,2.1-1,4.9-2.4,7.9c-2.2,4.7-5.3,7.8-7.3,9.6
	C436.3,93.3,455,91.8,462.9,81.4"/>
</svg>
