<?xml version="1.0" encoding="utf-8"?>
<!-- Generator: Adobe Illustrator 25.2.0, SVG Export Plug-In . SVG Version: 6.00 Build 0)  -->
<svg version="1.1" id="Layer_1" xmlns="http://www.w3.org/2000/svg" xmlns:xlink="http://www.w3.org/1999/xlink" x="0px" y="0px"
	 viewBox="0 0 693.5 872" style="enable-background:new 0 0 693.5 872;" xml:space="preserve">
<style type="text/css">
	.st0{fill:none;stroke:#C55668;stroke-width:7;stroke-miterlimit:10;}
	.st1{fill:none;stroke:#C55668;stroke-width:7;stroke-linecap:round;stroke-linejoin:round;stroke-miterlimit:10;}
	.st2{stroke:#C55668;stroke-width:7;stroke-miterlimit:10;}
	.st3{fill:#C55668;}
	.st4{display:none;fill:none;stroke:#C55668;stroke-width:3;stroke-linecap:round;stroke-miterlimit:10;}
	.st5{display:none;fill:#C55668;enable-background:new    ;}
	.st6{font-family:'Manteiga-Gorda';}
	.st7{font-size:26.263px;}
	.st8{display:none;fill:none;stroke:#C55668;stroke-width:2;stroke-miterlimit:10.0003;enable-background:new    ;}
	.st9{enable-background:new    ;}
	.st10{fill:none;stroke:#C55668;stroke-width:2;stroke-miterlimit:10.0002;}
	.st11{fill:#231F20;}
	.st12{fill:none;stroke:#C55668;stroke-width:8;stroke-miterlimit:10;}
	.st13{display:none;fill:#C55668;stroke:#C55668;stroke-width:7;stroke-linecap:round;stroke-linejoin:round;stroke-miterlimit:10;}
</style>
<g>
	<g id="dolphin">
		<g>
			<path id="_x3C_Path_x3E_dolpin_3_" class="st0" d="M158.8,169.2c27,11.6-1.4,43.9-1,53.8c1.2,24,37-9.3,37-9.3s2.6,1.9,0.4,2.2
				c-37.8,24.9-22,64.1-16.4,106.1c0,0-28.4,35.4-11.8,51c2,1.5,5.1,1.5,9.8,0c53.9-15.7,55.7-81.9,57-101.3
				c1.3-19.4,12-31,0.5-48.3c-11.6-17.3,6.4-43.1-3.4-52.7c-5.4-5.3-13.7-6.4-19.6-6.2"/>
		</g>
		<path id="_x3C_Path_x3E_dolpin_2_" class="st1" d="M157.9,223.1c-54.2-13.5-64.3,15-61.3,12.9c7.3-5.1,24.6,18,45.1,34.8
			c22.8,18.6,29.7-32.9,31,41.9c0.1,6.8-0.5,12-1.7,16.6c-0.8,3-1.9,5.3-4.1,10c-5.9,12.9-7,11-8.1,16c-0.6,2.8-1.4,7-4.6,10.8
			c-0.2,0.2-0.5,0.6-0.9,0.8c-7.4,5.4-20.6,4.3-36.8-7.1c-12.4-8.8-41.8,15.3-34.5,14.6c37.4,0,28.4,44,42.9,33.8
			c-17.4,23.2,11.6,24.6,10.3,67.7c0,0,27.7-18.7,22.6-55.4c-1-7.4,3.9-15.4,3.9-15.4c29.4-7.4,58.2-27.8,62.2-32.5
			c33.8-37,6.9-29.8,8.7-83.8c-1.9-16.9,12.9-61.6,12.9-61.6c-0.3-3.5,16.6-35.6,39.4-58.4c-3.4-7.7-1.4-14.2-6.4-29.4
			c-3.7-11-7.8-18.9-9.7-22.6c-1.1-2.1-6.7-12.6-13.5-20.6c-5.1-6.2-25.3-30.3-54.8-28.3c-19.4,1.3-33.6,13.3-40,20.6
			c-3.2,3.7-7.2,8.2-9.6,15.3c-1.4,4.1-3,11.1-3.8,17.6c-0.1,0.6,2.1,7.9-1.2,13.8c-1,1.8,8.9,4.4,8.1,4.2
			c-12.6-3.5-11.3-1.6-25.7-4.9c-4.3-1-12,0.7-15.3,7.1c-5.4,10.6,9.8,15.4,10.6,15.8c13.5,5.8,8.8,1.7,29.7,9.7
			c16.2,6.2,19.8,10.2,27.8,11c19.3,1.7,27.9-15.8,30.3-13.5c4.2,4.2-39.5,60.8-45.8,56.7c-2.8-1.8,20.2-29.9,11.7-42.2
			c-1.4-1.9-4.8-2.6-6.1-3.3"/>
		<path class="st0" d="M205.6,124.3c0-13.9,8.4-14.5,8.4-14.5s8.4-0.3,8.4,14.5c0,11.4-1.5,9.7-8.4,13.9
			C207.7,140.8,205.6,132,205.6,124.3z"/>
		<path class="st2" d="M143.4,129.2c0-5.9,3.6-14.2,4.5-14.2c0.9,0-0.6,4.8-0.6,10.6c0,5.9-1,9.3-1.9,9.3
			C144.4,135,143.4,135.2,143.4,129.2z"/>
		<g>
			<path class="st3" d="M224,95.1c1.9-0.7,4.1-0.8,6.2-0.2c2.1,0.5,4.2,1.7,5.6,3.5c1.4,1.8,2.1,4.2,1.9,6.4
				c-0.1,2.2-0.8,4.2-2.1,5.8c-0.3-2.1-0.5-3.9-1-5.5c-0.1-0.5-0.2-0.8-0.3-1.2c-0.2-0.4-0.2-0.8-0.5-1.1c-0.2-0.4-0.3-0.6-0.6-1
				l-0.2-0.5l-0.3-0.5c-1-1.2-2.2-2.2-3.7-3.1C227.5,96.8,225.9,96,224,95.1z"/>
		</g>
	</g>
	<g id="globe_grp">
		<path class="st0" d="M552.4,203.4c-21.8,6.6-44.6,4-66.9,4.6c10-14.4,14.4-31.6,25.5-47.1c0.6-0.9,1.2-1.8,1.8-2.6
			c-29.6-23.8-67.1-38.2-108.2-38.2c-95.1,0-172.2,77.1-172.2,172.2s77.1,172.2,172.2,172.2s172.2-77.1,172.2-172.2
			C577,259.6,568,229.2,552.4,203.4z"/>
		<path class="st0" d="M519.8,206.8c79.5,125.7-29.2,249.7-115,257.4"/>
		<path class="st0" d="M404.8,120c49.8,9.8,76.8,33,95,60.6"/>
		<path class="st0" d="M397.1,120c119.6,54.9,161.9,295.4,0,344.3"/>
		<path class="st0" d="M402.8,124.3c41.2,34.7,58,290.6,0,339.9"/>
		<path class="st0" d="M404.9,120c-199.4,57.8-180.3,311.4,0,344.3"/>
		<path class="st0" d="M412.8,120c-127.4,38.1-174.2,291.8,0,344.5"/>
		<path class="st0" d="M406.9,124.4c-51.5,43.4-68.2,281.8,0,339.9"/>
		<path class="st0" d="M281.7,172.1c26.5,38.1,165.2,41.5,214.6,17.5"/>
		<path class="st0" d="M245.6,226.9c51,48.4,283,51,319.7,0"/>
		<path class="st0" d="M232.8,288.6c51.7,59.5,303.6,56.5,344.3,3.5"/>
		<path class="st0" d="M248.1,359.2c69.6,40,261.8,48.4,317.9-5.8"/>
		<path class="st0" d="M281.7,412.7c102.5,32.2,174.7,31,254.7-9"/>
		<path class="st0" d="M333.6,135.1c46.4,17.4,87,21.3,144.8,1"/>
	</g>
</g>
<line class="st0" x1="503.3" y1="150.8" x2="519.4" y2="150.2"/>
<path id="text_bubble" class="st4" d="M595.5,27.7c-5.2-4.4-11.8-5.9-49,2.6l-49.8,12.2c-12.8,3.1-34.6,8.6-37.2,13.4
	c-0.5,0.9,0.3,3.6,1.4,4.6l2.6,2.1c3.2,3.4,11.1,2.6,23.1,0.7l17.2-3.5c6.5-0.4-14.7,8.6-35.1,16.2c-0.2,0.1-0.1,0.3,0.1,0.3
	c11-2.3,59.7-13,58.3-21.9C612.5,34.9,596.9,31.2,595.5,27.7z"/>
<text transform="matrix(0.9736 -0.2283 0.2283 0.9736 440.9442 75.5677)" class="st5 st6 st7">Hey there!</text>
<text transform="matrix(0.9736 -0.2283 0.2283 0.9736 440.9442 75.5677)" class="st8 st6 st7">Hey there!</text>
<g>
	<g class="st9">
		<path class="st3" d="M298.4,97.6c0.1,3.3,0.2,4.4,0.3,5.3c-0.8,0.5-2.2,1-4.2,1c-2.8,0.1-4.3-1-4.6-3.9c-0.1-1.1-0.1-2.6-0.2-4.1
			c-0.7,0.2-1.4,0.2-2.2,0.2c-0.7,0.1-1.4,0.1-2.1,0c0.1,0.9,0.2,1.8,0.2,2.3c0.4,3,0.6,4.1,1,4.8c-0.7,0.4-1.8,0.8-3.6,0.9
			c-2.6,0.2-4.2-0.6-4.7-3.4c-0.6-2.5-0.8-6.3-1.8-10.6c-0.4-1.8-1-4.7-1.5-6.5c0.8-1.1,2.4-2.4,4.4-3.1c2.9-1,4.2,0.4,4.7,4.7
			c0.2,1.5,0.4,3.8,0.6,5.4c0.6-0.2,1.2-0.2,1.8-0.3c0.8-0.1,1.5-0.2,2.3-0.2c-0.1-0.7-0.2-1.6-0.3-2.5c-0.3-2.6-0.7-6.1-1.3-8
			c1-1.5,2.7-3.2,5-4.2c3.1-1.3,4.6-0.2,5,5.1C297.8,86,298.3,94.7,298.4,97.6z"/>
		<path class="st3" d="M317.7,96.3c0.2,2.4-3.1,4.8-8.2,5.8c-5.8,1.2-8.9-1.4-9.1-5.7c-0.2-2.5,0.9-4.5,3.1-6c0.6-3.4,3.2-6.8,6-8.2
			c4-1.9,6.6,0.8,6.8,5.7c0.2,5.4-2.2,7.5-6.8,8.3c-0.4,0.1-0.8,0.2-1.3,0.2c0.7,0.9,1.9,1.1,3.4,0.8c2-0.4,4-1.7,4.7-3
			C317,94.7,317.6,95.3,317.7,96.3z M307.4,93.8c0.2,0,0.5-0.1,0.7-0.1c1.4-0.2,2.1-1,2-2.3c-0.1-1-0.6-1.7-1.4-1.4
			C307.9,90.2,307.2,92,307.4,93.8z"/>
		<path class="st3" d="M334.2,83.9c1.9,10.2,2.2,14.1-1,15.4c-0.3,1.9-4,3.5-9.2,5c-4.5,1.3-6.2,0.7-5.9-1.8c0.2-1.4,1-2.6,1.4-3.1
			c0.6,0.4,2.2,0.6,4.4,0.2c2.6-0.4,5.4-1.1,5-3.9c-0.9,1.4-2.6,2.2-5.2,2.6c-3.2,0.4-4.6-0.7-5.3-3.6c-0.4-1.7-0.2-4.4-0.3-7.8
			c-0.1-2.8-0.2-5.3-0.7-6.7c0.9-1.8,1.8-2.8,3.4-3.4c2.4-1,4,0.7,4.3,4.6c0.2,2.9,0.3,6.9,0.6,9.2c0.2,1.2,0.6,1.6,1.1,1.5
			c0.6-0.2,1-0.4,1.4-0.8c-0.8-4.9-1.7-11.8-2.1-13.8c0.3-1.3,1.4-2.6,2.6-2.7C331.2,74.4,332.6,75.6,334.2,83.9z"/>
		<path class="st3" d="M353.3,88.6c1.8,4,1,6.9-2.2,7.8c-3.5,1-5.8-1-7.7-7c-0.9-2.6-1.5-4.8-2-6.6c-0.4,0.1-0.6,0.2-1,0.2
			c-0.5-0.6-1-1.7-1.5-3.5c-0.5-1.7-0.6-3.8,0.2-5.4c1.4-2.9,2.6-3.8,4.2-3.9c0.8-0.1,1.4,0,1.8,0.2c0,1-0.1,2.6,0.1,4.6
			c1.1-0.1,2.1-0.2,2.8-0.4c0.5,0.8,0.8,1.6,0.9,2.3c0.3,1.5,0.2,3.8-1.4,4.2c-0.2,0.1-0.4,0.2-0.6,0.2c0.6,1.6,1,2.5,1.7,4.2
			c0.6,1.6,1.3,2.2,1.8,1.9s0.8-1,1-1.6C352,86,352.7,87.2,353.3,88.6z"/>
		<path class="st3" d="M368,85.1c0.1,1.1-0.3,1.9-1.4,2.6c-1.6,1-3.6-0.5-4.9-3.1c-0.8-1.6-1.6-3.9-2.1-5.2
			c-0.4-1.4-0.8-1.7-1.6-1.6c-0.2,0-0.5,0.1-0.6,0.2c0.3,1.4,0.9,3.1,1.4,4.2c1.6,3.8,2.7,5.3,3.4,6.1c0.2,1.8-0.6,3-1.8,3.8
			c-1.8,1.2-3.6,0.4-5.6-4.1c-2.3-5.2-4.4-10.8-4.2-16.4c0-1.9,0-4.1-0.6-5.5c0.7-1.3,2.6-2.5,4.5-3c2.7-0.8,3.8-0.1,3.6,3
			c-0.2,1.9-0.7,5.2-0.9,8.2c1-1.4,2.4-2.6,4.2-3c2.8-0.7,3.7,1.7,3.4,5c-0.2,2.1,0,4,0.8,5.7C366.1,83.2,367.2,84.4,368,85.1z"/>
		<path class="st3" d="M378.6,80.5c0,2.7-1.1,3.3-4.2,3.8c-3.4,0.6-8.1-1-8.9-5c-0.5-2.3,1.3-5.1,3.4-6.5c1.4-3.2,4-5.4,6.6-6.4
			c3.7-1.4,5.8,0.5,4.6,4.7c-1.4,4.7-4.7,8.2-8.2,8.7c-0.3,0.1-0.6,0.1-1,0c0.6,0.9,1.5,1.2,2.6,1c1.4-0.2,3.3-1.4,4.4-3.3
			C378.3,78.4,378.6,79.5,378.6,80.5z M370.8,76.6c0.2-0.1,0.4-0.1,0.6-0.1c1.2-0.3,2-1.2,2.3-2.5c0.2-1,0-1.6-0.6-1.4
			C372.3,72.8,371.3,74.4,370.8,76.6z"/>
		<path class="st3" d="M379.8,80.1c0.1-1.7,1.2-5,2.2-8.6c0.5-1.8,1-3.8,0.6-5c1.2-2.1,2.7-3.6,4.6-4.2c2.2-0.7,3.6,0.2,2.8,3.5
			c-0.2,0.6-0.4,1.4-0.6,2c0.2,0,0.2-0.1,0.3-0.1c2.2-5.7,3.1-6.8,4.6-7c1.9-0.2,3.2,1.1,2.6,4.6c-0.6,2.8-1.8,5.3-2.4,6.3
			c-1-0.2-2-0.2-3-0.1c-1.9,0.5-3.1,2.3-3.6,4.6c-0.5,2-0.3,4.4,0.2,5.4c-0.9,0.8-2.2,1-3.6,1.3C381.7,83.3,379.6,83.5,379.8,80.1z"
			/>
		<path class="st3" d="M417.6,74c-0.9,3.4-5,5.8-11.5,6.5c-7.3,0.7-11.7-1.5-9.8-8.6c1-4.1,3.6-7.3,6.3-8c1.3-2.6,3.4-3,7-3.1
			c5-0.2,7.7,2.8,8.2,5.3c0.6,2.7-4.3,5.8-10.3,6.3c-0.6,0.1-1.1,0.1-1.6,0c0.5,1.4,1.9,1.9,3.8,1.8c2.6-0.2,5.8-1.8,7.3-3.3
			C417.6,71.6,418,72.7,417.6,74z M406.3,68c0.3,0,0.6,0,1,0c1.9-0.1,3-0.8,3-1.8c0.1-0.8-0.6-1.4-1.4-1.4
			C407.8,64.8,407,65.7,406.3,68z"/>
		<path class="st3" d="M421.2,65.2c0-3.6,5.6-18.9,5.1-19.6c1.8-1.7,5.4-4.1,9-5.8c6.5-3.1,8.1-1.9,6.2,2
			c-3.7,8.2-10,16.6-12.2,25.6c-0.7,0.7-1.5,1.1-3.1,1.2C423.1,68.8,421.2,68.3,421.2,65.2z M419.6,74.7c0.8-3.1,2.5-4.6,6.2-4.8
			c3.6-0.2,5.1,0.3,4.6,3c-0.6,2.5-3,4.8-6.6,5.4C420.2,78.9,418.8,77.7,419.6,74.7z"/>
	</g>
	<g class="st9">
		<path class="st10" d="M298.4,97.6c0.1,3.3,0.2,4.4,0.3,5.3c-0.8,0.5-2.2,1-4.2,1c-2.8,0.1-4.3-1-4.6-3.9c-0.1-1.1-0.1-2.6-0.2-4.1
			c-0.7,0.2-1.4,0.2-2.2,0.2c-0.7,0.1-1.4,0.1-2.1,0c0.1,0.9,0.2,1.8,0.2,2.3c0.4,3,0.6,4.1,1,4.8c-0.7,0.4-1.8,0.8-3.6,0.9
			c-2.6,0.2-4.2-0.6-4.7-3.4c-0.6-2.5-0.8-6.3-1.8-10.6c-0.4-1.8-1-4.7-1.5-6.5c0.8-1.1,2.4-2.4,4.4-3.1c2.9-1,4.2,0.4,4.7,4.7
			c0.2,1.5,0.4,3.8,0.6,5.4c0.6-0.2,1.2-0.2,1.8-0.3c0.8-0.1,1.5-0.2,2.3-0.2c-0.1-0.7-0.2-1.6-0.3-2.5c-0.3-2.6-0.7-6.1-1.3-8
			c1-1.5,2.7-3.2,5-4.2c3.1-1.3,4.6-0.2,5,5.1C297.8,86,298.3,94.7,298.4,97.6z"/>
		<path class="st10" d="M317.7,96.3c0.2,2.4-3.1,4.8-8.2,5.8c-5.8,1.2-8.9-1.4-9.1-5.7c-0.2-2.5,0.9-4.5,3.1-6
			c0.6-3.4,3.2-6.8,6-8.2c4-1.9,6.6,0.8,6.8,5.7c0.2,5.4-2.2,7.5-6.8,8.3c-0.4,0.1-0.8,0.2-1.3,0.2c0.7,0.9,1.9,1.1,3.4,0.8
			c2-0.4,4-1.7,4.7-3C317,94.7,317.6,95.3,317.7,96.3z M307.4,93.8c0.2,0,0.5-0.1,0.7-0.1c1.4-0.2,2.1-1,2-2.3
			c-0.1-1-0.6-1.7-1.4-1.4C307.9,90.2,307.2,92,307.4,93.8z"/>
		<path class="st10" d="M334.2,83.9c1.9,10.2,2.2,14.1-1,15.4c-0.3,1.9-4,3.5-9.2,5c-4.5,1.3-6.2,0.7-5.9-1.8c0.2-1.4,1-2.6,1.4-3.1
			c0.6,0.4,2.2,0.6,4.4,0.2c2.6-0.4,5.4-1.1,5-3.9c-0.9,1.4-2.6,2.2-5.2,2.6c-3.2,0.4-4.6-0.7-5.3-3.6c-0.4-1.7-0.2-4.4-0.3-7.8
			c-0.1-2.8-0.2-5.3-0.7-6.7c0.9-1.8,1.8-2.8,3.4-3.4c2.4-1,4,0.7,4.3,4.6c0.2,2.9,0.3,6.9,0.6,9.2c0.2,1.2,0.6,1.6,1.1,1.5
			c0.6-0.2,1-0.4,1.4-0.8c-0.8-4.9-1.7-11.8-2.1-13.8c0.3-1.3,1.4-2.6,2.6-2.7C331.2,74.4,332.6,75.6,334.2,83.9z"/>
		<path class="st10" d="M353.3,88.6c1.8,4,1,6.9-2.2,7.8c-3.5,1-5.8-1-7.7-7c-0.9-2.6-1.5-4.8-2-6.6c-0.4,0.1-0.6,0.2-1,0.2
			c-0.5-0.6-1-1.7-1.5-3.5c-0.5-1.7-0.6-3.8,0.2-5.4c1.4-2.9,2.6-3.8,4.2-3.9c0.8-0.1,1.4,0,1.8,0.2c0,1-0.1,2.6,0.1,4.6
			c1.1-0.1,2.1-0.2,2.8-0.4c0.5,0.8,0.8,1.6,0.9,2.3c0.3,1.5,0.2,3.8-1.4,4.2c-0.2,0.1-0.4,0.2-0.6,0.2c0.6,1.6,1,2.5,1.7,4.2
			c0.6,1.6,1.3,2.2,1.8,1.9s0.8-1,1-1.6C352,86,352.7,87.2,353.3,88.6z"/>
		<path class="st10" d="M368,85.1c0.1,1.1-0.3,1.9-1.4,2.6c-1.6,1-3.6-0.5-4.9-3.1c-0.8-1.6-1.6-3.9-2.1-5.2
			c-0.4-1.4-0.8-1.7-1.6-1.6c-0.2,0-0.5,0.1-0.6,0.2c0.3,1.4,0.9,3.1,1.4,4.2c1.6,3.8,2.7,5.3,3.4,6.1c0.2,1.8-0.6,3-1.8,3.8
			c-1.8,1.2-3.6,0.4-5.6-4.1c-2.3-5.2-4.4-10.8-4.2-16.4c0-1.9,0-4.1-0.6-5.5c0.7-1.3,2.6-2.5,4.5-3c2.7-0.8,3.8-0.1,3.6,3
			c-0.2,1.9-0.7,5.2-0.9,8.2c1-1.4,2.4-2.6,4.2-3c2.8-0.7,3.7,1.7,3.4,5c-0.2,2.1,0,4,0.8,5.7C366.1,83.2,367.2,84.4,368,85.1z"/>
		<path class="st10" d="M378.6,80.5c0,2.7-1.1,3.3-4.2,3.8c-3.4,0.6-8.1-1-8.9-5c-0.5-2.3,1.3-5.1,3.4-6.5c1.4-3.2,4-5.4,6.6-6.4
			c3.7-1.4,5.8,0.5,4.6,4.7c-1.4,4.7-4.7,8.2-8.2,8.7c-0.3,0.1-0.6,0.1-1,0c0.6,0.9,1.5,1.2,2.6,1c1.4-0.2,3.3-1.4,4.4-3.3
			C378.3,78.4,378.6,79.5,378.6,80.5z M370.8,76.6c0.2-0.1,0.4-0.1,0.6-0.1c1.2-0.3,2-1.2,2.3-2.5c0.2-1,0-1.6-0.6-1.4
			C372.3,72.8,371.3,74.4,370.8,76.6z"/>
		<path class="st10" d="M379.8,80.1c0.1-1.7,1.2-5,2.2-8.6c0.5-1.8,1-3.8,0.6-5c1.2-2.1,2.7-3.6,4.6-4.2c2.2-0.7,3.6,0.2,2.8,3.5
			c-0.2,0.6-0.4,1.4-0.6,2c0.2,0,0.2-0.1,0.3-0.1c2.2-5.7,3.1-6.8,4.6-7c1.9-0.2,3.2,1.1,2.6,4.6c-0.6,2.8-1.8,5.3-2.4,6.3
			c-1-0.2-2-0.2-3-0.1c-1.9,0.5-3.1,2.3-3.6,4.6c-0.5,2-0.3,4.4,0.2,5.4c-0.9,0.8-2.2,1-3.6,1.3C381.7,83.3,379.6,83.5,379.8,80.1z"
			/>
		<path class="st10" d="M417.6,74c-0.9,3.4-5,5.8-11.5,6.5c-7.3,0.7-11.7-1.5-9.8-8.6c1-4.1,3.6-7.3,6.3-8c1.3-2.6,3.4-3,7-3.1
			c5-0.2,7.7,2.8,8.2,5.3c0.6,2.7-4.3,5.8-10.3,6.3c-0.6,0.1-1.1,0.1-1.6,0c0.5,1.4,1.9,1.9,3.8,1.8c2.6-0.2,5.8-1.8,7.3-3.3
			C417.6,71.6,418,72.7,417.6,74z M406.3,68c0.3,0,0.6,0,1,0c1.9-0.1,3-0.8,3-1.8c0.1-0.8-0.6-1.4-1.4-1.4
			C407.8,64.8,407,65.7,406.3,68z"/>
		<path class="st10" d="M421.2,65.2c0-3.6,5.6-18.9,5.1-19.6c1.8-1.7,5.4-4.1,9-5.8c6.5-3.1,8.1-1.9,6.2,2
			c-3.7,8.2-10,16.6-12.2,25.6c-0.7,0.7-1.5,1.1-3.1,1.2C423.1,68.8,421.2,68.3,421.2,65.2z M419.6,74.7c0.8-3.1,2.5-4.6,6.2-4.8
			c3.6-0.2,5.1,0.3,4.6,3c-0.6,2.5-3,4.8-6.6,5.4C420.2,78.9,418.8,77.7,419.6,74.7z"/>
	</g>
	<g class="st9">
		<path class="st11" d="M299.3,96.3c0.2,3.2,0.2,4.4,0.4,5.2c-0.9,0.6-2.2,1-4.2,1.1c-2.9,0.2-4.4-1-4.6-3.9
			c-0.1-1.1-0.1-2.6-0.2-4.1c-0.7,0.2-1.4,0.2-2.2,0.2c-0.7,0.1-1.4,0.1-2.1,0.1c0.1,0.9,0.2,1.8,0.2,2.3c0.4,3,0.6,4.1,0.9,4.9
			c-0.7,0.5-1.8,0.8-3.7,1c-2.6,0.2-4.2-0.7-4.7-3.4c-0.5-2.6-0.9-5.5-1.8-10.8c-0.4-2.2-1-5.4-1.5-7.1c0.8-1.1,2.4-2.5,4.5-3.3
			c2.9-1.1,4.2,0.2,4.7,4.7c0.2,1.6,0.4,4.1,0.6,6.1c0.6-0.2,1.2-0.3,1.8-0.5c0.8-0.2,1.5-0.3,2.4-0.3c-0.1-0.9-0.2-1.8-0.3-2.9
			c-0.3-2.9-0.7-6.4-1.3-8.3c1-1.5,2.7-3.1,5-4.1c3.1-1.3,4.7-0.6,5,4.7C298.6,83.2,299.1,93.4,299.3,96.3z"/>
		<path class="st11" d="M318.5,94.9c0.5,2.3-2.8,4.6-7.8,5.7c-5.8,1.3-8.9-1.4-9.4-5.5c-0.2-2.4,0.8-5.2,3-7
			c0.7-3.9,3.3-7.4,6.1-8.8c4-2,6.6,0.6,6.7,5.8c0.2,5.8-2.4,9-6.9,9.8c-0.4,0.1-0.8,0.1-1.2,0.2c0.7,0.8,2,1,3.4,0.7
			c1.9-0.4,3.8-1.4,4.6-3.3C317.6,93.2,318.3,94,318.5,94.9z M308.1,92.1c0.2-0.1,0.5-0.1,0.7-0.2c1.4-0.4,2.2-1.4,2.1-3
			c-0.1-1.1-0.6-1.9-1.3-1.6C308.8,87.8,308,89.8,308.1,92.1z"/>
		<path class="st11" d="M334.5,81.4c1.9,10,2.8,15.6-0.4,16.9c-0.1,2-3.8,3.5-9,4.7c-4.6,1-6.2,0.5-5.9-2c0.2-1.4,1-2.6,1.4-3
			c0.6,0.4,2.3,0.6,4.4,0.3c2.6-0.3,5.1-0.4,4.7-4.2c-0.8,2-2.5,2.5-5,2.8c-3.1,0.3-5,0.1-5.5-3.8c-0.2-2.3-0.1-5.5-0.2-9
			c-0.1-3-0.2-5.4-0.7-6.8c0.8-1.7,1.8-2.6,3.3-3.1c2.3-0.8,3.9,0.7,4.2,4.6c0.2,2.8,0.3,6.9,0.6,9.4c0.2,1.4,0.6,1.8,1.1,1.7
			c0.6-0.2,1-0.5,1.4-1c-0.8-5.4-1.7-12-2.1-13.8c0.3-1.2,1.4-2.2,2.6-2.2C331.6,72.7,332.9,73.4,334.5,81.4z"/>
		<path class="st11" d="M353.2,86.2c1.8,4,1.3,7.1-1.8,8.2c-3.4,1.2-5.8-1.4-7.8-7.4c-0.9-2.7-1.5-4.7-2-6.5c-0.4,0.1-0.6,0.1-1,0.2
			c-0.4-0.5-1-1.6-1.4-3.2c-0.4-1.5-0.2-3,0.6-4.6c1.5-2.9,2.8-3.9,4.4-4.2c0.8-0.2,1.4-0.1,1.9,0.2c0,1-0.1,2.6-0.1,4.7
			c1.1-0.1,2.2-0.2,2.9-0.6c0.5,0.8,0.7,1.7,0.8,2.4c0.2,1.6-0.2,3.3-1.9,3.7c-0.2,0.1-0.4,0.1-0.6,0.2c0.5,1.4,0.8,2.2,1.4,3.9
			c0.6,1.5,1.3,2.1,1.8,1.8c0.6-0.2,0.8-1,1-1.6C351.8,83.8,352.5,84.8,353.2,86.2z"/>
		<path class="st11" d="M367.7,83.6c0,1-0.4,1.8-1.4,2.3c-1.6,0.9-3.5-0.7-4.7-3.3c-0.7-1.5-1.4-3.6-1.5-4.8
			c-0.2-1.2-0.6-1.5-1.4-1.4c-0.2,0-0.5,0.1-0.6,0.2c0.2,1.3,0.5,2.7,0.9,3.7c1.3,3.5,2.4,5,3.1,5.8c0.2,1.8-0.5,2.9-1.8,3.7
			c-1.7,1.1-3.7,0.2-5.6-4.2c-2.2-5.1-3.4-10-3.2-15.8c0.1-1.9,0.1-4.2-0.6-5.5c0.7-1.3,2.5-2.4,4.3-2.9c2.7-0.7,3.8-0.2,3.8,2.8
			c-0.1,1.8-0.6,5.1-1,8.2c1-1.6,2.5-2.7,4.4-3.3c2.9-0.8,3.8,1.5,3.3,5.1c-0.3,2.2-0.6,4.5,0,6C366,81.8,366.9,83.1,367.7,83.6z"/>
		<path class="st11" d="M379.6,78.8c-0.5,3.3-2.2,4.2-5.4,4.6c-3.6,0.5-8.1-0.7-8.2-5.2c-0.1-2.6,1.8-5.8,4-7.2
			c1.5-3.3,4.1-5.5,6.7-6.5c3.7-1.4,6,0.2,4.8,4.5c-1.4,4.7-5.2,8.7-8.9,9.5c-0.3,0.1-0.6,0.1-1,0.1c0.4,1,1.4,1.4,2.6,1.1
			c1.6-0.3,3.7-1.9,5-3.9C379.5,76.4,379.7,77.6,379.6,78.8z M371.9,74.8c0.2-0.1,0.4-0.1,0.6-0.2c1.3-0.4,2.2-1.4,2.5-2.7
			c0.2-1,0.1-1.7-0.6-1.4C373.6,70.8,372.5,72.4,371.9,74.8z"/>
		<path class="st11" d="M380.8,78.4c0.3-2,1.7-5.7,2.7-9.2c0.5-1.8,0.9-3.7,0.5-4.8c1-1.9,2.5-3.3,4.2-3.8c2.1-0.6,3.8,0.2,3.2,3.2
			c-0.1,0.6-0.2,1.4-0.4,1.8c0.1,0,0.2-0.1,0.3-0.1c2-5.4,2.3-6,3.8-6c1.8,0,3.5,0.9,3.2,4c-0.2,2.6-1.5,5-2.1,6c-1-0.2-2-0.3-3-0.2
			c-1.9,0.4-3.1,2.2-3.8,4.6c-0.6,2.2-0.7,4.9-0.3,6c-1,1-2.6,1.4-4.1,1.6C382,82.3,380.2,82.3,380.8,78.4z"/>
		<path class="st11" d="M419.2,72.3c-0.7,3.3-5,5.8-11.6,6.5c-7.4,0.8-11.4-2-9.6-9c1-4,3.1-6.8,5.7-7.3c0.8-2.2,3.5-3,7.4-3.4
			c5.4-0.7,8,2.2,7.8,5.7c-0.2,3.8-3.7,5.4-9.7,5.8c-0.6,0-1.1,0-1.6,0c0.5,1.4,1.9,1.9,3.8,1.8c2.6-0.2,5.7-1.6,7-3
			C419.1,70,419.6,71,419.2,72.3z M407.7,66.4c0.3,0,0.6,0,1,0c1.8,0,2.8-0.6,2.7-1.5c-0.1-0.7-0.7-1.2-1.6-1.3
			C408.8,63.5,408.3,64.2,407.7,66.4z"/>
		<path class="st11" d="M422.8,63.1c0.9-4.6,6.4-19.8,5.8-20.4c1.8-1.6,5.3-3.8,8.7-5.4c6.2-2.9,8.1-2.1,6.8,1.3
			c-3.5,8.9-9.8,17.4-13.3,26.8c-1,1.1-2.1,1.9-3.7,2.1C423.9,67.7,422,67.1,422.8,63.1z M421.2,72.9c0.7-3,2.2-4.2,5.6-4.4
			c3.4-0.2,5.1,0.2,4.8,2.6c-0.3,2.3-2.8,4.6-6.2,5.3C421.8,77.2,420.5,76,421.2,72.9z"/>
	</g>
	<g class="st9">
		<path class="st10" d="M299.3,96.3c0.2,3.2,0.2,4.4,0.4,5.2c-0.9,0.6-2.2,1-4.2,1.1c-2.9,0.2-4.4-1-4.6-3.9
			c-0.1-1.1-0.1-2.6-0.2-4.1c-0.7,0.2-1.4,0.2-2.2,0.2c-0.7,0.1-1.4,0.1-2.1,0.1c0.1,0.9,0.2,1.8,0.2,2.3c0.4,3,0.6,4.1,0.9,4.9
			c-0.7,0.5-1.8,0.8-3.7,1c-2.6,0.2-4.2-0.7-4.7-3.4c-0.5-2.6-0.9-5.5-1.8-10.8c-0.4-2.2-1-5.4-1.5-7.1c0.8-1.1,2.4-2.5,4.5-3.3
			c2.9-1.1,4.2,0.2,4.7,4.7c0.2,1.6,0.4,4.1,0.6,6.1c0.6-0.2,1.2-0.3,1.8-0.5c0.8-0.2,1.5-0.3,2.4-0.3c-0.1-0.9-0.2-1.8-0.3-2.9
			c-0.3-2.9-0.7-6.4-1.3-8.3c1-1.5,2.7-3.1,5-4.1c3.1-1.3,4.7-0.6,5,4.7C298.6,83.2,299.1,93.4,299.3,96.3z"/>
		<path class="st10" d="M318.5,94.9c0.5,2.3-2.8,4.6-7.8,5.7c-5.8,1.3-8.9-1.4-9.4-5.5c-0.2-2.4,0.8-5.2,3-7
			c0.7-3.9,3.3-7.4,6.1-8.8c4-2,6.6,0.6,6.7,5.8c0.2,5.8-2.4,9-6.9,9.8c-0.4,0.1-0.8,0.1-1.2,0.2c0.7,0.8,2,1,3.4,0.7
			c1.9-0.4,3.8-1.4,4.6-3.3C317.6,93.2,318.3,94,318.5,94.9z M308.1,92.1c0.2-0.1,0.5-0.1,0.7-0.2c1.4-0.4,2.2-1.4,2.1-3
			c-0.1-1.1-0.6-1.9-1.3-1.6C308.8,87.8,308,89.8,308.1,92.1z"/>
		<path class="st10" d="M334.5,81.4c1.9,10,2.8,15.6-0.4,16.9c-0.1,2-3.8,3.5-9,4.7c-4.6,1-6.2,0.5-5.9-2c0.2-1.4,1-2.6,1.4-3
			c0.6,0.4,2.3,0.6,4.4,0.3c2.6-0.3,5.1-0.4,4.7-4.2c-0.8,2-2.5,2.5-5,2.8c-3.1,0.3-5,0.1-5.5-3.8c-0.2-2.3-0.1-5.5-0.2-9
			c-0.1-3-0.2-5.4-0.7-6.8c0.8-1.7,1.8-2.6,3.3-3.1c2.3-0.8,3.9,0.7,4.2,4.6c0.2,2.8,0.3,6.9,0.6,9.4c0.2,1.4,0.6,1.8,1.1,1.7
			c0.6-0.2,1-0.5,1.4-1c-0.8-5.4-1.7-12-2.1-13.8c0.3-1.2,1.4-2.2,2.6-2.2C331.6,72.7,332.9,73.4,334.5,81.4z"/>
		<path class="st10" d="M353.2,86.2c1.8,4,1.3,7.1-1.8,8.2c-3.4,1.2-5.8-1.4-7.8-7.4c-0.9-2.7-1.5-4.7-2-6.5c-0.4,0.1-0.6,0.1-1,0.2
			c-0.4-0.5-1-1.6-1.4-3.2c-0.4-1.5-0.2-3,0.6-4.6c1.5-2.9,2.8-3.9,4.4-4.2c0.8-0.2,1.4-0.1,1.9,0.2c0,1-0.1,2.6-0.1,4.7
			c1.1-0.1,2.2-0.2,2.9-0.6c0.5,0.8,0.7,1.7,0.8,2.4c0.2,1.6-0.2,3.3-1.9,3.7c-0.2,0.1-0.4,0.1-0.6,0.2c0.5,1.4,0.8,2.2,1.4,3.9
			c0.6,1.5,1.3,2.1,1.8,1.8c0.6-0.2,0.8-1,1-1.6C351.8,83.8,352.5,84.8,353.2,86.2z"/>
		<path class="st10" d="M367.7,83.6c0,1-0.4,1.8-1.4,2.3c-1.6,0.9-3.5-0.7-4.7-3.3c-0.7-1.5-1.4-3.6-1.5-4.8
			c-0.2-1.2-0.6-1.5-1.4-1.4c-0.2,0-0.5,0.1-0.6,0.2c0.2,1.3,0.5,2.7,0.9,3.7c1.3,3.5,2.4,5,3.1,5.8c0.2,1.8-0.5,2.9-1.8,3.7
			c-1.7,1.1-3.7,0.2-5.6-4.2c-2.2-5.1-3.4-10-3.2-15.8c0.1-1.9,0.1-4.2-0.6-5.5c0.7-1.3,2.5-2.4,4.3-2.9c2.7-0.7,3.8-0.2,3.8,2.8
			c-0.1,1.8-0.6,5.1-1,8.2c1-1.6,2.5-2.7,4.4-3.3c2.9-0.8,3.8,1.5,3.3,5.1c-0.3,2.2-0.6,4.5,0,6C366,81.8,366.9,83.1,367.7,83.6z"/>
		<path class="st10" d="M379.6,78.8c-0.5,3.3-2.2,4.2-5.4,4.6c-3.6,0.5-8.1-0.7-8.2-5.2c-0.1-2.6,1.8-5.8,4-7.2
			c1.5-3.3,4.1-5.5,6.7-6.5c3.7-1.4,6,0.2,4.8,4.5c-1.4,4.7-5.2,8.7-8.9,9.5c-0.3,0.1-0.6,0.1-1,0.1c0.4,1,1.4,1.4,2.6,1.1
			c1.6-0.3,3.7-1.9,5-3.9C379.5,76.4,379.7,77.6,379.6,78.8z M371.9,74.8c0.2-0.1,0.4-0.1,0.6-0.2c1.3-0.4,2.2-1.4,2.5-2.7
			c0.2-1,0.1-1.7-0.6-1.4C373.6,70.8,372.5,72.4,371.9,74.8z"/>
		<path class="st10" d="M380.8,78.4c0.3-2,1.7-5.7,2.7-9.2c0.5-1.8,0.9-3.7,0.5-4.8c1-1.9,2.5-3.3,4.2-3.8c2.1-0.6,3.8,0.2,3.2,3.2
			c-0.1,0.6-0.2,1.4-0.4,1.8c0.1,0,0.2-0.1,0.3-0.1c2-5.4,2.3-6,3.8-6c1.8,0,3.5,0.9,3.2,4c-0.2,2.6-1.5,5-2.1,6c-1-0.2-2-0.3-3-0.2
			c-1.9,0.4-3.1,2.2-3.8,4.6c-0.6,2.2-0.7,4.9-0.3,6c-1,1-2.6,1.4-4.1,1.6C382,82.3,380.2,82.3,380.8,78.4z"/>
		<path class="st10" d="M419.2,72.3c-0.7,3.3-5,5.8-11.6,6.5c-7.4,0.8-11.4-2-9.6-9c1-4,3.1-6.8,5.7-7.3c0.8-2.2,3.5-3,7.4-3.4
			c5.4-0.7,8,2.2,7.8,5.7c-0.2,3.8-3.7,5.4-9.7,5.8c-0.6,0-1.1,0-1.6,0c0.5,1.4,1.9,1.9,3.8,1.8c2.6-0.2,5.7-1.6,7-3
			C419.1,70,419.6,71,419.2,72.3z M407.7,66.4c0.3,0,0.6,0,1,0c1.8,0,2.8-0.6,2.7-1.5c-0.1-0.7-0.7-1.2-1.6-1.3
			C408.8,63.5,408.3,64.2,407.7,66.4z"/>
		<path class="st10" d="M422.8,63.1c0.9-4.6,6.4-19.8,5.8-20.4c1.8-1.6,5.3-3.8,8.7-5.4c6.2-2.9,8.1-2.1,6.8,1.3
			c-3.5,8.9-9.8,17.4-13.3,26.8c-1,1.1-2.1,1.9-3.7,2.1C423.9,67.7,422,67.1,422.8,63.1z M421.2,72.9c0.7-3,2.2-4.2,5.6-4.4
			c3.4-0.2,5.1,0.2,4.8,2.6c-0.3,2.3-2.8,4.6-6.2,5.3C421.8,77.2,420.5,76,421.2,72.9z"/>
	</g>
</g>
<path class="st0" d="M512.9,158.1l6.5-7.8c0,0,38.2,11.9,33,53.1"/>
<ellipse class="st12" cx="214.1" cy="129.2" rx="2.1" ry="5.6"/>
<path class="st13" d="M341.1,119.9c-5.5,14.7-14.7,24.6-12.9,25.8c1.8,1.2,10.5-8.2,19.4-21.2c8.9-13,26.4-33,24.6-34.2
	c-1.8-1.3-18.5,13.1-30.9,13C338.2,103.2,343,115.1,341.1,119.9z"/>
</svg>
