<svg xmlns="http://www.w3.org/2000/svg" xmlns:xlink="http://www.w3.org/1999/xlink" viewBox="0 0 275.11 185.11"><defs><style>.cls-1{fill:none;stroke:#000;stroke-miterlimit:10;stroke-width:0.11px;}.cls-2{isolation:isolate;}.cls-3{clip-path:url(#clip-path);}.cls-4{clip-path:url(#clip-path-2);}.cls-5{clip-path:url(#clip-path-3);}.cls-6{clip-path:url(#clip-path-4);}.cls-7{clip-path:url(#clip-path-5);}.cls-8{clip-path:url(#clip-path-6);}.cls-9{clip-path:url(#clip-path-7);}.cls-10{clip-path:url(#clip-path-8);}</style><clipPath id="clip-path" transform="translate(0)"><path class="cls-1" d="M180.81,74a25.8,25.8,0,0,0-2,4.13,35.62,35.62,0,0,0-1.33,4.53c-.2,1-.41,2.28-.54,3.26-.1.8-.15,1.88-.21,2.68,0,.2,0,.47,0,.67,0,1,0,2.4.08,3.42a9.52,9.52,0,0,1,0,1.41,9,9,0,0,1-.26,1.42,10.2,10.2,0,0,1-.49,1.44,13.37,13.37,0,0,1-.75,1.45,22.41,22.41,0,0,1-7.1,6.87,53.86,53.86,0,0,1-11.56,5.53,92.28,92.28,0,0,1-14.73,3.76,113,113,0,0,1-16.69,1.58c-.28-4.7-.6-8.92-1-12.6s-.76-6.81-1.17-9.36a40.63,40.63,0,0,0-1.28-5.81c-.44-1.31-.88-2-1.31-2,1.63-.06,3.8-.08,5.42-.19s3.76-.22,5.37-.35,3.69-.32,5.26-.52,3.62-.43,5.17-.66,3.49-.53,5-.79c3.2-.56,6.55-1.26,9.43-2,3.5-.86,5.91-1.55,8.45-2.36,1.72-.54,4.36-1.42,7.21-2.58,2.42-1,4.63-2,5.66-2.56.73-.39,1.72-.9,2.43-1.34.4-.24.94-.56,1.33-.82s1-.66,1.39-1l.3-.23c-.19.24-.46.53-.65.77s-.46.63-.66.9S181,73.58,180.81,74Z"/></clipPath><clipPath id="clip-path-2" transform="translate(0)"><path class="cls-1" d="M176.83,92.67a44.88,44.88,0,0,1,2.58-18.48,46.83,46.83,0,0,1,9.39-15.56,49.35,49.35,0,0,1,14.73-11.09,50.78,50.78,0,0,1,18.64-5.07,19.74,19.74,0,0,1-.17,3,20.09,20.09,0,0,1-.64,3,23,23,0,0,1-1.12,3,27.68,27.68,0,0,1-1.6,3c-3.14,5.12-8.17,9.91-14.65,14.21a108.52,108.52,0,0,1-23.18,11.26,177.42,177.42,0,0,1-29.16,7.58,215.61,215.61,0,0,1-32.87,3.16c.13-.72.27-1.35.41-1.88a10.16,10.16,0,0,1,.43-1.34,2.8,2.8,0,0,1,.44-.79.61.61,0,0,1,.45-.27c1.63,0,3.8-.08,5.43-.19s3.75-.22,5.36-.35,3.69-.32,5.27-.52,3.62-.43,5.16-.66,3.52-.54,5-.8c2.27-.4,5.88-1.09,9.48-2,3.92-1,6.48-1.73,8.54-2.39,3.7-1.17,6.32-2.24,7.31-2.64s2.1-.89,3-1.29,2-.92,2.76-1.35,1.79-1,2.53-1.42c.38-.23.88-.55,1.25-.8s.7-.5,1-.72l.29-.23a.08.08,0,0,1,0,0,14.51,14.51,0,0,0-1.4,1.8c-.31.49-.72,1.15-1,1.66s-.6,1.19-.86,1.7a23.18,23.18,0,0,0-1,2.47c-.24.66-.5,1.56-.69,2.23-.25.89-.5,2.09-.67,3s-.28,1.81-.36,2.6c-.09,1-.15,2.31-.17,3.31C176.73,90.7,176.8,91.83,176.83,92.67Z"/></clipPath><clipPath id="clip-path-3" transform="translate(0)"><path class="cls-1" d="M176.83,92.67a9.79,9.79,0,0,0-2.3-5.47,20.39,20.39,0,0,0-5.89-4.77,43.38,43.38,0,0,0-9.16-3.73,75,75,0,0,0-12.06-2.39,104.89,104.89,0,0,0-17-.6,111.55,111.55,0,0,0-16.73,2A84.26,84.26,0,0,0,98.89,82a45.43,45.43,0,0,0-11.18,6.18,58.86,58.86,0,0,0-4.32-19,65.93,65.93,0,0,0-9.93-16.77A62.34,62.34,0,0,0,59.3,39.55a49.84,49.84,0,0,0-17-7.16c5.83-5,13.44-9.46,22.3-13.23a162.49,162.49,0,0,1,30-9.17,213,213,0,0,1,34.23-4.24,200.81,200.81,0,0,1,34.86,1.43,144,144,0,0,1,24.49,5.28,82.23,82.23,0,0,1,18.36,8.15A39.68,39.68,0,0,1,218,30.86a20.65,20.65,0,0,1,4.14,11.61,50.78,50.78,0,0,0-18.64,5.07A49.35,49.35,0,0,0,188.8,58.63a46.83,46.83,0,0,0-9.39,15.56A44.88,44.88,0,0,0,176.83,92.67Z"/></clipPath><clipPath id="clip-path-4" transform="translate(0)"><path class="cls-1" d="M74.08,121.81a32.32,32.32,0,0,0,6.07-6.18,35.15,35.15,0,0,0,4.44-7.82,41.26,41.26,0,0,0,2.59-9.23,49.19,49.19,0,0,0,.53-10.41A45.43,45.43,0,0,1,98.89,82a84.26,84.26,0,0,1,14.76-4.27,111.55,111.55,0,0,1,16.73-2,104.89,104.89,0,0,1,17,.6,75,75,0,0,1,12.06,2.39,43.38,43.38,0,0,1,9.16,3.73,20.39,20.39,0,0,1,5.89,4.77,9.79,9.79,0,0,1,2.3,5.47c.12,1.3.34,3,.55,4.3.13.8.41,1.85.6,2.64a30.29,30.29,0,0,0,1.72,4.93c.51,1.11,1.27,2.56,1.87,3.63.31.55.78,1.25,1.15,1.77a23.89,23.89,0,0,0,2.25,2.77,17.64,17.64,0,0,0,1.68,1.56.69.69,0,0,1,.13.11l-.49-.26-1.13-.54c-.42-.19-1-.42-1.43-.6-.79-.33-1.88-.69-2.69-1s-2.08-.65-3-.9-2.42-.61-3.46-.87c-1.19-.3-2.79-.62-4-.84s-3.11-.53-4.45-.76-3.35-.46-4.79-.63c-1.59-.19-3.7-.41-5.3-.51s-3.76-.27-5.37-.34-3.88-.15-5.54-.18-3.93,0-5.61,0c-3.4.1-7.93.28-11.32.5-1.69.12-3.94.3-5.61.5s-3.87.43-5.53.65-3.78.54-5.39.8-3.73.62-5.31,1-3.46.7-4.93,1-3.44.82-4.91,1.21c-1.29.34-3,.81-4.3,1.22s-2.83.88-4,1.3-2.66.92-3.78,1.38c-.94.38-2.2.89-3.14,1.3s-2,.92-2.83,1.34-1.78.95-2.52,1.39C75.37,120.92,74.63,121.42,74.08,121.81Z"/></clipPath><clipPath id="clip-path-5" transform="translate(0)"><path class="cls-1" d="M161.37,108c-2.91-.31-5.91-.63-10.65-.85-1.66-.08-3.87-.15-5.54-.18s-3.94,0-5.63,0-4,.09-5.67.17-4,.19-5.65.33-3.93.3-5.61.5-3.87.43-5.52.65-3.76.54-5.37.8c-3.87.61-8.7,1.62-10.18,2s-3.38.78-4.81,1.18c-2.52.7-5.86,1.69-8.35,2.51-1.11.36-2.57.88-3.64,1.32s-2.23.89-3.17,1.3-1.88.87-2.68,1.25-1.74.89-2.46,1.31c-.35.21-.83.48-1.17.71s-.84.56-1.19.82a31.43,31.43,0,0,1-5.84,3.58,32.33,32.33,0,0,1-6.62,2.28,34.55,34.55,0,0,1-7.29.86,39.63,39.63,0,0,1-7.85-.68c6-4.67,13.72-8.85,22.77-12.4a178.09,178.09,0,0,1,30.56-8.67,237.45,237.45,0,0,1,34.89-4.12,223.62,223.62,0,0,1,35.49,1.16,157.14,157.14,0,0,1,24.91,4.78,86.86,86.86,0,0,1,18.63,7.48,38.65,38.65,0,0,1,11.67,9.46,17.9,17.9,0,0,1,4.13,10.76A51,51,0,0,1,210,134a49.64,49.64,0,0,1-16.44-9A47.35,47.35,0,0,1,182,110.7a45.41,45.41,0,0,1-5.12-18h0a45.15,45.15,0,0,0,.79,5.46c.19.78.43,1.83.68,2.59a37.14,37.14,0,0,0,1.4,3.82c.28.62.64,1.45,1,2,.63,1.12,1.5,2.61,2.24,3.65a27.4,27.4,0,0,0,1.93,2.35c.26.28.61.63.88.89s.57.5.82.71l.24.2-.19-.09c-.69-.37-1.64-.81-2.36-1.11s-1.94-.74-2.79-1-2.16-.69-3.1-1-2.4-.62-3.43-.88c-1.23-.31-2.89-.64-4.13-.88s-3.11-.53-4.44-.76S162.87,108.17,161.37,108Z"/></clipPath><clipPath id="clip-path-6" transform="translate(0)"><path class="cls-1" d="M176.83,92.67a45.41,45.41,0,0,0,5.12,18A47.35,47.35,0,0,0,193.56,125,49.64,49.64,0,0,0,210,134a51,51,0,0,0,19.53,2.31,15.85,15.85,0,0,1-.19,2.74,17.82,17.82,0,0,1-.67,2.78,21.29,21.29,0,0,1-1.16,2.8,25.15,25.15,0,0,1-1.66,2.81c-3.22,4.77-8.37,9.24-15,13.26a116.63,116.63,0,0,1-23.66,10.56,197.57,197.57,0,0,1-29.7,7.18,240.49,240.49,0,0,1-33.45,3.09,89.42,89.42,0,0,0,1.3-10.89c.33-4.61.55-10.06.66-16s.1-12.38,0-18.93-.37-13.19-.75-19.57a113,113,0,0,0,16.69-1.58,92.28,92.28,0,0,0,14.73-3.76,53.86,53.86,0,0,0,11.56-5.53,22.41,22.41,0,0,0,7.1-6.87,13.37,13.37,0,0,0,.75-1.45,10.2,10.2,0,0,0,.49-1.44,9,9,0,0,0,.26-1.42A9.52,9.52,0,0,0,176.83,92.67Z"/></clipPath><clipPath id="clip-path-7" transform="translate(0)"><path class="cls-1" d="M261.55,130.51c-1,1.52-2.53,3.44-3.68,4.86s-2.62,3.13-3.84,4.39c-1.91,2-4.54,4.52-6.58,6.37-1.37,1.25-3.28,2.83-4.76,3.93s-3.49,2.63-5,3.68c-2,1.38-4.77,3.21-6.91,4.42-1.95,1.1-4.52,2.64-6.52,3.63-1.81.9-4.2,2.13-6,3-2,.93-4.65,2.15-6.69,2.95-3.93,1.54-9.2,3.49-13.18,4.88-2.11.74-5,1.58-7.1,2.21s-5,1.44-7.18,2c-4.36,1.06-10.19,2.43-14.59,3.29-2.26.44-5.29,1-7.56,1.35s-5.36.8-7.65,1.15-5.45.69-7.79.94-5.52.55-7.89.73-5.6.37-8,.52-5.67.21-8.1.3c-.45,0-.9-.71-1.35-2.11a44.24,44.24,0,0,1-1.3-6.08c-.42-2.63-.81-5.86-1.17-9.61s-.67-8-.94-12.73c-.35-6.17-.59-12.55-.71-18.83s-.13-12.44,0-18.19.3-11.09.61-15.67a101.31,101.31,0,0,1,1.22-11.17,215.61,215.61,0,0,0,32.87-3.16,177.42,177.42,0,0,0,29.16-7.58A108.52,108.52,0,0,0,204,68.66c6.48-4.3,11.51-9.09,14.65-14.21a27.68,27.68,0,0,0,1.6-3,23,23,0,0,0,1.12-3,20.09,20.09,0,0,0,.64-3,19.74,19.74,0,0,0,.17-3A20.65,20.65,0,0,0,218,30.86,39.68,39.68,0,0,0,206.5,20.61a82.23,82.23,0,0,0-18.36-8.15,144,144,0,0,0-24.49-5.28,200.81,200.81,0,0,0-34.86-1.43A213,213,0,0,0,94.56,10a162.49,162.49,0,0,0-30,9.17c-8.86,3.77-16.47,8.22-22.3,13.23a40.06,40.06,0,0,0-8.57-.86,34.42,34.42,0,0,0-8,1,32.43,32.43,0,0,0-7.19,2.68,31.36,31.36,0,0,0-6.25,4.26c2.31-2,5.47-4.49,7.9-6.28,2.1-1.55,5-3.49,7.2-4.84,3.79-2.3,9-5.1,12.92-7.12,2.28-1.18,5.42-2.48,7.74-3.53,2.14-1,5.05-2.08,7.24-2.9,2.35-.88,5.5-2,7.89-2.78s5.51-1.78,7.91-2.42,5.54-1.52,7.93-2.11,5.71-1.39,8.18-1.86c5-1,11.65-2.13,16.66-2.92,2.54-.4,6-.78,8.52-1.06s6-.6,8.6-.79,6.06-.36,8.66-.52,6.12-.22,8.75-.23c5.23,0,12.21.2,17.44.41,2.66.12,6.21.43,8.87.68s6.36.63,9.07,1.05c5,.76,11.62,1.83,16.54,2.89,2.59.56,6,1.4,8.57,2.09,2.24.59,5.19,1.52,7.42,2.17,2.57.77,5.91,2.07,8.44,3,2,.73,4.69,1.87,6.66,2.77,2.6,1.2,6,2.93,8.56,4.24,1.78.91,4.1,2.27,5.78,3.37,2.72,1.78,6.29,4.26,8.89,6.24,1.48,1.12,3.36,2.73,4.74,4,1.61,1.47,3.71,3.5,5.21,5.11a79.54,79.54,0,0,1,10,13.17c1.69,2.8,3.57,6.77,4.95,9.75.68,1.48,1.37,3.57,1.91,5.12A49.68,49.68,0,0,1,273,71.58c.65,3.19,1.41,7.46,1.76,10.7a79.56,79.56,0,0,1,.25,8.32c0,1.6-.22,3.73-.36,5.32-.18,2-.63,4.61-1,6.57-.3,1.56-.86,3.6-1.24,5.14a60.9,60.9,0,0,1-2.18,6.57,67.59,67.59,0,0,1-3,6.85C265.66,124,263.4,127.77,261.55,130.51Z"/></clipPath><clipPath id="clip-path-8" transform="translate(0)"><path class="cls-1" d="M274.8,82.28a101.81,101.81,0,0,1,.13,10.77,54.18,54.18,0,0,1-1,8.14c-.43,1.94-1,4.53-1.49,6.44-.42,1.56-1.08,3.59-1.63,5.1-.71,2-1.78,4.5-2.65,6.38-.69,1.5-1.76,3.42-2.52,4.89a57,57,0,0,1-4.1,6.51,106.6,106.6,0,0,1-7.32,9c-1.26,1.34-3,3.09-4.32,4.34s-3.2,2.87-4.6,4.07a90.74,90.74,0,0,1-7.65,5.78c-3.24,2.18-7.65,4.94-11.07,6.79-2.24,1.21-5.27,2.75-7.56,3.85-1.85.89-4.35,2-6.24,2.8-2.17.93-5.11,2.08-7.32,2.91-2,.75-4.67,1.68-6.68,2.36-2.19.73-5.12,1.64-7.33,2.29s-4.94,1.37-7.05,1.94-5.21,1.3-7.46,1.81-5.16,1.11-7.37,1.54c-5,1-10.18,1.83-15.33,2.53s-10.5,1.27-15.68,1.67c-2.4.19-5.6.4-8,.52s-5.68.25-8.11.3a.56.56,0,0,0,.41-.22,2.21,2.21,0,0,0,.4-.65,7.48,7.48,0,0,0,.4-1.1c.13-.44.25-1,.38-1.56a240.49,240.49,0,0,0,33.45-3.09,197.57,197.57,0,0,0,29.7-7.18,116.63,116.63,0,0,0,23.66-10.56c6.62-4,11.77-8.49,15-13.26a25.15,25.15,0,0,0,1.66-2.81,21.29,21.29,0,0,0,1.16-2.8,17.82,17.82,0,0,0,.67-2.78,15.85,15.85,0,0,0,.19-2.74,17.9,17.9,0,0,0-4.13-10.76,38.65,38.65,0,0,0-11.67-9.46,86.86,86.86,0,0,0-18.63-7.48,157.14,157.14,0,0,0-24.91-4.78,223.62,223.62,0,0,0-35.49-1.16,237.45,237.45,0,0,0-34.89,4.12,178.09,178.09,0,0,0-30.56,8.67c-9,3.55-16.81,7.73-22.77,12.4a49.16,49.16,0,0,1-17.43-7,61.71,61.71,0,0,1-14.6-13.08A66.11,66.11,0,0,1,4.28,90.51,58.27,58.27,0,0,1,.09,71a49.16,49.16,0,0,1,.59-9.68,40.72,40.72,0,0,1,2.37-8.6A36.12,36.12,0,0,1,7,45.39a32.28,32.28,0,0,1,5.33-6h0c1.59-1.31,3.67-3.12,5.32-4.35,2.46-1.84,5.76-4.28,8.37-5.88C29.78,26.91,34.9,24,38.8,22c2.49-1.31,5.93-2.8,8.49-3.95,2.13-1,5-2.1,7.2-2.93,2.48-.94,5.79-2.17,8.32-2.95s5.67-1.85,8.13-2.51c4.79-1.28,11.19-2.94,16-4,2.53-.54,5.9-1.23,8.45-1.63s5.88-1,8.4-1.33,6-.79,8.58-1.07,6-.6,8.6-.79,6.07-.36,8.66-.52,6.09-.17,8.71-.23,6.1,0,8.72.06,6.1.24,8.72.35,6.12.46,8.74.67,6.18.65,8.82,1,5.92.87,8.45,1.29,6,1.06,8.52,1.66c4.6,1.1,10.69,2.71,15.23,4,2.37.69,5.48,1.82,7.8,2.68,2,.76,4.72,1.88,6.73,2.72,2.31,1,5.32,2.44,7.56,3.58,1.8.92,4.17,2.23,5.91,3.27,2.3,1.38,5.29,3.34,7.49,4.88,1.54,1.07,3.54,2.59,5,3.8,2.34,2,5.36,4.78,7.56,7,1.24,1.21,2.74,3,3.89,4.3a78.36,78.36,0,0,1,7.34,10.3c.79,1.44,1.94,3.3,2.62,4.8a98.74,98.74,0,0,1,4,9.69,106.32,106.32,0,0,1,2.6,10.45A47.75,47.75,0,0,1,274.8,82.28Z"/></clipPath></defs><g id="Layer_2" data-name="Layer 2"><g id="Layer_1-2" data-name="Layer 1"><g class="cls-2"><g class="cls-2"><g class="cls-3"><g class="cls-2"><path class="cls-1" d="M163.65,7.18a47.2,47.2,0,0,0-7.33,12.36,103.85,103.85,0,0,0-5.45,17.05,141.16,141.16,0,0,0-3.13,19.6,132.88,132.88,0,0,0-.32,20.12A71,71,0,0,1,162,79.49a33.7,33.7,0,0,1,9.95,5.16,12.54,12.54,0,0,1,4.64,6.5,9.27,9.27,0,0,1-1.27,7.24,43.42,43.42,0,0,1,2.45-17.94,39.19,39.19,0,0,1,23.09-23.31,43.7,43.7,0,0,1,17.79-2.69c3.16-5.18,4.15-10.31,3.17-15.2s-4-9.63-8.8-13.86-11.53-8.07-19.8-11.18A135.44,135.44,0,0,0,163.65,7.18Z" transform="translate(0)"/><path class="cls-1" d="M154.27,24.81a102.49,102.49,0,0,1,21.92,5.1A48.71,48.71,0,0,1,191,38.07c3.64,3.1,5.95,6.55,6.77,10.2a15.09,15.09,0,0,1-2.11,11.26" transform="translate(0)"/><path class="cls-1" d="M148.49,49.5a78.61,78.61,0,0,1,16.57,3.74,37.4,37.4,0,0,1,11.28,6,14.54,14.54,0,0,1,5.24,7.57,11,11,0,0,1-1.48,8.4" transform="translate(0)"/><path class="cls-1" d="M218.64,54.45a43.7,43.7,0,0,0-17.79,2.69,39.19,39.19,0,0,0-23.09,23.31,43.42,43.42,0,0,0-2.45,17.94,22.41,22.41,0,0,1-7.1,6.87,53.86,53.86,0,0,1-11.56,5.53,92.28,92.28,0,0,1-14.73,3.76,113,113,0,0,1-16.69,1.58c-.38-6.36-.84-11.85-1.36-16.32a84.07,84.07,0,0,0-1.67-10.15c-.59-2.27-1.19-3.4-1.77-3.27s-1.14,1.51-1.65,4.27a215.61,215.61,0,0,0,32.87-3.16,177.42,177.42,0,0,0,29.16-7.58A108.52,108.52,0,0,0,204,68.66C210.47,64.36,215.5,59.57,218.64,54.45Z" transform="translate(0)"/><path class="cls-1" d="M195.68,59.53c-2.27,3.81-6,7.38-10.76,10.6a80.15,80.15,0,0,1-17.28,8.45,132.07,132.07,0,0,1-21.89,5.71A159.88,159.88,0,0,1,121,86.67" transform="translate(0)"/><path class="cls-1" d="M180.1,75.23a25.68,25.68,0,0,1-8.08,8,60.63,60.63,0,0,1-13.11,6.38,101.42,101.42,0,0,1-16.68,4.33,125.9,125.9,0,0,1-18.89,1.81" transform="translate(0)"/><path class="cls-1" d="M197.08,72.77a25.08,25.08,0,0,0-13.4-.87A20.88,20.88,0,0,0,173.09,78a29.54,29.54,0,0,0-6.67,12.14,49.22,49.22,0,0,0-1.63,17.11" transform="translate(0)"/><path class="cls-1" d="M161.89,85.43c-2.4-2.41-4.62-3.46-6.58-3.28s-3.65,1.59-5,4.09A31.65,31.65,0,0,0,147.39,97a90.73,90.73,0,0,0-.28,16.53" transform="translate(0)"/><path class="cls-1" d="M147.42,76.31a81.46,81.46,0,0,0,2.69,17,31,31,0,0,0,5.14,10.9c2.05,2.53,4.4,3.87,6.92,3.87s5.25-1.35,8-4.23a146.38,146.38,0,0,1,30.05,6.39c8.41,2.84,15.18,6.33,20.09,10.27s7.88,8.25,8.86,12.83-.08,9.31-3.34,14.12A50.18,50.18,0,0,1,207.22,143a55.67,55.67,0,0,1-26.94-26.17,50.14,50.14,0,0,1-5-18.4,9.27,9.27,0,0,0,1.27-7.24,12.54,12.54,0,0,0-4.64-6.5A33.7,33.7,0,0,0,162,79.49,71,71,0,0,0,147.42,76.31Z" transform="translate(0)"/><path class="cls-1" d="M175.31,98.39a50.14,50.14,0,0,0,5,18.4A55.67,55.67,0,0,0,207.22,143a50.18,50.18,0,0,0,18.63,4.47c-3.22,4.77-8.37,9.24-15,13.26a116.63,116.63,0,0,1-23.66,10.56,197.57,197.57,0,0,1-29.7,7.18,240.49,240.49,0,0,1-33.45,3.09,89.42,89.42,0,0,0,1.3-10.89c.33-4.61.55-10.06.66-16s.1-12.38,0-18.93-.37-13.19-.75-19.57a113,113,0,0,0,16.69-1.58,92.28,92.28,0,0,0,14.73-3.76,53.86,53.86,0,0,0,11.56-5.53A22.41,22.41,0,0,0,175.31,98.39Z" transform="translate(0)"/><path class="cls-1" d="M164.79,107.28a70.42,70.42,0,0,0,4.05,19,76.2,76.2,0,0,0,8.73,17.17,63.49,63.49,0,0,0,12.11,13.4,40.66,40.66,0,0,0,14.12,7.72" transform="translate(0)"/><path class="cls-1" d="M147.11,113.51a148.67,148.67,0,0,0,2.56,19.39,153.2,153.2,0,0,0,4.81,18.39,99.34,99.34,0,0,0,6.33,15.22,37,37,0,0,0,7.11,9.94" transform="translate(0)"/></g><path class="cls-1" d="M180.81,74a25.8,25.8,0,0,0-2,4.13,35.62,35.62,0,0,0-1.33,4.53c-.2,1-.41,2.28-.54,3.26-.1.8-.15,1.88-.21,2.68,0,.2,0,.47,0,.67,0,1,0,2.4.08,3.42a9.52,9.52,0,0,1,0,1.41,9,9,0,0,1-.26,1.42,10.2,10.2,0,0,1-.49,1.44,13.37,13.37,0,0,1-.75,1.45,22.41,22.41,0,0,1-7.1,6.87,53.86,53.86,0,0,1-11.56,5.53,92.28,92.28,0,0,1-14.73,3.76,113,113,0,0,1-16.69,1.58c-.28-4.7-.6-8.92-1-12.6s-.76-6.81-1.17-9.36a40.63,40.63,0,0,0-1.28-5.81c-.44-1.31-.88-2-1.31-2,1.63-.06,3.8-.08,5.42-.19s3.76-.22,5.37-.35,3.69-.32,5.26-.52,3.62-.43,5.17-.66,3.49-.53,5-.79c3.2-.56,6.55-1.26,9.43-2,3.5-.86,5.91-1.55,8.45-2.36,1.72-.54,4.36-1.42,7.21-2.58,2.42-1,4.63-2,5.66-2.56.73-.39,1.72-.9,2.43-1.34.4-.24.94-.56,1.33-.82s1-.66,1.39-1l.3-.23c-.19.24-.46.53-.65.77s-.46.63-.66.9S181,73.58,180.81,74Z" transform="translate(0)"/></g><path class="cls-1" d="M180.81,74a25.8,25.8,0,0,0-2,4.13,35.62,35.62,0,0,0-1.33,4.53c-.2,1-.41,2.28-.54,3.26-.1.8-.15,1.88-.21,2.68,0,.2,0,.47,0,.67,0,1,0,2.4.08,3.42a9.52,9.52,0,0,1,0,1.41,9,9,0,0,1-.26,1.42,10.2,10.2,0,0,1-.49,1.44,13.37,13.37,0,0,1-.75,1.45,22.41,22.41,0,0,1-7.1,6.87,53.86,53.86,0,0,1-11.56,5.53,92.28,92.28,0,0,1-14.73,3.76,113,113,0,0,1-16.69,1.58c-.28-4.7-.6-8.92-1-12.6s-.76-6.81-1.17-9.36a40.63,40.63,0,0,0-1.28-5.81c-.44-1.31-.88-2-1.31-2,1.63-.06,3.8-.08,5.42-.19s3.76-.22,5.37-.35,3.69-.32,5.26-.52,3.62-.43,5.17-.66,3.49-.53,5-.79c3.2-.56,6.55-1.26,9.43-2,3.5-.86,5.91-1.55,8.45-2.36,1.72-.54,4.36-1.42,7.21-2.58,2.42-1,4.63-2,5.66-2.56.73-.39,1.72-.9,2.43-1.34.4-.24.94-.56,1.33-.82s1-.66,1.39-1l.3-.23c-.19.24-.46.53-.65.77s-.46.63-.66.9S181,73.58,180.81,74Z" transform="translate(0)"/></g><g class="cls-2"><g class="cls-4"><g class="cls-2"><path class="cls-1" d="M163.65,7.18a47.2,47.2,0,0,0-7.33,12.36,103.85,103.85,0,0,0-5.45,17.05,141.16,141.16,0,0,0-3.13,19.6,132.88,132.88,0,0,0-.32,20.12A71,71,0,0,1,162,79.49a33.7,33.7,0,0,1,9.95,5.16,12.54,12.54,0,0,1,4.64,6.5,9.27,9.27,0,0,1-1.27,7.24,43.42,43.42,0,0,1,2.45-17.94,39.19,39.19,0,0,1,23.09-23.31,43.7,43.7,0,0,1,17.79-2.69c3.16-5.18,4.15-10.31,3.17-15.2s-4-9.63-8.8-13.86-11.53-8.07-19.8-11.18A135.44,135.44,0,0,0,163.65,7.18Z" transform="translate(0)"/><path class="cls-1" d="M154.27,24.81a102.49,102.49,0,0,1,21.92,5.1A48.71,48.71,0,0,1,191,38.07c3.64,3.1,5.95,6.55,6.77,10.2a15.09,15.09,0,0,1-2.11,11.26" transform="translate(0)"/><path class="cls-1" d="M148.49,49.5a78.61,78.61,0,0,1,16.57,3.74,37.4,37.4,0,0,1,11.28,6,14.54,14.54,0,0,1,5.24,7.57,11,11,0,0,1-1.48,8.4" transform="translate(0)"/><path class="cls-1" d="M218.64,54.45a43.7,43.7,0,0,0-17.79,2.69,39.19,39.19,0,0,0-23.09,23.31,43.42,43.42,0,0,0-2.45,17.94,22.41,22.41,0,0,1-7.1,6.87,53.86,53.86,0,0,1-11.56,5.53,92.28,92.28,0,0,1-14.73,3.76,113,113,0,0,1-16.69,1.58c-.38-6.36-.84-11.85-1.36-16.32a84.07,84.07,0,0,0-1.67-10.15c-.59-2.27-1.19-3.4-1.77-3.27s-1.14,1.51-1.65,4.27a215.61,215.61,0,0,0,32.87-3.16,177.42,177.42,0,0,0,29.16-7.58A108.52,108.52,0,0,0,204,68.66C210.47,64.36,215.5,59.57,218.64,54.45Z" transform="translate(0)"/><path class="cls-1" d="M195.68,59.53c-2.27,3.81-6,7.38-10.76,10.6a80.15,80.15,0,0,1-17.28,8.45,132.07,132.07,0,0,1-21.89,5.71A159.88,159.88,0,0,1,121,86.67" transform="translate(0)"/><path class="cls-1" d="M180.1,75.23a25.68,25.68,0,0,1-8.08,8,60.63,60.63,0,0,1-13.11,6.38,101.42,101.42,0,0,1-16.68,4.33,125.9,125.9,0,0,1-18.89,1.81" transform="translate(0)"/><path class="cls-1" d="M197.08,72.77a25.08,25.08,0,0,0-13.4-.87A20.88,20.88,0,0,0,173.09,78a29.54,29.54,0,0,0-6.67,12.14,49.22,49.22,0,0,0-1.63,17.11" transform="translate(0)"/><path class="cls-1" d="M161.89,85.43c-2.4-2.41-4.62-3.46-6.58-3.28s-3.65,1.59-5,4.09A31.65,31.65,0,0,0,147.39,97a90.73,90.73,0,0,0-.28,16.53" transform="translate(0)"/><path class="cls-1" d="M147.42,76.31a81.46,81.46,0,0,0,2.69,17,31,31,0,0,0,5.14,10.9c2.05,2.53,4.4,3.87,6.92,3.87s5.25-1.35,8-4.23a146.38,146.38,0,0,1,30.05,6.39c8.41,2.84,15.18,6.33,20.09,10.27s7.88,8.25,8.86,12.83-.08,9.31-3.34,14.12A50.18,50.18,0,0,1,207.22,143a55.67,55.67,0,0,1-26.94-26.17,50.14,50.14,0,0,1-5-18.4,9.27,9.27,0,0,0,1.27-7.24,12.54,12.54,0,0,0-4.64-6.5A33.7,33.7,0,0,0,162,79.49,71,71,0,0,0,147.42,76.31Z" transform="translate(0)"/><path class="cls-1" d="M175.31,98.39a50.14,50.14,0,0,0,5,18.4A55.67,55.67,0,0,0,207.22,143a50.18,50.18,0,0,0,18.63,4.47c-3.22,4.77-8.37,9.24-15,13.26a116.63,116.63,0,0,1-23.66,10.56,197.57,197.57,0,0,1-29.7,7.18,240.49,240.49,0,0,1-33.45,3.09,89.42,89.42,0,0,0,1.3-10.89c.33-4.61.55-10.06.66-16s.1-12.38,0-18.93-.37-13.19-.75-19.57a113,113,0,0,0,16.69-1.58,92.28,92.28,0,0,0,14.73-3.76,53.86,53.86,0,0,0,11.56-5.53A22.41,22.41,0,0,0,175.31,98.39Z" transform="translate(0)"/><path class="cls-1" d="M164.79,107.28a70.42,70.42,0,0,0,4.05,19,76.2,76.2,0,0,0,8.73,17.17,63.49,63.49,0,0,0,12.11,13.4,40.66,40.66,0,0,0,14.12,7.72" transform="translate(0)"/><path class="cls-1" d="M147.11,113.51a148.67,148.67,0,0,0,2.56,19.39,153.2,153.2,0,0,0,4.81,18.39,99.34,99.34,0,0,0,6.33,15.22,37,37,0,0,0,7.11,9.94" transform="translate(0)"/></g><path class="cls-1" d="M176.83,92.67a44.88,44.88,0,0,1,2.58-18.48,46.83,46.83,0,0,1,9.39-15.56,49.35,49.35,0,0,1,14.73-11.09,50.78,50.78,0,0,1,18.64-5.07,19.74,19.74,0,0,1-.17,3,20.09,20.09,0,0,1-.64,3,23,23,0,0,1-1.12,3,27.68,27.68,0,0,1-1.6,3c-3.14,5.12-8.17,9.91-14.65,14.21a108.52,108.52,0,0,1-23.18,11.26,177.42,177.42,0,0,1-29.16,7.58,215.61,215.61,0,0,1-32.87,3.16c.13-.72.27-1.35.41-1.88a10.16,10.16,0,0,1,.43-1.34,2.8,2.8,0,0,1,.44-.79.61.61,0,0,1,.45-.27c1.63,0,3.8-.08,5.43-.19s3.75-.22,5.36-.35,3.69-.32,5.27-.52,3.62-.43,5.16-.66,3.52-.54,5-.8c2.27-.4,5.88-1.09,9.48-2,3.92-1,6.48-1.73,8.54-2.39,3.7-1.17,6.32-2.24,7.31-2.64s2.1-.89,3-1.29,2-.92,2.76-1.35,1.79-1,2.53-1.42c.38-.23.88-.55,1.25-.8s.7-.5,1-.72l.29-.23a.08.08,0,0,1,0,0,14.51,14.51,0,0,0-1.4,1.8c-.31.49-.72,1.15-1,1.66s-.6,1.19-.86,1.7a23.18,23.18,0,0,0-1,2.47c-.24.66-.5,1.56-.69,2.23-.25.89-.5,2.09-.67,3s-.28,1.81-.36,2.6c-.09,1-.15,2.31-.17,3.31C176.73,90.7,176.8,91.83,176.83,92.67Z" transform="translate(0)"/></g><path class="cls-1" d="M176.83,92.67a44.88,44.88,0,0,1,2.58-18.48,46.83,46.83,0,0,1,9.39-15.56,49.35,49.35,0,0,1,14.73-11.09,50.78,50.78,0,0,1,18.64-5.07,19.74,19.74,0,0,1-.17,3,20.09,20.09,0,0,1-.64,3,23,23,0,0,1-1.12,3,27.68,27.68,0,0,1-1.6,3c-3.14,5.12-8.17,9.91-14.65,14.21a108.52,108.52,0,0,1-23.18,11.26,177.42,177.42,0,0,1-29.16,7.58,215.61,215.61,0,0,1-32.87,3.16c.13-.72.27-1.35.41-1.88a10.16,10.16,0,0,1,.43-1.34,2.8,2.8,0,0,1,.44-.79.61.61,0,0,1,.45-.27c1.63,0,3.8-.08,5.43-.19s3.75-.22,5.36-.35,3.69-.32,5.27-.52,3.62-.43,5.16-.66,3.52-.54,5-.8c2.27-.4,5.88-1.09,9.48-2,3.92-1,6.48-1.73,8.54-2.39,3.7-1.17,6.32-2.24,7.31-2.64s2.1-.89,3-1.29,2-.92,2.76-1.35,1.79-1,2.53-1.42c.38-.23.88-.55,1.25-.8s.7-.5,1-.72l.29-.23a.08.08,0,0,1,0,0,14.51,14.51,0,0,0-1.4,1.8c-.31.49-.72,1.15-1,1.66s-.6,1.19-.86,1.7a23.18,23.18,0,0,0-1,2.47c-.24.66-.5,1.56-.69,2.23-.25.89-.5,2.09-.67,3s-.28,1.81-.36,2.6c-.09,1-.15,2.31-.17,3.31C176.73,90.7,176.8,91.83,176.83,92.67Z" transform="translate(0)"/></g><g class="cls-2"><g class="cls-5"><g class="cls-2"><path class="cls-1" d="M42.29,32.39a49.84,49.84,0,0,1,17,7.16A62.34,62.34,0,0,1,73.46,52.38a65.93,65.93,0,0,1,9.93,16.77,58.86,58.86,0,0,1,4.32,19A45.43,45.43,0,0,1,98.89,82a84.26,84.26,0,0,1,14.76-4.27,111.55,111.55,0,0,1,16.73-2,104.89,104.89,0,0,1,17,.6,132.88,132.88,0,0,1,.32-20.12,141.16,141.16,0,0,1,3.13-19.6,103.85,103.85,0,0,1,5.45-17.05,47.2,47.2,0,0,1,7.33-12.36,200.81,200.81,0,0,0-34.86-1.43A213,213,0,0,0,94.56,10a162.49,162.49,0,0,0-30,9.17C55.73,22.93,48.12,27.38,42.29,32.39Z" transform="translate(0)"/><path class="cls-1" d="M64.4,43.29A65.05,65.05,0,0,1,81.07,33.6a121.29,121.29,0,0,1,22.2-6.7,159,159,0,0,1,25.27-3.1,150.68,150.68,0,0,1,25.73,1" transform="translate(0)"/><path class="cls-1" d="M80.64,63.23A50.74,50.74,0,0,1,93.31,56a93.89,93.89,0,0,1,16.77-4.95,121.93,121.93,0,0,1,19-2.31,115.57,115.57,0,0,1,19.38.72" transform="translate(0)"/><path class="cls-1" d="M73.89,15.61A44.38,44.38,0,0,1,84.71,26.24a85.6,85.6,0,0,1,9.11,15.65,111.88,111.88,0,0,1,6.56,18.67,103.82,103.82,0,0,1,3.11,19.77" transform="translate(0)"/><path class="cls-1" d="M117.13,6.57c.67,3.13,1.38,7.43,2.09,12.51s1.43,10.91,2.11,17.17,1.32,12.94,1.89,19.69,1.08,13.6,1.47,20.17" transform="translate(0)"/><path class="cls-1" d="M163.65,7.18a47.2,47.2,0,0,0-7.33,12.36,103.85,103.85,0,0,0-5.45,17.05,141.16,141.16,0,0,0-3.13,19.6,132.88,132.88,0,0,0-.32,20.12A71,71,0,0,1,162,79.49a33.7,33.7,0,0,1,9.95,5.16,12.54,12.54,0,0,1,4.64,6.5,9.27,9.27,0,0,1-1.27,7.24,43.42,43.42,0,0,1,2.45-17.94,39.19,39.19,0,0,1,23.09-23.31,43.7,43.7,0,0,1,17.79-2.69c3.16-5.18,4.15-10.31,3.17-15.2s-4-9.63-8.8-13.86-11.53-8.07-19.8-11.18A135.44,135.44,0,0,0,163.65,7.18Z" transform="translate(0)"/><path class="cls-1" d="M154.27,24.81a102.49,102.49,0,0,1,21.92,5.1A48.71,48.71,0,0,1,191,38.07c3.64,3.1,5.95,6.55,6.77,10.2a15.09,15.09,0,0,1-2.11,11.26" transform="translate(0)"/><path class="cls-1" d="M148.49,49.5a78.61,78.61,0,0,1,16.57,3.74,37.4,37.4,0,0,1,11.28,6,14.54,14.54,0,0,1,5.24,7.57,11,11,0,0,1-1.48,8.4" transform="translate(0)"/><path class="cls-1" d="M201,17.55a48.94,48.94,0,0,0-14.75,10.17A66.72,66.72,0,0,0,174.75,43a74,74,0,0,0-7.14,18.4A65.79,65.79,0,0,0,165.85,81" transform="translate(0)"/><path class="cls-1" d="M220.16,34.42a52.63,52.63,0,0,0-18.35,6.69,54.68,54.68,0,0,0-14.46,12.43A53,53,0,0,0,178.16,70a48.27,48.27,0,0,0-2.5,18.86" transform="translate(0)"/><path class="cls-1" d="M87.71,88.17A45.92,45.92,0,0,1,85.29,106a35,35,0,0,1-8.5,13.46,31.6,31.6,0,0,1-13.36,7.74,36.57,36.57,0,0,1-17,.65c6-4.67,13.72-8.85,22.77-12.4a178.09,178.09,0,0,1,30.56-8.67,237.45,237.45,0,0,1,34.89-4.12,223.62,223.62,0,0,1,35.49,1.16c-2.77,2.88-5.48,4.23-8,4.23s-4.87-1.34-6.92-3.87a31,31,0,0,1-5.14-10.9,81.46,81.46,0,0,1-2.69-17,104.89,104.89,0,0,0-17-.6,111.55,111.55,0,0,0-16.73,2A84.26,84.26,0,0,0,98.89,82,45.43,45.43,0,0,0,87.71,88.17Z" transform="translate(0)"/><path class="cls-1" d="M103.49,80.33a66.1,66.1,0,0,1-1.08,17.29,29.43,29.43,0,0,1-5,11.8,12.83,12.83,0,0,1-8.13,5.23c-3.17.52-6.74-.27-10.59-2.54" transform="translate(0)"/><path class="cls-1" d="M124.69,76.11c.39,6.59.63,12.29.74,17s.07,8.38-.1,10.88-.46,3.85-.88,3.83-1-1.4-1.64-4.32" transform="translate(0)"/><path class="cls-1" d="M147.42,76.31a81.46,81.46,0,0,0,2.69,17,31,31,0,0,0,5.14,10.9c2.05,2.53,4.4,3.87,6.92,3.87s5.25-1.35,8-4.23a146.38,146.38,0,0,1,30.05,6.39c8.41,2.84,15.18,6.33,20.09,10.27s7.88,8.25,8.86,12.83-.08,9.31-3.34,14.12A50.18,50.18,0,0,1,207.22,143a55.67,55.67,0,0,1-26.94-26.17,50.14,50.14,0,0,1-5-18.4,9.27,9.27,0,0,0,1.27-7.24,12.54,12.54,0,0,0-4.64-6.5A33.7,33.7,0,0,0,162,79.49,71,71,0,0,0,147.42,76.31Z" transform="translate(0)"/><path class="cls-1" d="M165.85,81a47.65,47.65,0,0,0,4.26,17.27,32.16,32.16,0,0,0,9.3,11.88,26.37,26.37,0,0,0,13.1,5.39,31.86,31.86,0,0,0,15.6-2.29" transform="translate(0)"/><path class="cls-1" d="M175.66,88.87a43.89,43.89,0,0,0,5.05,17.78,42.35,42.35,0,0,0,11.41,13.49A43.93,43.93,0,0,0,208.28,128a48.12,48.12,0,0,0,19.26.84" transform="translate(0)"/></g><path class="cls-1" d="M176.83,92.67a9.79,9.79,0,0,0-2.3-5.47,20.39,20.39,0,0,0-5.89-4.77,43.38,43.38,0,0,0-9.16-3.73,75,75,0,0,0-12.06-2.39,104.89,104.89,0,0,0-17-.6,111.55,111.55,0,0,0-16.73,2A84.26,84.26,0,0,0,98.89,82a45.43,45.43,0,0,0-11.18,6.18,58.86,58.86,0,0,0-4.32-19,65.93,65.93,0,0,0-9.93-16.77A62.34,62.34,0,0,0,59.3,39.55a49.84,49.84,0,0,0-17-7.16c5.83-5,13.44-9.46,22.3-13.23a162.49,162.49,0,0,1,30-9.17,213,213,0,0,1,34.23-4.24,200.81,200.81,0,0,1,34.86,1.43,144,144,0,0,1,24.49,5.28,82.23,82.23,0,0,1,18.36,8.15A39.68,39.68,0,0,1,218,30.86a20.65,20.65,0,0,1,4.14,11.61,50.78,50.78,0,0,0-18.64,5.07A49.35,49.35,0,0,0,188.8,58.63a46.83,46.83,0,0,0-9.39,15.56A44.88,44.88,0,0,0,176.83,92.67Z" transform="translate(0)"/></g><path class="cls-1" d="M176.83,92.67a9.79,9.79,0,0,0-2.3-5.47,20.39,20.39,0,0,0-5.89-4.77,43.38,43.38,0,0,0-9.16-3.73,75,75,0,0,0-12.06-2.39,104.89,104.89,0,0,0-17-.6,111.55,111.55,0,0,0-16.73,2A84.26,84.26,0,0,0,98.89,82a45.43,45.43,0,0,0-11.18,6.18,58.86,58.86,0,0,0-4.32-19,65.93,65.93,0,0,0-9.93-16.77A62.34,62.34,0,0,0,59.3,39.55a49.84,49.84,0,0,0-17-7.16c5.83-5,13.44-9.46,22.3-13.23a162.49,162.49,0,0,1,30-9.17,213,213,0,0,1,34.23-4.24,200.81,200.81,0,0,1,34.86,1.43,144,144,0,0,1,24.49,5.28,82.23,82.23,0,0,1,18.36,8.15A39.68,39.68,0,0,1,218,30.86a20.65,20.65,0,0,1,4.14,11.61,50.78,50.78,0,0,0-18.64,5.07A49.35,49.35,0,0,0,188.8,58.63a46.83,46.83,0,0,0-9.39,15.56A44.88,44.88,0,0,0,176.83,92.67Z" transform="translate(0)"/></g><g class="cls-2"><g class="cls-6"><g class="cls-2"><path class="cls-1" d="M42.29,32.39a49.84,49.84,0,0,1,17,7.16A62.34,62.34,0,0,1,73.46,52.38a65.93,65.93,0,0,1,9.93,16.77,58.86,58.86,0,0,1,4.32,19A45.43,45.43,0,0,1,98.89,82a84.26,84.26,0,0,1,14.76-4.27,111.55,111.55,0,0,1,16.73-2,104.89,104.89,0,0,1,17,.6,132.88,132.88,0,0,1,.32-20.12,141.16,141.16,0,0,1,3.13-19.6,103.85,103.85,0,0,1,5.45-17.05,47.2,47.2,0,0,1,7.33-12.36,200.81,200.81,0,0,0-34.86-1.43A213,213,0,0,0,94.56,10a162.49,162.49,0,0,0-30,9.17C55.73,22.93,48.12,27.38,42.29,32.39Z" transform="translate(0)"/><path class="cls-1" d="M73.89,15.61A44.38,44.38,0,0,1,84.71,26.24a85.6,85.6,0,0,1,9.11,15.65,111.88,111.88,0,0,1,6.56,18.67,103.82,103.82,0,0,1,3.11,19.77" transform="translate(0)"/><path class="cls-1" d="M117.13,6.57c.67,3.13,1.38,7.43,2.09,12.51s1.43,10.91,2.11,17.17,1.32,12.94,1.89,19.69,1.08,13.6,1.47,20.17" transform="translate(0)"/><path class="cls-1" d="M163.65,7.18a47.2,47.2,0,0,0-7.33,12.36,103.85,103.85,0,0,0-5.45,17.05,141.16,141.16,0,0,0-3.13,19.6,132.88,132.88,0,0,0-.32,20.12A71,71,0,0,1,162,79.49a33.7,33.7,0,0,1,9.95,5.16,12.54,12.54,0,0,1,4.64,6.5,9.27,9.27,0,0,1-1.27,7.24,43.42,43.42,0,0,1,2.45-17.94,39.19,39.19,0,0,1,23.09-23.31,43.7,43.7,0,0,1,17.79-2.69c3.16-5.18,4.15-10.31,3.17-15.2s-4-9.63-8.8-13.86-11.53-8.07-19.8-11.18A135.44,135.44,0,0,0,163.65,7.18Z" transform="translate(0)"/><path class="cls-1" d="M201,17.55a48.94,48.94,0,0,0-14.75,10.17A66.72,66.72,0,0,0,174.75,43a74,74,0,0,0-7.14,18.4A65.79,65.79,0,0,0,165.85,81" transform="translate(0)"/><path class="cls-1" d="M220.16,34.42a52.63,52.63,0,0,0-18.35,6.69,54.68,54.68,0,0,0-14.46,12.43A53,53,0,0,0,178.16,70a48.27,48.27,0,0,0-2.5,18.86" transform="translate(0)"/><path class="cls-1" d="M87.71,88.17A45.92,45.92,0,0,1,85.29,106a35,35,0,0,1-8.5,13.46,31.6,31.6,0,0,1-13.36,7.74,36.57,36.57,0,0,1-17,.65c6-4.67,13.72-8.85,22.77-12.4a178.09,178.09,0,0,1,30.56-8.67,237.45,237.45,0,0,1,34.89-4.12,223.62,223.62,0,0,1,35.49,1.16c-2.77,2.88-5.48,4.23-8,4.23s-4.87-1.34-6.92-3.87a31,31,0,0,1-5.14-10.9,81.46,81.46,0,0,1-2.69-17,104.89,104.89,0,0,0-17-.6,111.55,111.55,0,0,0-16.73,2A84.26,84.26,0,0,0,98.89,82,45.43,45.43,0,0,0,87.71,88.17Z" transform="translate(0)"/><path class="cls-1" d="M83.07,111a51.7,51.7,0,0,1,12.81-7,98.44,98.44,0,0,1,16.93-4.82A130.87,130.87,0,0,1,132,97a123.38,123.38,0,0,1,19.56.64" transform="translate(0)"/><path class="cls-1" d="M68.35,125.34a68.42,68.42,0,0,1,17-9.16,132.42,132.42,0,0,1,22.58-6.38,175.76,175.76,0,0,1,25.68-3,166.84,166.84,0,0,1,26.14.84" transform="translate(0)"/><path class="cls-1" d="M103.49,80.33a66.1,66.1,0,0,1-1.08,17.29,29.43,29.43,0,0,1-5,11.8,12.83,12.83,0,0,1-8.13,5.23c-3.17.52-6.74-.27-10.59-2.54" transform="translate(0)"/><path class="cls-1" d="M124.69,76.11c.39,6.59.63,12.29.74,17s.07,8.38-.1,10.88-.46,3.85-.88,3.83-1-1.4-1.64-4.32" transform="translate(0)"/><path class="cls-1" d="M147.42,76.31a81.46,81.46,0,0,0,2.69,17,31,31,0,0,0,5.14,10.9c2.05,2.53,4.4,3.87,6.92,3.87s5.25-1.35,8-4.23a146.38,146.38,0,0,1,30.05,6.39c8.41,2.84,15.18,6.33,20.09,10.27s7.88,8.25,8.86,12.83-.08,9.31-3.34,14.12A50.18,50.18,0,0,1,207.22,143a55.67,55.67,0,0,1-26.94-26.17,50.14,50.14,0,0,1-5-18.4,9.27,9.27,0,0,0,1.27-7.24,12.54,12.54,0,0,0-4.64-6.5A33.7,33.7,0,0,0,162,79.49,71,71,0,0,0,147.42,76.31Z" transform="translate(0)"/><path class="cls-1" d="M151.58,97.63a82.46,82.46,0,0,1,16.71,3.56A38.06,38.06,0,0,1,179.65,107a14,14,0,0,1,5.27,7.28,10.3,10.3,0,0,1-1.52,8.1" transform="translate(0)"/><path class="cls-1" d="M159.71,107.61a110.31,110.31,0,0,1,22.23,4.69,50.27,50.27,0,0,1,15,7.59c3.68,2.9,6,6.12,6.82,9.53s.12,7-2.22,10.57" transform="translate(0)"/><path class="cls-1" d="M165.85,81a47.65,47.65,0,0,0,4.26,17.27,32.16,32.16,0,0,0,9.3,11.88,26.37,26.37,0,0,0,13.1,5.39,31.86,31.86,0,0,0,15.6-2.29" transform="translate(0)"/><path class="cls-1" d="M175.66,88.87a43.89,43.89,0,0,0,5.05,17.78,42.35,42.35,0,0,0,11.41,13.49A43.93,43.93,0,0,0,208.28,128a48.12,48.12,0,0,0,19.26.84" transform="translate(0)"/></g><path class="cls-1" d="M74.08,121.81a32.32,32.32,0,0,0,6.07-6.18,35.15,35.15,0,0,0,4.44-7.82,41.26,41.26,0,0,0,2.59-9.23,49.19,49.19,0,0,0,.53-10.41A45.43,45.43,0,0,1,98.89,82a84.26,84.26,0,0,1,14.76-4.27,111.55,111.55,0,0,1,16.73-2,104.89,104.89,0,0,1,17,.6,75,75,0,0,1,12.06,2.39,43.38,43.38,0,0,1,9.16,3.73,20.39,20.39,0,0,1,5.89,4.77,9.79,9.79,0,0,1,2.3,5.47c.12,1.3.34,3,.55,4.3.13.8.41,1.85.6,2.64a30.29,30.29,0,0,0,1.72,4.93c.51,1.11,1.27,2.56,1.87,3.63.31.55.78,1.25,1.15,1.77a23.89,23.89,0,0,0,2.25,2.77,17.64,17.64,0,0,0,1.68,1.56.69.69,0,0,1,.13.11l-.49-.26-1.13-.54c-.42-.19-1-.42-1.43-.6-.79-.33-1.88-.69-2.69-1s-2.08-.65-3-.9-2.42-.61-3.46-.87c-1.19-.3-2.79-.62-4-.84s-3.11-.53-4.45-.76-3.35-.46-4.79-.63c-1.59-.19-3.7-.41-5.3-.51s-3.76-.27-5.37-.34-3.88-.15-5.54-.18-3.93,0-5.61,0c-3.4.1-7.93.28-11.32.5-1.69.12-3.94.3-5.61.5s-3.87.43-5.53.65-3.78.54-5.39.8-3.73.62-5.31,1-3.46.7-4.93,1-3.44.82-4.91,1.21c-1.29.34-3,.81-4.3,1.22s-2.83.88-4,1.3-2.66.92-3.78,1.38c-.94.38-2.2.89-3.14,1.3s-2,.92-2.83,1.34-1.78.95-2.52,1.39C75.37,120.92,74.63,121.42,74.08,121.81Z" transform="translate(0)"/></g><path class="cls-1" d="M74.08,121.81a32.32,32.32,0,0,0,6.07-6.18,35.15,35.15,0,0,0,4.44-7.82,41.26,41.26,0,0,0,2.59-9.23,49.19,49.19,0,0,0,.53-10.41A45.43,45.43,0,0,1,98.89,82a84.26,84.26,0,0,1,14.76-4.27,111.55,111.55,0,0,1,16.73-2,104.89,104.89,0,0,1,17,.6,75,75,0,0,1,12.06,2.39,43.38,43.38,0,0,1,9.16,3.73,20.39,20.39,0,0,1,5.89,4.77,9.79,9.79,0,0,1,2.3,5.47c.12,1.3.34,3,.55,4.3.13.8.41,1.85.6,2.64a30.29,30.29,0,0,0,1.72,4.93c.51,1.11,1.27,2.56,1.87,3.63.31.55.78,1.25,1.15,1.77a23.89,23.89,0,0,0,2.25,2.77,17.64,17.64,0,0,0,1.68,1.56.69.69,0,0,1,.13.11l-.49-.26-1.13-.54c-.42-.19-1-.42-1.43-.6-.79-.33-1.88-.69-2.69-1s-2.08-.65-3-.9-2.42-.61-3.46-.87c-1.19-.3-2.79-.62-4-.84s-3.11-.53-4.45-.76-3.35-.46-4.79-.63c-1.59-.19-3.7-.41-5.3-.51s-3.76-.27-5.37-.34-3.88-.15-5.54-.18-3.93,0-5.61,0c-3.4.1-7.93.28-11.32.5-1.69.12-3.94.3-5.61.5s-3.87.43-5.53.65-3.78.54-5.39.8-3.73.62-5.31,1-3.46.7-4.93,1-3.44.82-4.91,1.21c-1.29.34-3,.81-4.3,1.22s-2.83.88-4,1.3-2.66.92-3.78,1.38c-.94.38-2.2.89-3.14,1.3s-2,.92-2.83,1.34-1.78.95-2.52,1.39C75.37,120.92,74.63,121.42,74.08,121.81Z" transform="translate(0)"/></g><g class="cls-2"><g class="cls-7"><g class="cls-2"><path class="cls-1" d="M42.29,32.39a49.84,49.84,0,0,1,17,7.16A62.34,62.34,0,0,1,73.46,52.38a65.93,65.93,0,0,1,9.93,16.77,58.86,58.86,0,0,1,4.32,19A45.43,45.43,0,0,1,98.89,82a84.26,84.26,0,0,1,14.76-4.27,111.55,111.55,0,0,1,16.73-2,104.89,104.89,0,0,1,17,.6,132.88,132.88,0,0,1,.32-20.12,141.16,141.16,0,0,1,3.13-19.6,103.85,103.85,0,0,1,5.45-17.05,47.2,47.2,0,0,1,7.33-12.36,200.81,200.81,0,0,0-34.86-1.43A213,213,0,0,0,94.56,10a162.49,162.49,0,0,0-30,9.17C55.73,22.93,48.12,27.38,42.29,32.39Z" transform="translate(0)"/><path class="cls-1" d="M73.89,15.61A44.38,44.38,0,0,1,84.71,26.24a85.6,85.6,0,0,1,9.11,15.65,111.88,111.88,0,0,1,6.56,18.67,103.82,103.82,0,0,1,3.11,19.77" transform="translate(0)"/><path class="cls-1" d="M117.13,6.57c.67,3.13,1.38,7.43,2.09,12.51s1.43,10.91,2.11,17.17,1.32,12.94,1.89,19.69,1.08,13.6,1.47,20.17" transform="translate(0)"/><path class="cls-1" d="M163.65,7.18a47.2,47.2,0,0,0-7.33,12.36,103.85,103.85,0,0,0-5.45,17.05,141.16,141.16,0,0,0-3.13,19.6,132.88,132.88,0,0,0-.32,20.12A71,71,0,0,1,162,79.49a33.7,33.7,0,0,1,9.95,5.16,12.54,12.54,0,0,1,4.64,6.5,9.27,9.27,0,0,1-1.27,7.24,43.42,43.42,0,0,1,2.45-17.94,39.19,39.19,0,0,1,23.09-23.31,43.7,43.7,0,0,1,17.79-2.69c3.16-5.18,4.15-10.31,3.17-15.2s-4-9.63-8.8-13.86-11.53-8.07-19.8-11.18A135.44,135.44,0,0,0,163.65,7.18Z" transform="translate(0)"/><path class="cls-1" d="M201,17.55a48.94,48.94,0,0,0-14.75,10.17A66.72,66.72,0,0,0,174.75,43a74,74,0,0,0-7.14,18.4A65.79,65.79,0,0,0,165.85,81" transform="translate(0)"/><path class="cls-1" d="M220.16,34.42a52.63,52.63,0,0,0-18.35,6.69,54.68,54.68,0,0,0-14.46,12.43A53,53,0,0,0,178.16,70a48.27,48.27,0,0,0-2.5,18.86" transform="translate(0)"/><path class="cls-1" d="M87.71,88.17A45.92,45.92,0,0,1,85.29,106a35,35,0,0,1-8.5,13.46,31.6,31.6,0,0,1-13.36,7.74,36.57,36.57,0,0,1-17,.65c6-4.67,13.72-8.85,22.77-12.4a178.09,178.09,0,0,1,30.56-8.67,237.45,237.45,0,0,1,34.89-4.12,223.62,223.62,0,0,1,35.49,1.16c-2.77,2.88-5.48,4.23-8,4.23s-4.87-1.34-6.92-3.87a31,31,0,0,1-5.14-10.9,81.46,81.46,0,0,1-2.69-17,104.89,104.89,0,0,0-17-.6,111.55,111.55,0,0,0-16.73,2A84.26,84.26,0,0,0,98.89,82,45.43,45.43,0,0,0,87.71,88.17Z" transform="translate(0)"/><path class="cls-1" d="M83.07,111a51.7,51.7,0,0,1,12.81-7,98.44,98.44,0,0,1,16.93-4.82A130.87,130.87,0,0,1,132,97a123.38,123.38,0,0,1,19.56.64" transform="translate(0)"/><path class="cls-1" d="M68.35,125.34a68.42,68.42,0,0,1,17-9.16,132.42,132.42,0,0,1,22.58-6.38,175.76,175.76,0,0,1,25.68-3,166.84,166.84,0,0,1,26.14.84" transform="translate(0)"/><path class="cls-1" d="M103.49,80.33a66.1,66.1,0,0,1-1.08,17.29,29.43,29.43,0,0,1-5,11.8,12.83,12.83,0,0,1-8.13,5.23c-3.17.52-6.74-.27-10.59-2.54" transform="translate(0)"/><path class="cls-1" d="M124.69,76.11c.39,6.59.63,12.29.74,17s.07,8.38-.1,10.88-.46,3.85-.88,3.83-1-1.4-1.64-4.32" transform="translate(0)"/><path class="cls-1" d="M147.42,76.31a81.46,81.46,0,0,0,2.69,17,31,31,0,0,0,5.14,10.9c2.05,2.53,4.4,3.87,6.92,3.87s5.25-1.35,8-4.23a146.38,146.38,0,0,1,30.05,6.39c8.41,2.84,15.18,6.33,20.09,10.27s7.88,8.25,8.86,12.83-.08,9.31-3.34,14.12A50.18,50.18,0,0,1,207.22,143a55.67,55.67,0,0,1-26.94-26.17,50.14,50.14,0,0,1-5-18.4,9.27,9.27,0,0,0,1.27-7.24,12.54,12.54,0,0,0-4.64-6.5A33.7,33.7,0,0,0,162,79.49,71,71,0,0,0,147.42,76.31Z" transform="translate(0)"/><path class="cls-1" d="M151.58,97.63a82.46,82.46,0,0,1,16.71,3.56A38.06,38.06,0,0,1,179.65,107a14,14,0,0,1,5.27,7.28,10.3,10.3,0,0,1-1.52,8.1" transform="translate(0)"/><path class="cls-1" d="M159.71,107.61a110.31,110.31,0,0,1,22.23,4.69,50.27,50.27,0,0,1,15,7.59c3.68,2.9,6,6.12,6.82,9.53s.12,7-2.22,10.57" transform="translate(0)"/><path class="cls-1" d="M165.85,81a47.65,47.65,0,0,0,4.26,17.27,32.16,32.16,0,0,0,9.3,11.88,26.37,26.37,0,0,0,13.1,5.39,31.86,31.86,0,0,0,15.6-2.29" transform="translate(0)"/><path class="cls-1" d="M175.66,88.87a43.89,43.89,0,0,0,5.05,17.78,42.35,42.35,0,0,0,11.41,13.49A43.93,43.93,0,0,0,208.28,128a48.12,48.12,0,0,0,19.26.84" transform="translate(0)"/><path class="cls-1" d="M46.48,127.85a49.16,49.16,0,0,1-17.43-7,61.71,61.71,0,0,1-14.6-13.08A66.11,66.11,0,0,1,4.28,90.51,58.27,58.27,0,0,1,.09,71C8.79,63.57,20.3,56.9,33.83,51.23A252.27,252.27,0,0,1,80,37.35a339.25,339.25,0,0,1,53.11-6.51,319.65,319.65,0,0,1,54,2.1,132,132,0,0,1-.25,20.92,142.89,142.89,0,0,1-3.31,20.42,100.71,100.71,0,0,1-5.77,17.44,43.38,43.38,0,0,1-7.62,12.1,223.62,223.62,0,0,0-35.49-1.16,237.45,237.45,0,0,0-34.89,4.12,178.09,178.09,0,0,0-30.56,8.67C60.2,119,52.44,123.18,46.48,127.85Z" transform="translate(0)"/><path class="cls-1" d="M78.73,112.11a41.39,41.39,0,0,1-11.12-10.36,83.08,83.08,0,0,1-9.54-16,111.93,111.93,0,0,1-6.86-19.39A102.54,102.54,0,0,1,48.1,45.87" transform="translate(0)"/><path class="cls-1" d="M122.81,103.48c-.66-2.93-1.39-7.12-2.12-12.2s-1.48-11.1-2.19-17.58-1.39-13.49-2-20.56-1.11-14.22-1.51-21" transform="translate(0)"/><path class="cls-1" d="M170.19,103.82a43.38,43.38,0,0,0,7.62-12.1,100.71,100.71,0,0,0,5.77-17.44,142.89,142.89,0,0,0,3.31-20.42,132,132,0,0,0,.25-20.92c17.41,2.23,32.65,5.86,45.34,10.55s22.56,10.3,29.7,16.64,11.27,13.16,12.41,20.41-.77,14.61-5.92,22.11a43.66,43.66,0,0,1-2.09,17.92,39.16,39.16,0,0,1-22.74,23.9,43.51,43.51,0,0,1-18,3c3.26-4.81,4.3-9.58,3.34-14.12s-4-8.92-8.86-12.83-11.68-7.43-20.09-10.27A146.38,146.38,0,0,0,170.19,103.82Z" transform="translate(0)"/><path class="cls-1" d="M208.11,113.27a47.9,47.9,0,0,0,15.2-10,66.09,66.09,0,0,0,11.91-15.59,73.57,73.57,0,0,0,7.38-19,65.31,65.31,0,0,0,1.61-20.19" transform="translate(0)"/><path class="cls-1" d="M227.54,128.83a52.75,52.75,0,0,0,18.75-6.72A54.82,54.82,0,0,0,261,109.4a52.73,52.73,0,0,0,9.2-16.84,48,48,0,0,0,2.24-19.11" transform="translate(0)"/></g><path class="cls-1" d="M161.37,108c-2.91-.31-5.91-.63-10.65-.85-1.66-.08-3.87-.15-5.54-.18s-3.94,0-5.63,0-4,.09-5.67.17-4,.19-5.65.33-3.93.3-5.61.5-3.87.43-5.52.65-3.76.54-5.37.8c-3.87.61-8.7,1.62-10.18,2s-3.38.78-4.81,1.18c-2.52.7-5.86,1.69-8.35,2.51-1.11.36-2.57.88-3.64,1.32s-2.23.89-3.17,1.3-1.88.87-2.68,1.25-1.74.89-2.46,1.31c-.35.21-.83.48-1.17.71s-.84.56-1.19.82a31.43,31.43,0,0,1-5.84,3.58,32.33,32.33,0,0,1-6.62,2.28,34.55,34.55,0,0,1-7.29.86,39.63,39.63,0,0,1-7.85-.68c6-4.67,13.72-8.85,22.77-12.4a178.09,178.09,0,0,1,30.56-8.67,237.45,237.45,0,0,1,34.89-4.12,223.62,223.62,0,0,1,35.49,1.16,157.14,157.14,0,0,1,24.91,4.78,86.86,86.86,0,0,1,18.63,7.48,38.65,38.65,0,0,1,11.67,9.46,17.9,17.9,0,0,1,4.13,10.76A51,51,0,0,1,210,134a49.64,49.64,0,0,1-16.44-9A47.35,47.35,0,0,1,182,110.7a45.41,45.41,0,0,1-5.12-18h0a45.15,45.15,0,0,0,.79,5.46c.19.78.43,1.83.68,2.59a37.14,37.14,0,0,0,1.4,3.82c.28.62.64,1.45,1,2,.63,1.12,1.5,2.61,2.24,3.65a27.4,27.4,0,0,0,1.93,2.35c.26.28.61.63.88.89s.57.5.82.71l.24.2-.19-.09c-.69-.37-1.64-.81-2.36-1.11s-1.94-.74-2.79-1-2.16-.69-3.1-1-2.4-.62-3.43-.88c-1.23-.31-2.89-.64-4.13-.88s-3.11-.53-4.44-.76S162.87,108.17,161.37,108Z" transform="translate(0)"/></g><path class="cls-1" d="M161.37,108c-2.91-.31-5.91-.63-10.65-.85-1.66-.08-3.87-.15-5.54-.18s-3.94,0-5.63,0-4,.09-5.67.17-4,.19-5.65.33-3.93.3-5.61.5-3.87.43-5.52.65-3.76.54-5.37.8c-3.87.61-8.7,1.62-10.18,2s-3.38.78-4.81,1.18c-2.52.7-5.86,1.69-8.35,2.51-1.11.36-2.57.88-3.64,1.32s-2.23.89-3.17,1.3-1.88.87-2.68,1.25-1.74.89-2.46,1.31c-.35.21-.83.48-1.17.71s-.84.56-1.19.82a31.43,31.43,0,0,1-5.84,3.58,32.33,32.33,0,0,1-6.62,2.28,34.55,34.55,0,0,1-7.29.86,39.63,39.63,0,0,1-7.85-.68c6-4.67,13.72-8.85,22.77-12.4a178.09,178.09,0,0,1,30.56-8.67,237.45,237.45,0,0,1,34.89-4.12,223.62,223.62,0,0,1,35.49,1.16,157.14,157.14,0,0,1,24.91,4.78,86.86,86.86,0,0,1,18.63,7.48,38.65,38.65,0,0,1,11.67,9.46,17.9,17.9,0,0,1,4.13,10.76A51,51,0,0,1,210,134a49.64,49.64,0,0,1-16.44-9A47.35,47.35,0,0,1,182,110.7a45.41,45.41,0,0,1-5.12-18h0a45.15,45.15,0,0,0,.79,5.46c.19.78.43,1.83.68,2.59a37.14,37.14,0,0,0,1.4,3.82c.28.62.64,1.45,1,2,.63,1.12,1.5,2.61,2.24,3.65a27.4,27.4,0,0,0,1.93,2.35c.26.28.61.63.88.89s.57.5.82.71l.24.2-.19-.09c-.69-.37-1.64-.81-2.36-1.11s-1.94-.74-2.79-1-2.16-.69-3.1-1-2.4-.62-3.43-.88c-1.23-.31-2.89-.64-4.13-.88s-3.11-.53-4.44-.76S162.87,108.17,161.37,108Z" transform="translate(0)"/></g><g class="cls-2"><g class="cls-8"><g class="cls-2"><path class="cls-1" d="M163.65,7.18a47.2,47.2,0,0,0-7.33,12.36,103.85,103.85,0,0,0-5.45,17.05,141.16,141.16,0,0,0-3.13,19.6,132.88,132.88,0,0,0-.32,20.12A71,71,0,0,1,162,79.49a33.7,33.7,0,0,1,9.95,5.16,12.54,12.54,0,0,1,4.64,6.5,9.27,9.27,0,0,1-1.27,7.24,43.42,43.42,0,0,1,2.45-17.94,39.19,39.19,0,0,1,23.09-23.31,43.7,43.7,0,0,1,17.79-2.69c3.16-5.18,4.15-10.31,3.17-15.2s-4-9.63-8.8-13.86-11.53-8.07-19.8-11.18A135.44,135.44,0,0,0,163.65,7.18Z" transform="translate(0)"/><path class="cls-1" d="M218.64,54.45a43.7,43.7,0,0,0-17.79,2.69,39.19,39.19,0,0,0-23.09,23.31,43.42,43.42,0,0,0-2.45,17.94,22.41,22.41,0,0,1-7.1,6.87,53.86,53.86,0,0,1-11.56,5.53,92.28,92.28,0,0,1-14.73,3.76,113,113,0,0,1-16.69,1.58c-.38-6.36-.84-11.85-1.36-16.32a84.07,84.07,0,0,0-1.67-10.15c-.59-2.27-1.19-3.4-1.77-3.27s-1.14,1.51-1.65,4.27a215.61,215.61,0,0,0,32.87-3.16,177.42,177.42,0,0,0,29.16-7.58A108.52,108.52,0,0,0,204,68.66C210.47,64.36,215.5,59.57,218.64,54.45Z" transform="translate(0)"/><path class="cls-1" d="M197.08,72.77a25.08,25.08,0,0,0-13.4-.87A20.88,20.88,0,0,0,173.09,78a29.54,29.54,0,0,0-6.67,12.14,49.22,49.22,0,0,0-1.63,17.11" transform="translate(0)"/><path class="cls-1" d="M161.89,85.43c-2.4-2.41-4.62-3.46-6.58-3.28s-3.65,1.59-5,4.09A31.65,31.65,0,0,0,147.39,97a90.73,90.73,0,0,0-.28,16.53" transform="translate(0)"/><path class="cls-1" d="M147.42,76.31a81.46,81.46,0,0,0,2.69,17,31,31,0,0,0,5.14,10.9c2.05,2.53,4.4,3.87,6.92,3.87s5.25-1.35,8-4.23a146.38,146.38,0,0,1,30.05,6.39c8.41,2.84,15.18,6.33,20.09,10.27s7.88,8.25,8.86,12.83-.08,9.31-3.34,14.12A50.18,50.18,0,0,1,207.22,143a55.67,55.67,0,0,1-26.94-26.17,50.14,50.14,0,0,1-5-18.4,9.27,9.27,0,0,0,1.27-7.24,12.54,12.54,0,0,0-4.64-6.5A33.7,33.7,0,0,0,162,79.49,71,71,0,0,0,147.42,76.31Z" transform="translate(0)"/><path class="cls-1" d="M151.58,97.63a82.46,82.46,0,0,1,16.71,3.56A38.06,38.06,0,0,1,179.65,107a14,14,0,0,1,5.27,7.28,10.3,10.3,0,0,1-1.52,8.1" transform="translate(0)"/><path class="cls-1" d="M159.71,107.61a110.31,110.31,0,0,1,22.23,4.69,50.27,50.27,0,0,1,15,7.59c3.68,2.9,6,6.12,6.82,9.53s.12,7-2.22,10.57" transform="translate(0)"/><path class="cls-1" d="M175.31,98.39a50.14,50.14,0,0,0,5,18.4A55.67,55.67,0,0,0,207.22,143a50.18,50.18,0,0,0,18.63,4.47c-3.22,4.77-8.37,9.24-15,13.26a116.63,116.63,0,0,1-23.66,10.56,197.57,197.57,0,0,1-29.7,7.18,240.49,240.49,0,0,1-33.45,3.09,89.42,89.42,0,0,0,1.3-10.89c.33-4.61.55-10.06.66-16s.1-12.38,0-18.93-.37-13.19-.75-19.57a113,113,0,0,0,16.69-1.58,92.28,92.28,0,0,0,14.73-3.76,53.86,53.86,0,0,0,11.56-5.53A22.41,22.41,0,0,0,175.31,98.39Z" transform="translate(0)"/><path class="cls-1" d="M183.4,122.34a25.76,25.76,0,0,1-8.18,7.69A62.87,62.87,0,0,1,162,136.2a107.34,107.34,0,0,1-16.84,4.21,132.1,132.1,0,0,1-19.06,1.79" transform="translate(0)"/><path class="cls-1" d="M201.56,140c-2.32,3.59-6.09,6.95-11,10A84.88,84.88,0,0,1,173,158a144.17,144.17,0,0,1-22.24,5.45,177.39,177.39,0,0,1-25.12,2.34" transform="translate(0)"/><path class="cls-1" d="M164.79,107.28a70.42,70.42,0,0,0,4.05,19,76.2,76.2,0,0,0,8.73,17.17,63.49,63.49,0,0,0,12.11,13.4,40.66,40.66,0,0,0,14.12,7.72" transform="translate(0)"/><path class="cls-1" d="M147.11,113.51a148.67,148.67,0,0,0,2.56,19.39,153.2,153.2,0,0,0,4.81,18.39,99.34,99.34,0,0,0,6.33,15.22,37,37,0,0,0,7.11,9.94" transform="translate(0)"/><path class="cls-1" d="M170.19,103.82a43.38,43.38,0,0,0,7.62-12.1,100.71,100.71,0,0,0,5.77-17.44,142.89,142.89,0,0,0,3.31-20.42,132,132,0,0,0,.25-20.92c17.41,2.23,32.65,5.86,45.34,10.55s22.56,10.3,29.7,16.64,11.27,13.16,12.41,20.41-.77,14.61-5.92,22.11a43.66,43.66,0,0,1-2.09,17.92,39.16,39.16,0,0,1-22.74,23.9,43.51,43.51,0,0,1-18,3c3.26-4.81,4.3-9.58,3.34-14.12s-4-8.92-8.86-12.83-11.68-7.43-20.09-10.27A146.38,146.38,0,0,0,170.19,103.82Z" transform="translate(0)"/><path class="cls-1" d="M225.85,147.43a43.51,43.51,0,0,0,18-3,39.16,39.16,0,0,0,22.74-23.9,43.66,43.66,0,0,0,2.09-17.92c-5.08,7.38-13,14.26-23,20.43a174.08,174.08,0,0,1-35.27,16,282.19,282.19,0,0,1-43.73,10.8,342.38,342.38,0,0,1-49,4.59c.35,6.18.79,11.57,1.28,16A97.6,97.6,0,0,0,120.6,181c.57,2.48,1.17,3.86,1.75,4s1.17-1,1.7-3.52a240.49,240.49,0,0,0,33.45-3.09,197.57,197.57,0,0,0,29.7-7.18,116.63,116.63,0,0,0,23.66-10.56C217.48,156.67,222.63,152.2,225.85,147.43Z" transform="translate(0)"/><path class="cls-1" d="M203.8,164.54a24.26,24.26,0,0,0,13.44.35,21.09,21.09,0,0,0,10.32-6.65,30.63,30.63,0,0,0,6.26-12.37,50.51,50.51,0,0,0,1.3-16.91" transform="translate(0)"/><path class="cls-1" d="M167.92,176.45c2.42,2.21,4.62,3,6.54,2.58s3.53-2.07,4.8-4.77a35.47,35.47,0,0,0,2.65-11A95.49,95.49,0,0,0,182,147" transform="translate(0)"/></g><path class="cls-1" d="M176.83,92.67a45.41,45.41,0,0,0,5.12,18A47.35,47.35,0,0,0,193.56,125,49.64,49.64,0,0,0,210,134a51,51,0,0,0,19.53,2.31,15.85,15.85,0,0,1-.19,2.74,17.82,17.82,0,0,1-.67,2.78,21.29,21.29,0,0,1-1.16,2.8,25.15,25.15,0,0,1-1.66,2.81c-3.22,4.77-8.37,9.24-15,13.26a116.63,116.63,0,0,1-23.66,10.56,197.57,197.57,0,0,1-29.7,7.18,240.49,240.49,0,0,1-33.45,3.09,89.42,89.42,0,0,0,1.3-10.89c.33-4.61.55-10.06.66-16s.1-12.38,0-18.93-.37-13.19-.75-19.57a113,113,0,0,0,16.69-1.58,92.28,92.28,0,0,0,14.73-3.76,53.86,53.86,0,0,0,11.56-5.53,22.41,22.41,0,0,0,7.1-6.87,13.37,13.37,0,0,0,.75-1.45,10.2,10.2,0,0,0,.49-1.44,9,9,0,0,0,.26-1.42A9.52,9.52,0,0,0,176.83,92.67Z" transform="translate(0)"/></g><path class="cls-1" d="M176.83,92.67a45.41,45.41,0,0,0,5.12,18A47.35,47.35,0,0,0,193.56,125,49.64,49.64,0,0,0,210,134a51,51,0,0,0,19.53,2.31,15.85,15.85,0,0,1-.19,2.74,17.82,17.82,0,0,1-.67,2.78,21.29,21.29,0,0,1-1.16,2.8,25.15,25.15,0,0,1-1.66,2.81c-3.22,4.77-8.37,9.24-15,13.26a116.63,116.63,0,0,1-23.66,10.56,197.57,197.57,0,0,1-29.7,7.18,240.49,240.49,0,0,1-33.45,3.09,89.42,89.42,0,0,0,1.3-10.89c.33-4.61.55-10.06.66-16s.1-12.38,0-18.93-.37-13.19-.75-19.57a113,113,0,0,0,16.69-1.58,92.28,92.28,0,0,0,14.73-3.76,53.86,53.86,0,0,0,11.56-5.53,22.41,22.41,0,0,0,7.1-6.87,13.37,13.37,0,0,0,.75-1.45,10.2,10.2,0,0,0,.49-1.44,9,9,0,0,0,.26-1.42A9.52,9.52,0,0,0,176.83,92.67Z" transform="translate(0)"/></g><g class="cls-2"><g class="cls-9"><g class="cls-2"><path class="cls-1" d="M46.48,127.85a49.16,49.16,0,0,1-17.43-7,61.71,61.71,0,0,1-14.6-13.08A66.11,66.11,0,0,1,4.28,90.51,58.27,58.27,0,0,1,.09,71C8.79,63.57,20.3,56.9,33.83,51.23A252.27,252.27,0,0,1,80,37.35a339.25,339.25,0,0,1,53.11-6.51,319.65,319.65,0,0,1,54,2.1,132,132,0,0,1-.25,20.92,142.89,142.89,0,0,1-3.31,20.42,100.71,100.71,0,0,1-5.77,17.44,43.38,43.38,0,0,1-7.62,12.1,223.62,223.62,0,0,0-35.49-1.16,237.45,237.45,0,0,0-34.89,4.12,178.09,178.09,0,0,0-30.56,8.67C60.2,119,52.44,123.18,46.48,127.85Z" transform="translate(0)"/><path class="cls-1" d="M23.79,117.07c7.4-6,17.1-11.3,28.46-15.84A220.77,220.77,0,0,1,90.82,90.12,295.32,295.32,0,0,1,135,84.86,278.27,278.27,0,0,1,180,86.39" transform="translate(0)"/><path class="cls-1" d="M7.08,96.6c8.37-7,19.42-13.19,32.39-18.5a246.42,246.42,0,0,1,44.2-13A330.85,330.85,0,0,1,134.45,59a312.76,312.76,0,0,1,51.65,1.87" transform="translate(0)"/><path class="cls-1" d="M78.73,112.11a41.39,41.39,0,0,1-11.12-10.36,83.08,83.08,0,0,1-9.54-16,111.93,111.93,0,0,1-6.86-19.39A102.54,102.54,0,0,1,48.1,45.87" transform="translate(0)"/><path class="cls-1" d="M122.81,103.48c-.66-2.93-1.39-7.12-2.12-12.2s-1.48-11.1-2.19-17.58-1.39-13.49-2-20.56-1.11-14.22-1.51-21" transform="translate(0)"/><path class="cls-1" d="M170.19,103.82a43.38,43.38,0,0,0,7.62-12.1,100.71,100.71,0,0,0,5.77-17.44,142.89,142.89,0,0,0,3.31-20.42,132,132,0,0,0,.25-20.92c17.41,2.23,32.65,5.86,45.34,10.55s22.56,10.3,29.7,16.64,11.27,13.16,12.41,20.41-.77,14.61-5.92,22.11a43.66,43.66,0,0,1-2.09,17.92,39.16,39.16,0,0,1-22.74,23.9,43.51,43.51,0,0,1-18,3c3.26-4.81,4.3-9.58,3.34-14.12s-4-8.92-8.86-12.83-11.68-7.43-20.09-10.27A146.38,146.38,0,0,0,170.19,103.82Z" transform="translate(0)"/><path class="cls-1" d="M180,86.39a181.88,181.88,0,0,1,37.88,8.25c10.54,3.65,19,8.13,25,13.17s9.67,10.51,10.75,16.32S253.24,135.9,249,142" transform="translate(0)"/><path class="cls-1" d="M186.1,60.84c16.65,2.06,31.23,5.42,43.38,9.77S251.11,80.18,258,86.08s10.86,12.29,12,19.06-.67,13.67-5.59,20.7" transform="translate(0)"/><path class="cls-1" d="M208.11,113.27a47.9,47.9,0,0,0,15.2-10,66.09,66.09,0,0,0,11.91-15.59,73.57,73.57,0,0,0,7.38-19,65.31,65.31,0,0,0,1.61-20.19" transform="translate(0)"/><path class="cls-1" d="M227.54,128.83a52.75,52.75,0,0,0,18.75-6.72A54.82,54.82,0,0,0,261,109.4a52.73,52.73,0,0,0,9.2-16.84,48,48,0,0,0,2.24-19.11" transform="translate(0)"/><path class="cls-1" d="M225.85,147.43a43.51,43.51,0,0,0,18-3,39.16,39.16,0,0,0,22.74-23.9,43.66,43.66,0,0,0,2.09-17.92c-5.08,7.38-13,14.26-23,20.43a174.08,174.08,0,0,1-35.27,16,282.19,282.19,0,0,1-43.73,10.8,342.38,342.38,0,0,1-49,4.59c.35,6.18.79,11.57,1.28,16A97.6,97.6,0,0,0,120.6,181c.57,2.48,1.17,3.86,1.75,4s1.17-1,1.7-3.52a240.49,240.49,0,0,0,33.45-3.09,197.57,197.57,0,0,0,29.7-7.18,116.63,116.63,0,0,0,23.66-10.56C217.48,156.67,222.63,152.2,225.85,147.43Z" transform="translate(0)"/><path class="cls-1" d="M249,142c-4.17,6-10.72,11.59-19.08,16.62a148.25,148.25,0,0,1-29.65,13.16,246.53,246.53,0,0,1-37,8.92,300.48,300.48,0,0,1-41.55,3.83" transform="translate(0)"/><path class="cls-1" d="M264.35,125.84c-4.84,6.93-12.38,13.39-22,19.18a168.44,168.44,0,0,1-33.81,15.12,278,278,0,0,1-42,10.2,336.68,336.68,0,0,1-47.09,4.37" transform="translate(0)"/><path class="cls-1" d="M203.8,164.54a24.26,24.26,0,0,0,13.44.35,21.09,21.09,0,0,0,10.32-6.65,30.63,30.63,0,0,0,6.26-12.37,50.51,50.51,0,0,0,1.3-16.91" transform="translate(0)"/><path class="cls-1" d="M167.92,176.45c2.42,2.21,4.62,3,6.54,2.58s3.53-2.07,4.8-4.77a35.47,35.47,0,0,0,2.65-11A95.49,95.49,0,0,0,182,147" transform="translate(0)"/><path class="cls-1" d="M.09,71A45,45,0,0,1,2.93,53a34.44,34.44,0,0,1,9-13.21,31.67,31.67,0,0,1,13.59-7.26,37.43,37.43,0,0,1,16.82-.18c5.83-5,13.44-9.46,22.3-13.23a162.49,162.49,0,0,1,30-9.17,213,213,0,0,1,34.23-4.24,200.81,200.81,0,0,1,34.86,1.43c2.72-3.1,5.41-4.74,7.95-5s5,.77,7.1,3.06,4,5.85,5.46,10.51a78,78,0,0,1,3,17.23,319.65,319.65,0,0,0-54-2.1A339.25,339.25,0,0,0,80,37.35,252.27,252.27,0,0,0,33.83,51.23C20.3,56.9,8.79,63.57.09,71Z" transform="translate(0)"/><path class="cls-1" d="M5.3,48.05c8.28-7.21,19.22-13.65,32.06-19.12A235.5,235.5,0,0,1,81.11,15.56,314,314,0,0,1,131.4,9.33a296.52,296.52,0,0,1,51.17,2.09" transform="translate(0)"/><path class="cls-1" d="M20.51,34.26c7.26-6.32,16.79-12,28-16.74A203.33,203.33,0,0,1,86.38,5.86,269,269,0,0,1,129.85.46,254,254,0,0,1,174.1,2.29" transform="translate(0)"/><path class="cls-1" d="M48.1,45.87a63.37,63.37,0,0,1,1.39-17.56,27.17,27.17,0,0,1,5.38-11.48,12.31,12.31,0,0,1,8.43-4.5c3.21-.24,6.79.8,10.59,3.28" transform="translate(0)"/><path class="cls-1" d="M115,32.11c-.39-6.8-.62-12.61-.71-17.29s0-8.19.18-10.48.53-3.29,1-2.95,1,2,1.68,5.18" transform="translate(0)"/><path class="cls-1" d="M187.14,32.94a78,78,0,0,0-3-17.23c-1.45-4.66-3.31-8.21-5.46-10.51s-4.54-3.35-7.1-3.06-5.23,1.94-7.95,5a135.44,135.44,0,0,1,29.56,7c8.27,3.11,14.95,6.91,19.8,11.18s7.81,8.92,8.8,13.86,0,10-3.17,15.2a50.34,50.34,0,0,1,18.27,4.49,55.62,55.62,0,0,1,26.58,25.58,50.09,50.09,0,0,1,5.18,18.13c5.15-7.5,7-15,5.92-22.11s-5.37-14.16-12.41-20.41-17.15-12-29.7-16.64S204.55,35.17,187.14,32.94Z" transform="translate(0)"/><path class="cls-1" d="M182.57,11.42c16.51,2.17,31,5.7,43,10.24s21.47,10,28.28,16.14,10.81,12.78,11.95,19.81-.61,14.19-5.45,21.47" transform="translate(0)"/><path class="cls-1" d="M174.1,2.29a169.23,169.23,0,0,1,37.34,9c10.4,3.94,18.74,8.75,24.74,14.15s9.59,11.24,10.69,17.44-.31,12.55-4.42,19" transform="translate(0)"/><path class="cls-1" d="M244.21,48.47a46.63,46.63,0,0,0-4.7-17.42,31.41,31.41,0,0,0-9.76-11.56,26.37,26.37,0,0,0-13.33-4.79A32.76,32.76,0,0,0,201,17.55" transform="translate(0)"/><path class="cls-1" d="M272.45,73.45A43.73,43.73,0,0,0,267,55.7a42.27,42.27,0,0,0-11.68-13.22A44.17,44.17,0,0,0,239.15,35a48.2,48.2,0,0,0-19-.58" transform="translate(0)"/><path class="cls-1" d="M268.67,102.65a50.09,50.09,0,0,0-5.18-18.13,55.62,55.62,0,0,0-26.58-25.58,50.34,50.34,0,0,0-18.27-4.49c-3.14,5.12-8.17,9.91-14.65,14.21a108.52,108.52,0,0,1-23.18,11.26,177.42,177.42,0,0,1-29.16,7.58,215.61,215.61,0,0,1-32.87,3.16,101.31,101.31,0,0,0-1.22,11.17c-.31,4.58-.51,9.92-.61,15.67s-.08,11.92,0,18.19.36,12.66.71,18.83a342.38,342.38,0,0,0,49-4.59,282.19,282.19,0,0,0,43.73-10.8,174.08,174.08,0,0,0,35.27-16C255.7,116.91,263.59,110,268.67,102.65Z" transform="translate(0)"/><path class="cls-1" d="M260.37,79.08C255.59,86.27,248.14,93,238.67,99a162.67,162.67,0,0,1-33.47,15.62,264.67,264.67,0,0,1-41.62,10.49,319.13,319.13,0,0,1-46.68,4.41" transform="translate(0)"/><path class="cls-1" d="M242.45,61.85c-4.06,6.37-10.48,12.31-18.68,17.64A138.65,138.65,0,0,1,194.62,93.4a225,225,0,0,1-36.41,9.35,273,273,0,0,1-40.92,3.91" transform="translate(0)"/><path class="cls-1" d="M235.12,129A70.76,70.76,0,0,0,231,110.51a76.37,76.37,0,0,0-8.48-16.66,63.7,63.7,0,0,0-11.69-13.16,42.08,42.08,0,0,0-13.78-7.92" transform="translate(0)"/><path class="cls-1" d="M182,147a151.19,151.19,0,0,0-2.53-18.68,155.32,155.32,0,0,0-4.59-17.72,104.52,104.52,0,0,0-6.07-14.92,41.07,41.07,0,0,0-6.94-10.22" transform="translate(0)"/></g><path class="cls-1" d="M261.55,130.51c-1,1.52-2.53,3.44-3.68,4.86s-2.62,3.13-3.84,4.39c-1.91,2-4.54,4.52-6.58,6.37-1.37,1.25-3.28,2.83-4.76,3.93s-3.49,2.63-5,3.68c-2,1.38-4.77,3.21-6.91,4.42-1.95,1.1-4.52,2.64-6.52,3.63-1.81.9-4.2,2.13-6,3-2,.93-4.65,2.15-6.69,2.95-3.93,1.54-9.2,3.49-13.18,4.88-2.11.74-5,1.58-7.1,2.21s-5,1.44-7.18,2c-4.36,1.06-10.19,2.43-14.59,3.29-2.26.44-5.29,1-7.56,1.35s-5.36.8-7.65,1.15-5.45.69-7.79.94-5.52.55-7.89.73-5.6.37-8,.52-5.67.21-8.1.3c-.45,0-.9-.71-1.35-2.11a44.24,44.24,0,0,1-1.3-6.08c-.42-2.63-.81-5.86-1.17-9.61s-.67-8-.94-12.73c-.35-6.17-.59-12.55-.71-18.83s-.13-12.44,0-18.19.3-11.09.61-15.67a101.31,101.31,0,0,1,1.22-11.17,215.61,215.61,0,0,0,32.87-3.16,177.42,177.42,0,0,0,29.16-7.58A108.52,108.52,0,0,0,204,68.66c6.48-4.3,11.51-9.09,14.65-14.21a27.68,27.68,0,0,0,1.6-3,23,23,0,0,0,1.12-3,20.09,20.09,0,0,0,.64-3,19.74,19.74,0,0,0,.17-3A20.65,20.65,0,0,0,218,30.86,39.68,39.68,0,0,0,206.5,20.61a82.23,82.23,0,0,0-18.36-8.15,144,144,0,0,0-24.49-5.28,200.81,200.81,0,0,0-34.86-1.43A213,213,0,0,0,94.56,10a162.49,162.49,0,0,0-30,9.17c-8.86,3.77-16.47,8.22-22.3,13.23a40.06,40.06,0,0,0-8.57-.86,34.42,34.42,0,0,0-8,1,32.43,32.43,0,0,0-7.19,2.68,31.36,31.36,0,0,0-6.25,4.26c2.31-2,5.47-4.49,7.9-6.28,2.1-1.55,5-3.49,7.2-4.84,3.79-2.3,9-5.1,12.92-7.12,2.28-1.18,5.42-2.48,7.74-3.53,2.14-1,5.05-2.08,7.24-2.9,2.35-.88,5.5-2,7.89-2.78s5.51-1.78,7.91-2.42,5.54-1.52,7.93-2.11,5.71-1.39,8.18-1.86c5-1,11.65-2.13,16.66-2.92,2.54-.4,6-.78,8.52-1.06s6-.6,8.6-.79,6.06-.36,8.66-.52,6.12-.22,8.75-.23c5.23,0,12.21.2,17.44.41,2.66.12,6.21.43,8.87.68s6.36.63,9.07,1.05c5,.76,11.62,1.83,16.54,2.89,2.59.56,6,1.4,8.57,2.09,2.24.59,5.19,1.52,7.42,2.17,2.57.77,5.91,2.07,8.44,3,2,.73,4.69,1.87,6.66,2.77,2.6,1.2,6,2.93,8.56,4.24,1.78.91,4.1,2.27,5.78,3.37,2.72,1.78,6.29,4.26,8.89,6.24,1.48,1.12,3.36,2.73,4.74,4,1.61,1.47,3.71,3.5,5.21,5.11a79.54,79.54,0,0,1,10,13.17c1.69,2.8,3.57,6.77,4.95,9.75.68,1.48,1.37,3.57,1.91,5.12A49.68,49.68,0,0,1,273,71.58c.65,3.19,1.41,7.46,1.76,10.7a79.56,79.56,0,0,1,.25,8.32c0,1.6-.22,3.73-.36,5.32-.18,2-.63,4.61-1,6.57-.3,1.56-.86,3.6-1.24,5.14a60.9,60.9,0,0,1-2.18,6.57,67.59,67.59,0,0,1-3,6.85C265.66,124,263.4,127.77,261.55,130.51Z" transform="translate(0)"/></g><path class="cls-1" d="M261.55,130.51c-1,1.52-2.53,3.44-3.68,4.86s-2.62,3.13-3.84,4.39c-1.91,2-4.54,4.52-6.58,6.37-1.37,1.25-3.28,2.83-4.76,3.93s-3.49,2.63-5,3.68c-2,1.38-4.77,3.21-6.91,4.42-1.95,1.1-4.52,2.64-6.52,3.63-1.81.9-4.2,2.13-6,3-2,.93-4.65,2.15-6.69,2.95-3.93,1.54-9.2,3.49-13.18,4.88-2.11.74-5,1.58-7.1,2.21s-5,1.44-7.18,2c-4.36,1.06-10.19,2.43-14.59,3.29-2.26.44-5.29,1-7.56,1.35s-5.36.8-7.65,1.15-5.45.69-7.79.94-5.52.55-7.89.73-5.6.37-8,.52-5.67.21-8.1.3c-.45,0-.9-.71-1.35-2.11a44.24,44.24,0,0,1-1.3-6.08c-.42-2.63-.81-5.86-1.17-9.61s-.67-8-.94-12.73c-.35-6.17-.59-12.55-.71-18.83s-.13-12.44,0-18.19.3-11.09.61-15.67a101.31,101.31,0,0,1,1.22-11.17,215.61,215.61,0,0,0,32.87-3.16,177.42,177.42,0,0,0,29.16-7.58A108.52,108.52,0,0,0,204,68.66c6.48-4.3,11.51-9.09,14.65-14.21a27.68,27.68,0,0,0,1.6-3,23,23,0,0,0,1.12-3,20.09,20.09,0,0,0,.64-3,19.74,19.74,0,0,0,.17-3A20.65,20.65,0,0,0,218,30.86,39.68,39.68,0,0,0,206.5,20.61a82.23,82.23,0,0,0-18.36-8.15,144,144,0,0,0-24.49-5.28,200.81,200.81,0,0,0-34.86-1.43A213,213,0,0,0,94.56,10a162.49,162.49,0,0,0-30,9.17c-8.86,3.77-16.47,8.22-22.3,13.23a40.06,40.06,0,0,0-8.57-.86,34.42,34.42,0,0,0-8,1,32.43,32.43,0,0,0-7.19,2.68,31.36,31.36,0,0,0-6.25,4.26c2.31-2,5.47-4.49,7.9-6.28,2.1-1.55,5-3.49,7.2-4.84,3.79-2.3,9-5.1,12.92-7.12,2.28-1.18,5.42-2.48,7.74-3.53,2.14-1,5.05-2.08,7.24-2.9,2.35-.88,5.5-2,7.89-2.78s5.51-1.78,7.91-2.42,5.54-1.52,7.93-2.11,5.71-1.39,8.18-1.86c5-1,11.65-2.13,16.66-2.92,2.54-.4,6-.78,8.52-1.06s6-.6,8.6-.79,6.06-.36,8.66-.52,6.12-.22,8.75-.23c5.23,0,12.21.2,17.44.41,2.66.12,6.21.43,8.87.68s6.36.63,9.07,1.05c5,.76,11.62,1.83,16.54,2.89,2.59.56,6,1.4,8.57,2.09,2.24.59,5.19,1.52,7.42,2.17,2.57.77,5.91,2.07,8.44,3,2,.73,4.69,1.87,6.66,2.77,2.6,1.2,6,2.93,8.56,4.24,1.78.91,4.1,2.27,5.78,3.37,2.72,1.78,6.29,4.26,8.89,6.24,1.48,1.12,3.36,2.73,4.74,4,1.61,1.47,3.71,3.5,5.21,5.11a79.54,79.54,0,0,1,10,13.17c1.69,2.8,3.57,6.77,4.95,9.75.68,1.48,1.37,3.57,1.91,5.12A49.68,49.68,0,0,1,273,71.58c.65,3.19,1.41,7.46,1.76,10.7a79.56,79.56,0,0,1,.25,8.32c0,1.6-.22,3.73-.36,5.32-.18,2-.63,4.61-1,6.57-.3,1.56-.86,3.6-1.24,5.14a60.9,60.9,0,0,1-2.18,6.57,67.59,67.59,0,0,1-3,6.85C265.66,124,263.4,127.77,261.55,130.51Z" transform="translate(0)"/></g><g class="cls-2"><g class="cls-10"><g class="cls-2"><path class="cls-1" d="M87.71,88.17A45.92,45.92,0,0,1,85.29,106a35,35,0,0,1-8.5,13.46,31.6,31.6,0,0,1-13.36,7.74,36.57,36.57,0,0,1-17,.65c6-4.67,13.72-8.85,22.77-12.4a178.09,178.09,0,0,1,30.56-8.67,237.45,237.45,0,0,1,34.89-4.12,223.62,223.62,0,0,1,35.49,1.16c-2.77,2.88-5.48,4.23-8,4.23s-4.87-1.34-6.92-3.87a31,31,0,0,1-5.14-10.9,81.46,81.46,0,0,1-2.69-17,104.89,104.89,0,0,0-17-.6,111.55,111.55,0,0,0-16.73,2A84.26,84.26,0,0,0,98.89,82,45.43,45.43,0,0,0,87.71,88.17Z" transform="translate(0)"/><path class="cls-1" d="M103.49,80.33a66.1,66.1,0,0,1-1.08,17.29,29.43,29.43,0,0,1-5,11.8,12.83,12.83,0,0,1-8.13,5.23c-3.17.52-6.74-.27-10.59-2.54" transform="translate(0)"/><path class="cls-1" d="M124.69,76.11c.39,6.59.63,12.29.74,17s.07,8.38-.1,10.88-.46,3.85-.88,3.83-1-1.4-1.64-4.32" transform="translate(0)"/><path class="cls-1" d="M147.42,76.31a81.46,81.46,0,0,0,2.69,17,31,31,0,0,0,5.14,10.9c2.05,2.53,4.4,3.87,6.92,3.87s5.25-1.35,8-4.23a146.38,146.38,0,0,1,30.05,6.39c8.41,2.84,15.18,6.33,20.09,10.27s7.88,8.25,8.86,12.83-.08,9.31-3.34,14.12A50.18,50.18,0,0,1,207.22,143a55.67,55.67,0,0,1-26.94-26.17,50.14,50.14,0,0,1-5-18.4,9.27,9.27,0,0,0,1.27-7.24,12.54,12.54,0,0,0-4.64-6.5A33.7,33.7,0,0,0,162,79.49,71,71,0,0,0,147.42,76.31Z" transform="translate(0)"/><path class="cls-1" d="M165.85,81a47.65,47.65,0,0,0,4.26,17.27,32.16,32.16,0,0,0,9.3,11.88,26.37,26.37,0,0,0,13.1,5.39,31.86,31.86,0,0,0,15.6-2.29" transform="translate(0)"/><path class="cls-1" d="M175.66,88.87a43.89,43.89,0,0,0,5.05,17.78,42.35,42.35,0,0,0,11.41,13.49A43.93,43.93,0,0,0,208.28,128a48.12,48.12,0,0,0,19.26.84" transform="translate(0)"/><path class="cls-1" d="M175.31,98.39a50.14,50.14,0,0,0,5,18.4A55.67,55.67,0,0,0,207.22,143a50.18,50.18,0,0,0,18.63,4.47c-3.22,4.77-8.37,9.24-15,13.26a116.63,116.63,0,0,1-23.66,10.56,197.57,197.57,0,0,1-29.7,7.18,240.49,240.49,0,0,1-33.45,3.09,89.42,89.42,0,0,0,1.3-10.89c.33-4.61.55-10.06.66-16s.1-12.38,0-18.93-.37-13.19-.75-19.57a113,113,0,0,0,16.69-1.58,92.28,92.28,0,0,0,14.73-3.76,53.86,53.86,0,0,0,11.56-5.53A22.41,22.41,0,0,0,175.31,98.39Z" transform="translate(0)"/><path class="cls-1" d="M164.79,107.28a70.42,70.42,0,0,0,4.05,19,76.2,76.2,0,0,0,8.73,17.17,63.49,63.49,0,0,0,12.11,13.4,40.66,40.66,0,0,0,14.12,7.72" transform="translate(0)"/><path class="cls-1" d="M147.11,113.51a148.67,148.67,0,0,0,2.56,19.39,153.2,153.2,0,0,0,4.81,18.39,99.34,99.34,0,0,0,6.33,15.22,37,37,0,0,0,7.11,9.94" transform="translate(0)"/><path class="cls-1" d="M46.48,127.85a49.16,49.16,0,0,1-17.43-7,61.71,61.71,0,0,1-14.6-13.08A66.11,66.11,0,0,1,4.28,90.51,58.27,58.27,0,0,1,.09,71C8.79,63.57,20.3,56.9,33.83,51.23A252.27,252.27,0,0,1,80,37.35a339.25,339.25,0,0,1,53.11-6.51,319.65,319.65,0,0,1,54,2.1,132,132,0,0,1-.25,20.92,142.89,142.89,0,0,1-3.31,20.42,100.71,100.71,0,0,1-5.77,17.44,43.38,43.38,0,0,1-7.62,12.1,223.62,223.62,0,0,0-35.49-1.16,237.45,237.45,0,0,0-34.89,4.12,178.09,178.09,0,0,0-30.56,8.67C60.2,119,52.44,123.18,46.48,127.85Z" transform="translate(0)"/><path class="cls-1" d="M23.79,117.07c7.4-6,17.1-11.3,28.46-15.84A220.77,220.77,0,0,1,90.82,90.12,295.32,295.32,0,0,1,135,84.86,278.27,278.27,0,0,1,180,86.39" transform="translate(0)"/><path class="cls-1" d="M7.08,96.6c8.37-7,19.42-13.19,32.39-18.5a246.42,246.42,0,0,1,44.2-13A330.85,330.85,0,0,1,134.45,59a312.76,312.76,0,0,1,51.65,1.87" transform="translate(0)"/><path class="cls-1" d="M78.73,112.11a41.39,41.39,0,0,1-11.12-10.36,83.08,83.08,0,0,1-9.54-16,111.93,111.93,0,0,1-6.86-19.39A102.54,102.54,0,0,1,48.1,45.87" transform="translate(0)"/><path class="cls-1" d="M122.81,103.48c-.66-2.93-1.39-7.12-2.12-12.2s-1.48-11.1-2.19-17.58-1.39-13.49-2-20.56-1.11-14.22-1.51-21" transform="translate(0)"/><path class="cls-1" d="M170.19,103.82a43.38,43.38,0,0,0,7.62-12.1,100.71,100.71,0,0,0,5.77-17.44,142.89,142.89,0,0,0,3.31-20.42,132,132,0,0,0,.25-20.92c17.41,2.23,32.65,5.86,45.34,10.55s22.56,10.3,29.7,16.64,11.27,13.16,12.41,20.41-.77,14.61-5.92,22.11a43.66,43.66,0,0,1-2.09,17.92,39.16,39.16,0,0,1-22.74,23.9,43.51,43.51,0,0,1-18,3c3.26-4.81,4.3-9.58,3.34-14.12s-4-8.92-8.86-12.83-11.68-7.43-20.09-10.27A146.38,146.38,0,0,0,170.19,103.82Z" transform="translate(0)"/><path class="cls-1" d="M180,86.39a181.88,181.88,0,0,1,37.88,8.25c10.54,3.65,19,8.13,25,13.17s9.67,10.51,10.75,16.32S253.24,135.9,249,142" transform="translate(0)"/><path class="cls-1" d="M186.1,60.84c16.65,2.06,31.23,5.42,43.38,9.77S251.11,80.18,258,86.08s10.86,12.29,12,19.06-.67,13.67-5.59,20.7" transform="translate(0)"/><path class="cls-1" d="M208.11,113.27a47.9,47.9,0,0,0,15.2-10,66.09,66.09,0,0,0,11.91-15.59,73.57,73.57,0,0,0,7.38-19,65.31,65.31,0,0,0,1.61-20.19" transform="translate(0)"/><path class="cls-1" d="M227.54,128.83a52.75,52.75,0,0,0,18.75-6.72A54.82,54.82,0,0,0,261,109.4a52.73,52.73,0,0,0,9.2-16.84,48,48,0,0,0,2.24-19.11" transform="translate(0)"/><path class="cls-1" d="M225.85,147.43a43.51,43.51,0,0,0,18-3,39.16,39.16,0,0,0,22.74-23.9,43.66,43.66,0,0,0,2.09-17.92c-5.08,7.38-13,14.26-23,20.43a174.08,174.08,0,0,1-35.27,16,282.19,282.19,0,0,1-43.73,10.8,342.38,342.38,0,0,1-49,4.59c.35,6.18.79,11.57,1.28,16A97.6,97.6,0,0,0,120.6,181c.57,2.48,1.17,3.86,1.75,4s1.17-1,1.7-3.52a240.49,240.49,0,0,0,33.45-3.09,197.57,197.57,0,0,0,29.7-7.18,116.63,116.63,0,0,0,23.66-10.56C217.48,156.67,222.63,152.2,225.85,147.43Z" transform="translate(0)"/><path class="cls-1" d="M249,142c-4.17,6-10.72,11.59-19.08,16.62a148.25,148.25,0,0,1-29.65,13.16,246.53,246.53,0,0,1-37,8.92,300.48,300.48,0,0,1-41.55,3.83" transform="translate(0)"/><path class="cls-1" d="M264.35,125.84c-4.84,6.93-12.38,13.39-22,19.18a168.44,168.44,0,0,1-33.81,15.12,278,278,0,0,1-42,10.2,336.68,336.68,0,0,1-47.09,4.37" transform="translate(0)"/><path class="cls-1" d="M203.8,164.54a24.26,24.26,0,0,0,13.44.35,21.09,21.09,0,0,0,10.32-6.65,30.63,30.63,0,0,0,6.26-12.37,50.51,50.51,0,0,0,1.3-16.91" transform="translate(0)"/><path class="cls-1" d="M167.92,176.45c2.42,2.21,4.62,3,6.54,2.58s3.53-2.07,4.8-4.77a35.47,35.47,0,0,0,2.65-11A95.49,95.49,0,0,0,182,147" transform="translate(0)"/><path class="cls-1" d="M.09,71A45,45,0,0,1,2.93,53a34.44,34.44,0,0,1,9-13.21,31.67,31.67,0,0,1,13.59-7.26,37.43,37.43,0,0,1,16.82-.18c5.83-5,13.44-9.46,22.3-13.23a162.49,162.49,0,0,1,30-9.17,213,213,0,0,1,34.23-4.24,200.81,200.81,0,0,1,34.86,1.43c2.72-3.1,5.41-4.74,7.95-5s5,.77,7.1,3.06,4,5.85,5.46,10.51a78,78,0,0,1,3,17.23,319.65,319.65,0,0,0-54-2.1A339.25,339.25,0,0,0,80,37.35,252.27,252.27,0,0,0,33.83,51.23C20.3,56.9,8.79,63.57.09,71Z" transform="translate(0)"/><path class="cls-1" d="M5.3,48.05c8.28-7.21,19.22-13.65,32.06-19.12A235.5,235.5,0,0,1,81.11,15.56,314,314,0,0,1,131.4,9.33a296.52,296.52,0,0,1,51.17,2.09" transform="translate(0)"/><path class="cls-1" d="M20.51,34.26c7.26-6.32,16.79-12,28-16.74A203.33,203.33,0,0,1,86.38,5.86,269,269,0,0,1,129.85.46,254,254,0,0,1,174.1,2.29" transform="translate(0)"/><path class="cls-1" d="M48.1,45.87a63.37,63.37,0,0,1,1.39-17.56,27.17,27.17,0,0,1,5.38-11.48,12.31,12.31,0,0,1,8.43-4.5c3.21-.24,6.79.8,10.59,3.28" transform="translate(0)"/><path class="cls-1" d="M115,32.11c-.39-6.8-.62-12.61-.71-17.29s0-8.19.18-10.48.53-3.29,1-2.95,1,2,1.68,5.18" transform="translate(0)"/><path class="cls-1" d="M187.14,32.94a78,78,0,0,0-3-17.23c-1.45-4.66-3.31-8.21-5.46-10.51s-4.54-3.35-7.1-3.06-5.23,1.94-7.95,5a135.44,135.44,0,0,1,29.56,7c8.27,3.11,14.95,6.91,19.8,11.18s7.81,8.92,8.8,13.86,0,10-3.17,15.2a50.34,50.34,0,0,1,18.27,4.49,55.62,55.62,0,0,1,26.58,25.58,50.09,50.09,0,0,1,5.18,18.13c5.15-7.5,7-15,5.92-22.11s-5.37-14.16-12.41-20.41-17.15-12-29.7-16.64S204.55,35.17,187.14,32.94Z" transform="translate(0)"/><path class="cls-1" d="M182.57,11.42c16.51,2.17,31,5.7,43,10.24s21.47,10,28.28,16.14,10.81,12.78,11.95,19.81-.61,14.19-5.45,21.47" transform="translate(0)"/><path class="cls-1" d="M174.1,2.29a169.23,169.23,0,0,1,37.34,9c10.4,3.94,18.74,8.75,24.74,14.15s9.59,11.24,10.69,17.44-.31,12.55-4.42,19" transform="translate(0)"/><path class="cls-1" d="M244.21,48.47a46.63,46.63,0,0,0-4.7-17.42,31.41,31.41,0,0,0-9.76-11.56,26.37,26.37,0,0,0-13.33-4.79A32.76,32.76,0,0,0,201,17.55" transform="translate(0)"/><path class="cls-1" d="M272.45,73.45A43.73,43.73,0,0,0,267,55.7a42.27,42.27,0,0,0-11.68-13.22A44.17,44.17,0,0,0,239.15,35a48.2,48.2,0,0,0-19-.58" transform="translate(0)"/><path class="cls-1" d="M268.67,102.65a50.09,50.09,0,0,0-5.18-18.13,55.62,55.62,0,0,0-26.58-25.58,50.34,50.34,0,0,0-18.27-4.49c-3.14,5.12-8.17,9.91-14.65,14.21a108.52,108.52,0,0,1-23.18,11.26,177.42,177.42,0,0,1-29.16,7.58,215.61,215.61,0,0,1-32.87,3.16,101.31,101.31,0,0,0-1.22,11.17c-.31,4.58-.51,9.92-.61,15.67s-.08,11.92,0,18.19.36,12.66.71,18.83a342.38,342.38,0,0,0,49-4.59,282.19,282.19,0,0,0,43.73-10.8,174.08,174.08,0,0,0,35.27-16C255.7,116.91,263.59,110,268.67,102.65Z" transform="translate(0)"/><path class="cls-1" d="M260.37,79.08C255.59,86.27,248.14,93,238.67,99a162.67,162.67,0,0,1-33.47,15.62,264.67,264.67,0,0,1-41.62,10.49,319.13,319.13,0,0,1-46.68,4.41" transform="translate(0)"/><path class="cls-1" d="M242.45,61.85c-4.06,6.37-10.48,12.31-18.68,17.64A138.65,138.65,0,0,1,194.62,93.4a225,225,0,0,1-36.41,9.35,273,273,0,0,1-40.92,3.91" transform="translate(0)"/><path class="cls-1" d="M235.12,129A70.76,70.76,0,0,0,231,110.51a76.37,76.37,0,0,0-8.48-16.66,63.7,63.7,0,0,0-11.69-13.16,42.08,42.08,0,0,0-13.78-7.92" transform="translate(0)"/><path class="cls-1" d="M182,147a151.19,151.19,0,0,0-2.53-18.68,155.32,155.32,0,0,0-4.59-17.72,104.52,104.52,0,0,0-6.07-14.92,41.07,41.07,0,0,0-6.94-10.22" transform="translate(0)"/></g><path class="cls-1" d="M210,61.87a78.18,78.18,0,0,1,.1,8.1,40.46,40.46,0,0,1-.76,6.12c-.33,1.46-.74,3.41-1.14,4.85-.32,1.16-.82,2.69-1.24,3.83-.54,1.46-1.37,3.38-2,4.79-.52,1.13-1.34,2.58-1.93,3.68a41,41,0,0,1-3.13,4.89,79.51,79.51,0,0,1-5.59,6.8c-1,1-2.28,2.32-3.3,3.27s-2.45,2.15-3.52,3a68.71,68.71,0,0,1-5.85,4.35c-2.47,1.64-5.84,3.72-8.45,5.11-1.72.91-4,2.06-5.78,2.89-1.42.67-3.33,1.49-4.77,2.1-1.66.71-3.9,1.57-5.59,2.19-1.52.57-3.57,1.27-5.11,1.77s-3.91,1.24-5.6,1.73-3.77,1-5.39,1.46-4,1-5.7,1.35-3.94.84-5.63,1.17c-3.83.73-7.77,1.37-11.72,1.89s-8,1-12,1.26c-1.83.15-4.28.3-6.11.4s-4.34.18-6.2.22a.45.45,0,0,0,.32-.16,2.09,2.09,0,0,0,.3-.49,5.44,5.44,0,0,0,.31-.83c.09-.33.19-.72.29-1.17a186.71,186.71,0,0,0,25.56-2.33,151.76,151.76,0,0,0,22.7-5.4,90.07,90.07,0,0,0,18.07-7.94c5.06-3,9-6.38,11.46-10a19.15,19.15,0,0,0,1.27-2.12,14.43,14.43,0,0,0,.88-2.1,12.52,12.52,0,0,0,.52-2.09,11,11,0,0,0,.14-2.06,13.34,13.34,0,0,0-3.15-8.09,29.35,29.35,0,0,0-8.92-7.11,66.64,66.64,0,0,0-14.24-5.62,120.16,120.16,0,0,0-19-3.6,173.31,173.31,0,0,0-27.13-.87,186,186,0,0,0-26.66,3.09,139,139,0,0,0-23.35,6.52,69.76,69.76,0,0,0-17.4,9.33,38.14,38.14,0,0,1-13.32-5.27A47.09,47.09,0,0,1,11.06,81a49.53,49.53,0,0,1-7.78-13A43.48,43.48,0,0,1,.08,53.41a36.67,36.67,0,0,1,.45-7.28,31.26,31.26,0,0,1,1.81-6.47,26.89,26.89,0,0,1,3-5.52,25.59,25.59,0,0,1,4.07-4.48h0c1.22-1,2.81-2.34,4.07-3.27C15.37,25,17.9,23.18,19.89,22c2.88-1.74,6.79-3.91,9.77-5.46,1.9-1,4.53-2.1,6.49-3,1.62-.72,3.84-1.58,5.51-2.2,1.89-.7,4.42-1.63,6.35-2.22s4.33-1.39,6.21-1.88c3.66-1,8.55-2.21,12.25-3C68.41,3.86,71,3.34,72.93,3s4.49-.73,6.42-1,4.58-.6,6.55-.81S90.5.78,92.48.64,97.11.37,99.1.25s4.65-.13,6.65-.18,4.67,0,6.66,0,4.67.18,6.67.26,4.67.35,6.68.5,4.72.49,6.74.76,4.52.66,6.45,1,4.58.79,6.52,1.25c3.51.82,8.16,2,11.63,3,1.82.52,4.19,1.37,6,2,1.55.56,3.6,1.41,5.14,2,1.76.72,4.06,1.83,5.77,2.69,1.38.69,3.19,1.68,4.52,2.46,1.76,1,4,2.51,5.72,3.66,1.18.81,2.71,1.95,3.81,2.87,1.79,1.49,4.1,3.59,5.78,5.22.94.91,2.09,2.25,3,3.23a58.48,58.48,0,0,1,5.61,7.75c.6,1.08,1.48,2.48,2,3.6a77.52,77.52,0,0,1,3.07,7.29,78.38,78.38,0,0,1,2,7.85A34.83,34.83,0,0,1,210,61.87Z" transform="translate(0)"/></g><path class="cls-1" d="M274.8,82.28a101.81,101.81,0,0,1,.13,10.77,54.18,54.18,0,0,1-1,8.14c-.43,1.94-1,4.53-1.49,6.44-.42,1.56-1.08,3.59-1.63,5.1-.71,2-1.78,4.5-2.65,6.38-.69,1.5-1.76,3.42-2.52,4.89a57,57,0,0,1-4.1,6.51,106.6,106.6,0,0,1-7.32,9c-1.26,1.34-3,3.09-4.32,4.34s-3.2,2.87-4.6,4.07a90.74,90.74,0,0,1-7.65,5.78c-3.24,2.18-7.65,4.94-11.07,6.79-2.24,1.21-5.27,2.75-7.56,3.85-1.85.89-4.35,2-6.24,2.8-2.17.93-5.11,2.08-7.32,2.91-2,.75-4.67,1.68-6.68,2.36-2.19.73-5.12,1.64-7.33,2.29s-4.94,1.37-7.05,1.94-5.21,1.3-7.46,1.81-5.16,1.11-7.37,1.54c-5,1-10.18,1.83-15.33,2.53s-10.5,1.27-15.68,1.67c-2.4.19-5.6.4-8,.52s-5.68.25-8.11.3a.56.56,0,0,0,.41-.22,2.21,2.21,0,0,0,.4-.65,7.48,7.48,0,0,0,.4-1.1c.13-.44.25-1,.38-1.56a240.49,240.49,0,0,0,33.45-3.09,197.57,197.57,0,0,0,29.7-7.18,116.63,116.63,0,0,0,23.66-10.56c6.62-4,11.77-8.49,15-13.26a25.15,25.15,0,0,0,1.66-2.81,21.29,21.29,0,0,0,1.16-2.8,17.82,17.82,0,0,0,.67-2.78,15.85,15.85,0,0,0,.19-2.74,17.9,17.9,0,0,0-4.13-10.76,38.65,38.65,0,0,0-11.67-9.46,86.86,86.86,0,0,0-18.63-7.48,157.14,157.14,0,0,0-24.91-4.78,223.62,223.62,0,0,0-35.49-1.16,237.45,237.45,0,0,0-34.89,4.12,178.09,178.09,0,0,0-30.56,8.67c-9,3.55-16.81,7.73-22.77,12.4a49.16,49.16,0,0,1-17.43-7,61.71,61.71,0,0,1-14.6-13.08A66.11,66.11,0,0,1,4.28,90.51,58.27,58.27,0,0,1,.09,71a49.16,49.16,0,0,1,.59-9.68,40.72,40.72,0,0,1,2.37-8.6A36.12,36.12,0,0,1,7,45.39a32.28,32.28,0,0,1,5.33-6h0c1.59-1.31,3.67-3.12,5.32-4.35,2.46-1.84,5.76-4.28,8.37-5.88C29.78,26.91,34.9,24,38.8,22c2.49-1.31,5.93-2.8,8.49-3.95,2.13-1,5-2.1,7.2-2.93,2.48-.94,5.79-2.17,8.32-2.95s5.67-1.85,8.13-2.51c4.79-1.28,11.19-2.94,16-4,2.53-.54,5.9-1.23,8.45-1.63s5.88-1,8.4-1.33,6-.79,8.58-1.07,6-.6,8.6-.79,6.07-.36,8.66-.52,6.09-.17,8.71-.23,6.1,0,8.72.06,6.1.24,8.72.35,6.12.46,8.74.67,6.18.65,8.82,1,5.92.87,8.45,1.29,6,1.06,8.52,1.66c4.6,1.1,10.69,2.71,15.23,4,2.37.69,5.48,1.82,7.8,2.68,2,.76,4.72,1.88,6.73,2.72,2.31,1,5.32,2.44,7.56,3.58,1.8.92,4.17,2.23,5.91,3.27,2.3,1.38,5.29,3.34,7.49,4.88,1.54,1.07,3.54,2.59,5,3.8,2.34,2,5.36,4.78,7.56,7,1.24,1.21,2.74,3,3.89,4.3a78.36,78.36,0,0,1,7.34,10.3c.79,1.44,1.94,3.3,2.62,4.8a98.74,98.74,0,0,1,4,9.69,106.32,106.32,0,0,1,2.6,10.45A47.75,47.75,0,0,1,274.8,82.28Z" transform="translate(0)"/></g></g></g></g></svg>