<svg id="matt" xmlns="http://www.w3.org/2000/svg" viewBox="0 0 2000 2000"><defs><style>.cls-1,.cls-3{fill:none;}.cls-1,.cls-2,.cls-3{stroke:#000;stroke-width:7px;}.cls-1,.cls-2{stroke-miterlimit:10;}.cls-3{stroke-linejoin:round;}</style></defs><path class="cls-1" d="M1146.68,808.41c-12.23-4.19.07-19.1,45.19-40.85,48.83-2.17,67.11,8.88,171.64-12.61a62.31,62.31,0,0,1,42.69,11.33c55.88,39.85,75.91,114.28,72.63,120.2-46.29-38.1-42.45-49.81-142.24-59.89a51.64,51.64,0,0,0-9.55,0c-15.2,1.34-55.1.53-64.3-.13-62-4.43-80.15,3.45-95.81-2.9-5.66-2.29-.58-3.62-6.66-3C1155.28,821,1149.68,809.43,1146.68,808.41Z"/><path class="cls-1" d="M857.09,833.69c.52-45.65-16.54-55.94-72.68-61.54-30.86-3.07-37,.47-83,3.27-35.6-15-86.29-.19-110.76,12-49.25,24.47-42.54,68-33.68,123.48,16.62-48.55,16.79-66.3,42.56-65.82a63.42,63.42,0,0,0,28.5-6.21c11-5.27,34-10.17,99.41-7.65a64.64,64.64,0,0,0,18.69-2C801.93,814.81,854.14,840.93,857.09,833.69Z"/><path class="cls-1" d="M730.68,962.26c68.81-4.9,74.12-12.59,127-22.67-44-28.72-151.24-97.66-190.61.84C666.36,948.47,696.56,959.16,730.68,962.26Z"/><path d="M855.19,906.84c-20-6.79-39.83-13.75-60-19a280.51,280.51,0,0,0-30.55-6.27,177.51,177.51,0,0,0-30.86-1.89,145.42,145.42,0,0,0-30.54,3.85c-.62.14-1.26.26-1.88.41l-1.86.51-3.72,1c-1.26.3-2.47.74-3.69,1.13l-3.68,1.2c-2.43.84-4.81,1.84-7.23,2.73s-4.75,2-7.13,3c-18.85,8.65-36,20.87-52.27,34.28,14.25-15.51,30.82-29.3,49.87-39.19a141.38,141.38,0,0,1,30-11.57,147.17,147.17,0,0,1,31.94-4.41A176,176,0,0,1,765.61,875a234.8,234.8,0,0,1,31,7.57C816.92,889,836.34,897.38,855.19,906.84Z"/><path class="cls-1" d="M1148.28,942.48c122.43-108.72,205.91-34.88,210.14-11.9,2,11-46.28,20.13-51.17,20.13C1234.16,962.26,1195.79,948,1148.28,942.48Z"/><path class="cls-1" d="M1111.73,917.81c76.75-28.54,174.51-96.84,309.73,14.62"/><path class="cls-2" d="M692.23,927.84c0-14.21,3.55-22.94,13.14-32,8.86-8.35,22.23-5.69,35.36-5.69,13.61,0,23.95,3.1,38.69,7.64,9,9,11.83,16.28,11.83,30,0,9.37-4,22.1-9.15,28.66-23.86,3.32-22.39,5.76-40.36,5.76-19.2,0-37.15-2.44-39.14-4.37C700.78,956.12,692.23,947.87,692.23,927.84Z"/><path class="cls-2" d="M1217.09,927.84c0-10.11,10-27.82,15.15-35.65,15.64-5.56,17.11-6.67,34.36-6.67,12.67,0,19-.23,30,1.41,10.14,9.07,19.46,26.24,19.46,40.91,0,7.23-2.61,16.3-5.4,22.49-27.58,2.24-22.71,3.53-42.23,3.55-.33,0-.69,0-1,0-17.75,1.18-18.88,1.12-43.12-.29C1220.52,946.62,1217.09,936.38,1217.09,927.84Z"/><path d="M835.39,1157.19q-2.89,3.06-5.51,6.35c-1.71,2.21-3.37,4.46-4.89,6.8a106.06,106.06,0,0,0-8.11,14.59,100.42,100.42,0,0,0-8.86,31.84c-1.07,10.91-.06,22.11,4.17,32a49.46,49.46,0,0,0,8.5,13.52A51.73,51.73,0,0,0,833,1272.45c9.26,5.46,19.94,8.31,30.75,9.69a133.54,133.54,0,0,0,16.39,1q8.25,0,16.51-.77c2.75-.21,5.49-.58,8.23-.89l4.11-.57c1.31-.19,2.9-.42,4.34-.53l8.41-.65c2.76-.23,5.52-.5,8.29-.79,11.18-1.2,22.45-2.31,33.95-2.23a104.88,104.88,0,0,1,17.28,1.46q2.15.38,4.26.84c.71.14,1.41.31,2.11.47l1.05.25c.37.09.6.12.9.18a45.86,45.86,0,0,0,7.75.64c5.43.08,11-.21,16.63-.41,1.41,0,2.84-.09,4.29-.11l4.24,0c2.76,0,5.52,0,8.29-.14a244,244,0,0,0,33-3.31,148.06,148.06,0,0,0,31.64-8.92,80.46,80.46,0,0,0,14.3-7.67,50.07,50.07,0,0,0,11.67-10.85,37.38,37.38,0,0,0,6.75-14.21,43.71,43.71,0,0,0,.58-16c-1.49-10.79-5.91-21.18-11.33-30.86-2.7-4.87-5.69-9.6-8.87-14.19s-6.51-9.12-10-13.52c3.76,4.16,7.43,8.41,10.9,12.84s6.75,9,9.77,13.79a113.82,113.82,0,0,1,8,15,72,72,0,0,1,5.12,16.39,48.11,48.11,0,0,1,0,17.46,41.08,41.08,0,0,1-7,16.19,55.17,55.17,0,0,1-12.51,12.32,86.43,86.43,0,0,1-15.07,8.61,149.38,149.38,0,0,1-32.81,9.89,224.39,224.39,0,0,1-33.87,3.81c-2.84.11-5.68.18-8.52.19h-4.17c-1.36,0-2.73.06-4.12.12-5.56.21-11.21.53-17,.47a52.78,52.78,0,0,1-9-.74l-1.16-.24-1-.23c-.67-.15-1.33-.31-2-.44-1.33-.28-2.67-.53-4-.76a105.08,105.08,0,0,0-16.19-1.41c-10.95-.14-22,.88-33.15,2-2.81.29-5.63.56-8.46.78L914,1287c-2.53.24-5.44.67-8.24,1s-5.65.62-8.5.79c-5.67.46-11.38.65-17.09.56a138.91,138.91,0,0,1-17.14-1.27,94.67,94.67,0,0,1-16.87-3.84,72.82,72.82,0,0,1-15.85-7.28,56.81,56.81,0,0,1-13.3-11.44,52.11,52.11,0,0,1-8.89-15.08c-4.22-10.93-4.9-22.81-3.34-34.09a100.11,100.11,0,0,1,10.47-32.27A98.52,98.52,0,0,1,835.39,1157.19Z"/><path class="cls-3" d="M989.33,1263.22a40,40,0,0,1-15.64,3.52l-1.17,0c.35-1.17,6.5,3.54,40.36-18.42L1020,1242c1.86-3.26,15.5-4.78,22.36-5.52,17-1.85,35.95,6.57,34.9,7.27l-20.91,4.11a13.77,13.77,0,0,0-3.29,1.13c-6.17,3-23.38,7.47-28.14,7.19l-15.24-.92C1006.83,1253.3,1001.52,1257.75,989.33,1263.22Z"/><path class="cls-3" d="M851.88,1241.6l20.72,3.12a24.21,24.21,0,0,1,6.49,1.91c6.08,2.76,11.73,16.4,61.83,20.13-43.16-4.28-31-5.16-34.18-3.91-1.64.64-7.06,2.76-8.78,2.42l-13.43-2.68a41.42,41.42,0,0,1-11.23-4.12l-25.79-14C846.33,1243.44,849.69,1241.13,851.88,1241.6Z"/><path d="M929,908.64q.88,37.56-1.53,75.12c-.77,12.52-2,25-3.47,37.49-.78,6.23-1.59,12.46-2.64,18.67-.52,3.1-1,6.22-1.53,9.31l-1.77,9.29a308.36,308.36,0,0,1-9.78,36.61l-1.63,4.48c-.28.74-.53,1.49-.83,2.23l-.91,2.21-1.82,4.41c-.62,1.46-1.32,2.89-2,4.34-1.29,2.91-2.83,5.71-4.3,8.54l-2.41,4.13c-.8,1.38-1.69,2.7-2.53,4-3.43,5.35-7.24,10.41-10.59,15.48a40.64,40.64,0,0,0-6.65,16.48c-.16,1.5-.39,3-.5,4.51l-.16,4.59.17,4.62c0,1.54.25,3.09.36,4.63.19,3.11.71,6.18,1.08,9.28s1,6.17,1.44,9.27c-.85-3-1.7-6-2.47-9.07s-1.48-6.1-2-9.22a72.2,72.2,0,0,1-1.35-19c.07-.8.22-1.61.32-2.42s.2-1.62.4-2.41l.6-2.39c.1-.4.19-.81.31-1.2l.42-1.16.83-2.32,1-2.23c.64-1.52,1.49-2.88,2.24-4.32,1.59-2.78,3.31-5.43,5-8.06s3.32-5.23,4.87-7.89A167.37,167.37,0,0,0,902,1093a319.56,319.56,0,0,0,9.2-35.9l1.82-9.13c.59-3,1.06-6.12,1.6-9.18,1.12-6.11,1.88-12.28,2.83-18.43.23-1.54.48-3.07.69-4.61l.59-4.64,1.19-9.26c.42-3.09.71-6.19,1.06-9.29l1.07-9.29C924.74,958.49,926.73,933.59,929,908.64Z"/><path class="cls-1" d="M765.05,1500.89c80.34-54.31,83.08-80.75,158-49.14,22.12,7.15,33.83,5.64,53.43-.38,45.9-21.82,91.32-11.74,192.44,73.48-79.37-5.2-106.23-24.76-211-14.66C837.71,1483.44,767.16,1512.43,765.05,1500.89Z"/><path class="cls-1" d="M765.05,1504.36c36.13,41.34,59.2,73.72,181.11,71.67a98.08,98.08,0,0,1,11.24.47c131.1,13.1,153.56-27,205.53-52.07-149-26.4-140.67-16.55-205-14.24C898.78,1496.19,796.5,1498.86,765.05,1504.36Z"/><path class="cls-1" d="M520.54,586.16c-47.26,76.31-79.62,262.18-35,683.13,6.06,335.94,87,373.21,134.3,442.8,98.93,145.67,220.94,234.16,425.18,205.84,260-36,420.67-236,482-360.16,90.68-183.58,77.44-717.8,68.46-779.89,12.88-200.71-12-195-73.35-273.81C1358.48,293.81,1380.6,256,1316,248c-194.26,26.68-429.42,270.72-612.87,253.61C582,494.58,602.36,503.62,520.54,586.16Z"/><path class="cls-1" d="M1584.28,1434.17c87.55-8.33,115.23-144.35,127.15-308.5,0-47.94,41.69-119.06,0-129.23-17.3-7.07-50,45.73-64.62,66.7-20.52,29.41-48.33,62.61-54.34,164C1592.62,1309.11,1557.4,1428.44,1584.28,1434.17Z"/><path class="cls-1" d="M1663.8,1069.45a247.64,247.64,0,0,1,16.53,185.74"/><path class="cls-1" d="M1621,1193c5.17,13.32,27.41,22.46,16.28,61.27-20.17,18.47-22.81,52.36-28.92,61.26"/><path class="cls-1" d="M442.29,1042c-.14-4.18-10.54,5.58-18.51,71.35a94.13,94.13,0,0,0-.29,20.48c5.42,55.36,20,128.66,6.38,184.61a36,36,0,0,0,1.81,22.3c14.74,35.6,41,80.36,65.31,77.6,6.72-.76-5.51-28.51.68-36.54-19.64-118.52-14.54-135.74-23-224.65C458.06,1109,444.48,1107.68,442.29,1042Z"/><path class="cls-1" d="M471.46,1239.69c-3.76,3.61-10.19,18-10.39,39.38-.29,31.37,7.63,44.49,10.39,48.14"/><path class="cls-1" d="M446.66,1124.45,438.61,1142c-3.27,17.14-.77,41.19.63,58.59,1,12.73,2.15,26,2.68,29.3"/><path class="cls-1" d="M703.14,501.62C331,429,515,1394.3,442.29,1042c-60.46-13-55.93-286-50.68-382,3.85-70.28.74-137.07,69.46-266.08C589,153.72,808,102.49,855.19,87.16,906,70.64,1213.33,3.29,1421.46,118.75c156.31,86.71,105.48,69.87,212.58,213.13,121.18,162.11,69.36,256,95.92,326.43,43.88,116.4-27.26,97.59,4.41,259.47-4.41,86.38-70.57,95.66-132.49,229.75-13.37,59.39,35.41-327.71-27.72-577.63"/><path d="M888.5,940.2c-1.48,3.27-2.67,6.82-3.92,10.45s-2.56,7.36-4.12,11a93.16,93.16,0,0,1-5.4,10.58,99.34,99.34,0,0,1-6.68,9.75c-9.72,12.38-21.66,22.47-34,31.65a416.92,416.92,0,0,1-38.83,24.88c-13.33,7.61-26.93,14.71-40.67,21.51,13.47-7.31,26.78-14.92,39.77-23a412.48,412.48,0,0,0,37.6-26.15c11.86-9.51,23.16-19.88,31.95-32a93.87,93.87,0,0,0,6-9.43,85.08,85.08,0,0,0,4.65-10.08c1.35-3.46,2.46-7,3.55-10.68s2.2-7.43,3.74-11.22Z"/><path d="M1079.9,926.86c3.32,8,6.75,15.93,10.48,23.69a202.44,202.44,0,0,0,12.41,22.53,102.86,102.86,0,0,0,16.2,19.61,98,98,0,0,0,20.9,14.61,188.72,188.72,0,0,0,23.77,10.16c8.16,2.91,16.45,5.48,24.78,8,16.68,4.9,33.49,9.38,50.27,14-16.92-4.05-33.87-8-50.73-12.31-8.43-2.19-16.84-4.49-25.16-7.15a189.86,189.86,0,0,1-24.51-9.52A102.08,102.08,0,0,1,1116.07,996,106.75,106.75,0,0,1,1098.44,976a206.58,206.58,0,0,1-13.53-22.71c-4.07-7.79-7.81-15.7-11.43-23.66Z"/><path d="M677.77,954.86a45,45,0,0,0-30.31,15.94,48.56,48.56,0,0,1,29-22.82Z"/><path d="M688.83,957.26a107,107,0,0,0-26.07,24,110.58,110.58,0,0,1,21.69-29.48Z"/><polygon points="702.22 959.76 688.89 982.7 695.75 957.07 702.22 959.76"/><path d="M720.67,964.55a21,21,0,0,0-9.4,13,24.49,24.49,0,0,1,4.54-18Z"/><path d="M735.73,964.18a1.81,1.81,0,0,0,.09-.31c0-.06,0-.11,0-.16v-.08h0l-.12.08a3.27,3.27,0,0,0-.27.47c-.17.38-.33.79-.49,1.23-.31.86-.59,1.77-.87,2.68s-.54,1.84-.79,2.76-.51,1.86-.68,2.81c-.41-.89-.74-1.81-1.07-2.73s-.65-1.85-1-2.78-.6-1.88-.87-2.87c-.14-.49-.26-1-.38-1.54,0-.29-.1-.56-.12-.92v-.67l0-.16.07-.33c.06-.21.12-.43.19-.64Z"/><path d="M755,963.84a3.55,3.55,0,0,0,0-.46s0,0,0,0,0,0,0,0a1.73,1.73,0,0,0-.08.31c-.05.24-.09.5-.13.77-.08.54-.15,1.1-.21,1.66-.11,1.13-.2,2.27-.27,3.41s-.1,2.28-.08,3.42c0,.56,0,1.13.1,1.69a7.23,7.23,0,0,0,.15.81c.09.25.16.55.44.63-.31.08-.6-.2-.81-.4a6.53,6.53,0,0,1-.59-.71c-.35-.5-.67-1-1-1.54-.6-1-1.14-2.12-1.67-3.2s-1-2.17-1.48-3.29c-.24-.55-.47-1.12-.69-1.7-.11-.29-.22-.59-.32-.92a4.83,4.83,0,0,1-.16-.53,3.86,3.86,0,0,1-.07-.38,1.84,1.84,0,0,1,0-.26,5.27,5.27,0,0,1,0-.68Z"/><path d="M774.12,959.28c-.07-.09-.22-.19-.23-.06s-.06.2-.06.34a4.28,4.28,0,0,0,.14.94,16.85,16.85,0,0,0,.66,2.1,22.51,22.51,0,0,0,.92,2.09,7.09,7.09,0,0,0,1.29,1.9,7.91,7.91,0,0,1-2.42-.57,23.76,23.76,0,0,1-2.33-1,21.79,21.79,0,0,1-2.27-1.29,9.73,9.73,0,0,1-1.16-.89,5.31,5.31,0,0,1-.62-.63,4.49,4.49,0,0,1-.68-1.1Z"/><path d="M665.94,943.74a28,28,0,0,0-5.16-2.1c-1.83-.55-3.81-.92-5.89-1.37a23.67,23.67,0,0,1-6.16-2.07,20.3,20.3,0,0,1-5-3.8,19.52,19.52,0,0,0,5.62,2.15,21.49,21.49,0,0,0,5.84.24c2-.14,4.1-.36,6.32-.35a34.65,34.65,0,0,1,6.75.68Z"/><path d="M669.73,936.05c-4.15-1.54-8.68-2.72-13.17-4.16a49.62,49.62,0,0,1-12.86-5.8,48,48,0,0,0,13.51,2.36c4.58.28,9.22.27,14.08.77Z"/><path d="M673.49,927.4a88.59,88.59,0,0,1-17.71-4,51.91,51.91,0,0,1-8.26-3.7,34,34,0,0,1-7.15-5.33A39.46,39.46,0,0,0,656.62,920a84.37,84.37,0,0,0,17.11.43Z"/><path d="M679.65,920.69a85.74,85.74,0,0,1-24.23-18.11,82.05,82.05,0,0,0,26.65,11.54Z"/><path d="M682.48,911.3a93.82,93.82,0,0,0-17.54-15.75A97.17,97.17,0,0,1,687,906Z"/><path d="M687.76,904.82A149.26,149.26,0,0,0,676.25,890a153.44,153.44,0,0,1,16.46,9.87Z"/><path d="M702.55,901.8a12.78,12.78,0,0,1-5.69-3.22,35.29,35.29,0,0,1-3.63-4l-3.12-4a23.35,23.35,0,0,0-3.47-3.63,23,23,0,0,1,4.62,2.32l4.32,2.74a31.15,31.15,0,0,0,4.2,2.28,6.29,6.29,0,0,0,3.5.62Z"/><path d="M712.54,896.42c-2-1.93-4.39-3.85-6.65-5.8a71.06,71.06,0,0,1-6.54-6.2,68.29,68.29,0,0,0,8.27,3.15c2.82.94,5.64,1.78,8.58,2.89Z"/><path d="M720.72,891.27a9.46,9.46,0,0,1-2.38-5.77,8,8,0,0,1,1.35-5,6.25,6.25,0,0,0,1.92,3.8,4.19,4.19,0,0,0,3,1.22Z"/><path d="M729.19,890.86a7.93,7.93,0,0,1-.1-3.82,20.06,20.06,0,0,1,.8-2.78c.3-.85.59-1.65.82-2.46a6.67,6.67,0,0,0,.27-2.53,7.4,7.4,0,0,1,1.47,2.38c.37.88.65,1.78.94,2.63a16.31,16.31,0,0,0,.93,2.31c.34.64.78,1.12,1.1,1.09Z"/><path d="M739.58,890.07a12.66,12.66,0,0,1,3.52-9.52,9.11,9.11,0,0,0,3.06,7.14Z"/><path d="M755.23,892.86a7.6,7.6,0,0,1-.17-6.82,4.44,4.44,0,0,0,4.53,1.34Z"/><polygon points="764.76 894.57 768.07 887.67 771.76 894.37 764.76 894.57"/><path d="M668.78,946.89A110.25,110.25,0,0,0,645.24,953a103.26,103.26,0,0,0-21.47,11.8c-6.79,4.72-13.34,10-20.22,14.78A167.48,167.48,0,0,1,582,992.55a165,165,0,0,0,20.47-14.33C609,973,615.1,967.33,621.67,962a108.07,108.07,0,0,1,21.47-13.81A116.7,116.7,0,0,1,667.5,940Z"/><path d="M1361.18,928.43c4.2,5.84,8.36,11.7,12.71,17.31,2.16,2.82,4.44,5.49,6.82,8.08a66.36,66.36,0,0,0,7.76,7c5.54,4.32,11.83,7.82,18.12,11.27s12.73,6.7,19.12,10c-6.64-2.79-13.28-5.55-19.89-8.45s-13.2-5.93-19.37-10a70.9,70.9,0,0,1-8.8-6.76c-2.71-2.5-5.32-5.11-7.76-7.82-4.92-5.38-9.56-10.91-14.23-16.39Z"/><path d="M702.47,1366.09c-9.18,14.53-19,28.57-27.91,43.05s-16.53,29.55-21.19,45.58a141.5,141.5,0,0,0-4.8,24.53,180.35,180.35,0,0,0-.81,25.17l.12,3.16c0,1.06.14,2.11.21,3.16.16,2.11.28,4.23.5,6.34s.36,4.23.63,6.34l.78,6.33c1.11,8.45,2.63,16.86,4.07,25.34a240.87,240.87,0,0,1-7.45-24.71,196.25,196.25,0,0,1-4.31-25.6,145.39,145.39,0,0,1-.35-26.15c.08-1.09.15-2.18.27-3.27l.41-3.27c.23-2.18.63-4.34,1-6.51.77-4.32,1.83-8.59,3-12.82,5-16.92,13.46-32.47,23.36-46.6A422.26,422.26,0,0,1,702.47,1366.09Z"/><path d="M1356.3,921.2a58.19,58.19,0,0,0,5.89.81,17.74,17.74,0,0,0,5.57-.34,16.87,16.87,0,0,0,5.21-2.61c1.71-1.17,3.42-2.43,5.17-3.58-1.37,1.6-2.64,3.24-4,4.88a19.54,19.54,0,0,1-5,4.51,21.85,21.85,0,0,1-6.56,2.37,63.26,63.26,0,0,1-6.58,1Z"/><path d="M1347.54,912.39c4.18-1.55,8.1-1.84,11.54-2.85a12.81,12.81,0,0,0,4.71-2.39,13.16,13.16,0,0,0,3.36-4.46,14.07,14.07,0,0,1-2,5.61,15.56,15.56,0,0,1-4.5,4.39c-1.74,1.17-3.55,2.08-5.23,3a32.75,32.75,0,0,0-4.54,2.87Z"/><path d="M1342.33,905.92c2.17-.69,4.32-1.25,6.41-1.76a57.48,57.48,0,0,0,6-1.66,11.45,11.45,0,0,0,4.83-3.17,17.63,17.63,0,0,0,3.11-5.4,18.65,18.65,0,0,1-1.65,6.37,12,12,0,0,1-.87,1.51c-.32.49-.71.93-1.08,1.4a17.62,17.62,0,0,1-2.63,2.34,55.3,55.3,0,0,1-5.73,3.49c-1.87,1.05-3.65,2.09-5.34,3.21Z"/><path d="M1320.9,893.14a12.9,12.9,0,0,0,3.08-2c1.09-.87,2.19-1.83,3.29-2.79s2.21-2,3.36-2.9a22.86,22.86,0,0,1,3.66-2.55,20.61,20.61,0,0,0-2.3,3.66c-.67,1.28-1.3,2.59-1.94,3.91s-1.28,2.65-2,4a19.58,19.58,0,0,1-2.88,4.22Z"/><polygon points="1291.93 884.21 1304.6 875.23 1297.16 888.86 1291.93 884.21"/><polygon points="1277.08 882.24 1288.72 872.81 1282.63 886.5 1277.08 882.24"/><path d="M1259.31,884a6.54,6.54,0,0,1,.91-1.21c.14-.15.29-.3.44-.44l.41-.34a15.93,15.93,0,0,1,1.59-1.14c1-.67,2.06-1.25,3.07-1.82s2-1.13,3-1.72a10.62,10.62,0,0,0,2.66-2,12,12,0,0,1-1.38,3.26c-.58,1-1.2,2-1.8,3s-1.18,2-1.69,2.92a9.38,9.38,0,0,0-.62,1.36l-.12.31c0,.1,0,.18,0,.26s.06.21.09.25Z"/><polygon points="1233.38 888.22 1240.43 879.09 1239.95 890.62 1233.38 888.22"/><polygon points="1217.84 893.59 1227.44 885.28 1223.71 897.41 1217.84 893.59"/><path d="M1247.14,882.23a31.18,31.18,0,0,0,5.09-3.38,38.85,38.85,0,0,1,5.43-3.79,37.81,37.81,0,0,0-2.61,5.86,36.85,36.85,0,0,1-3,6.26Z"/><path d="M1308.75,886.51a12.17,12.17,0,0,0,3.52-2.14,19.83,19.83,0,0,0,3-3.6,27.65,27.65,0,0,1,3.38-4.2,15.35,15.35,0,0,1,4.37-3,14.4,14.4,0,0,0-3,4,25,25,0,0,0-1.61,4.65,24.71,24.71,0,0,1-2,5.23,18.51,18.51,0,0,1-3.83,4.83Z"/><path d="M1332.74,898.5a9.52,9.52,0,0,0,4.17-2.43,15.27,15.27,0,0,0,2.78-5,34,34,0,0,1,2.84-6.08,14.73,14.73,0,0,1,4.75-4.62,13.67,13.67,0,0,0-3.17,5.38,31,31,0,0,0-1,6.16,19.7,19.7,0,0,1-1.78,7,15.54,15.54,0,0,1-5.47,5.85Z"/><path d="M1361.47,929.48a18.27,18.27,0,0,0,6,2.75,20.7,20.7,0,0,0,7,.45c4.85-.47,9.73-2.35,14.44-4.43-4.13,3.07-8.47,6.07-13.69,7.84a23.92,23.92,0,0,1-17-.4Z"/><path d="M1291.12,949.88a16.87,16.87,0,0,1,4.24,2.26,11.29,11.29,0,0,1,3.11,3.62,21.8,21.8,0,0,1,1.5,3.87c.39,1.26.76,2.5,1.2,3.73-.93-.91-1.83-1.9-2.71-2.85a19,19,0,0,0-2.7-2.52,6.41,6.41,0,0,0-2.79-1.17,11.76,11.76,0,0,0-3,0Z"/><path d="M1303.38,948.25a11.05,11.05,0,0,1,3.35,3.33,20.35,20.35,0,0,1,1.83,3.51,46.88,46.88,0,0,1,2.14,7,44.49,44.49,0,0,0-5-4.93,15.45,15.45,0,0,0-2.65-1.79,4.31,4.31,0,0,0-2.32-.61Z"/><path d="M1313.36,945.68a6.73,6.73,0,0,1,3.79,0l.75.25a6.14,6.14,0,0,1,.63.31,6.58,6.58,0,0,1,1.14.67A17.66,17.66,0,0,1,1323,950a55.69,55.69,0,0,1,4.8,6.76,54,54,0,0,0-6.92-4,13.43,13.43,0,0,0-3.39-1.09,2.55,2.55,0,0,0-.71-.05,3,3,0,0,0-.31,0l-.23.08c-.33.07-.29.34-.13.36Z"/><path d="M1332.11,943.25a32.2,32.2,0,0,1,6.2,2,35.75,35.75,0,0,1,5.46,3c1.69,1.11,3.27,2.27,4.88,3.37s3.24,2.16,5,3.13c-1.92-.42-3.84-1-5.73-1.55s-3.76-1.24-5.59-1.78a31.16,31.16,0,0,0-5.41-1.15,25.81,25.81,0,0,0-5.27,0Z"/><path d="M1345.57,938.66a118.77,118.77,0,0,1,17.06,10.24,115.31,115.31,0,0,0-19-3.52Z"/><polygon points="1351.58 934.68 1364.33 939.83 1350.7 941.62 1351.58 934.68"/><path d="M1294.25,1429.39c8.64,12.66,17.17,25.31,24.87,38.63s14.46,27.39,18.89,42.35a156.36,156.36,0,0,1,6.42,46,208.26,208.26,0,0,1-5.5,45.76c.54-15.34,1-30.52,0-45.58a198.53,198.53,0,0,0-7.67-44.23c-4.23-14.35-10.31-28.14-17-41.77S1300.36,1443.47,1294.25,1429.39Z"/><path d="M1147.34,954.58a84.3,84.3,0,0,1,14.21-.63c4.75.1,9.48.45,14.2.8,9.44.81,18.84,1.86,28.2,3.06,18.74,2.32,37.37,5.06,56,7.31q7,.87,14,1.59c4.66.52,9.32.95,14,1.34,9.32.78,18.65,1.27,28,1.26q7,0,13.88-.67a79.13,79.13,0,0,0,13.57-2.38,34.25,34.25,0,0,0,12.2-5.83,19.45,19.45,0,0,0,4.54-5.06,21.87,21.87,0,0,0,2.56-6.47,19.32,19.32,0,0,1-5.79,13,26.4,26.4,0,0,1-5.83,4.48,47.1,47.1,0,0,1-6.6,3.18c-9.16,3.36-18.81,4.65-28.34,5.25a237.26,237.26,0,0,1-28.6-.1c-9.5-.53-18.94-1.48-28.35-2.6-18.81-2.3-37.45-5.46-56-8.88l-13.9-2.54q-6.95-1.32-13.9-2.51c-4.63-.85-9.27-1.59-13.93-2.27-2.32-.32-4.65-.64-7-.85S1149.71,954.61,1147.34,954.58Z"/><path d="M850.12,948.9a209.77,209.77,0,0,1-24.25,11q-12.47,4.75-25.29,8.47a362.71,362.71,0,0,1-52.16,11.2c-8.84,1.2-17.73,2.07-26.67,2.44a169.42,169.42,0,0,1-26.91-.83,92,92,0,0,1-13.37-2.5,59.58,59.58,0,0,1-6.51-2.24c-1.07-.41-2.11-.95-3.16-1.43s-2.06-1.1-3-1.78a23.35,23.35,0,0,1-5.28-4.7,16,16,0,0,1-3.14-6.35,18,18,0,0,1-.15-6.89,27.16,27.16,0,0,1,2.08-6.37,29.55,29.55,0,0,0-1,6.48,16.56,16.56,0,0,0,1,6.22,14.72,14.72,0,0,0,3.31,5.11,20,20,0,0,0,5,3.55c.9.5,1.88.91,2.83,1.33s2,.77,3,1.06a55.25,55.25,0,0,0,6.18,1.54,101,101,0,0,0,12.8,1.53,214,214,0,0,0,26.06-.36q6.52-.43,13.05-1.15c4.35-.46,8.69-1,13-1.59,17.35-2.38,34.61-5.67,51.75-9.54A526.88,526.88,0,0,0,850.12,948.9Z"/><path d="M877.19,1599.29a211.47,211.47,0,0,1,35.62-8.74,192.68,192.68,0,0,1,36.81-2.17,220.55,220.55,0,0,1,36.5,4.72c12,2.51,23.71,5.62,35.44,9.06-12.23-.57-24.32-2.2-36.33-3.63s-23.93-2.69-35.88-3.15a332,332,0,0,0-36,.62C901.39,1596.8,889.37,1598.17,877.19,1599.29Z"/></svg>